<svg width="140" height="133" viewBox="0 0 140 133" fill="none" xmlns="http://www.w3.org/2000/svg">
<path d="M33.6027 102.605C27.3899 101.96 21.4729 99.0283 17.1966 94.483C13.1354 90.126 10.6072 83.8325 12.3285 78.1307C13.5388 74.204 16.5511 71.1111 19.6172 68.3946C22.2798 66.0548 25.1576 63.8224 28.5195 62.6659C34.4633 60.6219 41.0527 62.2087 47.2924 61.3212C54.2582 60.326 60.7131 56.0766 64.344 50.0521C65.3122 48.4383 66.1191 46.5557 65.608 44.7268C65.0701 42.7904 63.2413 41.5531 61.4662 40.6387C58.9918 39.3746 56.3561 38.3795 54.07 36.7389C51.8108 35.1252 49.9012 32.6777 49.7667 29.9075C49.6054 26.1691 52.8328 22.9147 56.4368 21.8927C60.0407 20.8707 63.9136 21.5969 67.5445 22.6189C69.481 23.1568 71.4443 23.8023 73.4346 23.7485C80.6963 23.6409 85.3761 15.3303 92.4764 13.8242C97.6941 12.7214 102.966 15.5455 108.318 15.5455C113.616 15.5455 118.484 12.8021 123.567 11.2422C128.651 9.68229 135.025 9.70918 138.252 13.9317C140.942 17.455 140.269 22.6458 137.983 26.438C135.697 30.2303 132.093 33.0005 128.758 35.932C125.638 38.6754 122.707 41.607 119.963 44.7268C118.861 45.9909 117.731 47.4163 117.704 49.0838C117.677 51.7465 120.286 53.5216 122.196 55.3773C127.763 60.7833 128.301 69.9008 125.342 77.0549C122.357 84.209 116.521 89.7764 110.469 94.6444C104.418 99.5124 97.963 103.977 92.9874 109.948" fill="#F8F6F2"/>
<path d="M116.306 108.576C114.88 104.73 113.428 100.83 113.266 96.7423C113.078 92.4928 114.262 88.2972 114.288 84.0477C114.288 79.9058 112.352 75.6295 108.614 73.8544L109.125 73.4779C112.46 69.7394 113.589 66.7272 113.589 62.6929C113.589 58.6586 112.244 58.3896 112.244 58.3896C112.244 58.3896 112.244 58.1207 111.707 55.1622C111.169 52.2037 107.134 51.9348 107.134 51.9348C107.134 51.9348 107.403 53.2795 105.521 51.6658C103.638 50.0521 103.1 51.9348 102.562 52.4727C102.401 52.634 102.508 53.172 102.75 53.8981C102.428 53.2526 102.051 52.5802 101.459 52.0961C100.868 51.612 99.9533 51.3431 99.2003 51.6389C99.0389 51.6927 98.9044 51.7734 98.7968 51.881C98.8506 50.9934 98.9313 50.1059 98.9582 49.2184C99.0927 46.3137 99.0658 43.3821 98.6892 40.5043C98.501 39.0788 98.2051 37.6534 97.479 36.3893C96.7528 35.1253 95.5156 34.1032 94.0364 33.8612C93.2833 33.7536 92.3958 33.8881 91.8847 34.426C91.1317 35.2059 91.3199 36.4431 91.562 37.492C92.9875 43.7586 93.8212 50.1328 94.0095 56.5339L94.2784 56.5608C88.6842 58.7931 92.6109 65.1135 93.9557 67.1037C95.1391 68.9057 95.2735 69.9277 94.3591 72.7786C94.3322 72.7786 94.2784 72.7786 94.2515 72.7786C90.782 72.8593 88.2001 78.9376 87.0436 82.4878C85.8064 86.28 85.7795 90.664 87.9311 93.999C88.9801 95.6396 90.5131 96.9574 91.2931 98.7325C93.1488 102.874 90.5131 107.527 87.958 111.266C87.5815 111.831 87.205 112.395 86.8284 112.987C85.3492 110.808 83.87 108.926 82.9555 107.796C78.7599 102.686 73.327 98.5443 67.2218 96.0161C62.8648 94.2141 57.9429 93.1383 56.1678 88.7544L55.8989 88.2165C55.4686 83.7788 54.0969 69.0133 54.0969 69.0133C57.1361 67.6416 63.2951 64.7907 63.2951 64.7907C58.696 60.8102 53.6397 56.1573 48.4758 51.6389C46.7545 50.1328 44.6029 48.9225 42.3437 48.7073C37.7446 47.8198 35.0551 52.4727 33.9255 61.6171C32.2849 61.4288 30.5098 62.155 29.5415 63.5266C28.2775 65.3286 28.5733 68.0719 30.187 69.5512C31.0208 70.3311 32.1773 70.7077 33.3069 70.7077C33.3069 70.8153 33.3069 70.9228 33.3069 71.0573C31.989 76.9205 30.7787 81.1968 29.2995 86.3338L29.0574 86.2531C22.0916 88.1896 15.7981 92.3852 11.3066 98.0601C5.17444 105.86 3.74899 111.373 1.46289 121.029C25.83 108.953 48.5296 140.662 123.836 128.29C120.959 120.625 119.157 116.241 116.306 108.576Z" fill="white"/>
<path d="M93.9555 30.6606C102.422 30.6606 109.286 23.797 109.286 15.3303C109.286 6.86361 102.422 0 93.9555 0C85.4889 0 78.6252 6.86361 78.6252 15.3303C78.6252 23.797 85.4889 30.6606 93.9555 30.6606Z" fill="#4FC9DA" fill-opacity="0.7"/>
<path d="M108.425 14.6848C105.44 14.6848 102.454 14.6848 99.4691 14.6848C99.2808 11.9415 98.6623 9.25197 97.6133 6.72382C98.2319 6.61624 98.8505 6.48176 99.4691 6.32039C100.868 5.94385 102.212 5.43283 103.503 4.76045C103.961 4.51839 103.557 3.81912 103.1 4.06118C101.271 5.00251 99.3077 5.62111 97.2906 5.94385C96.4299 4.03429 95.3272 2.2323 94.0094 0.591685C93.6866 0.188256 93.1218 0.753083 93.4446 1.15651C94.6549 2.66265 95.65 4.30324 96.4568 6.05144C94.4397 6.29349 92.3688 6.21279 90.3516 5.83626C90.8357 4.08807 91.5081 2.39369 92.3419 0.779972C92.5839 0.322752 91.8846 -0.0806765 91.6426 0.376543C90.755 2.07094 90.0827 3.84602 89.5717 5.6749C89.3565 5.62111 89.1144 5.56732 88.8993 5.51353C87.5545 5.16389 86.2904 4.65288 85.0532 4.03429C84.596 3.79223 84.1926 4.4915 84.6498 4.73356C86.156 5.51352 87.7428 6.07833 89.3834 6.45486C89.0069 7.961 88.7379 9.49403 88.6034 11.0271C88.4958 12.2373 88.469 13.4476 88.4958 14.6848C87.4469 14.6848 86.4249 14.6848 85.376 14.6848C83.1975 14.6848 80.9921 14.6848 78.8136 14.6848C78.3025 14.6848 78.3025 15.4917 78.8136 15.4917C82.041 15.4917 85.2953 15.4917 88.5227 15.4917C88.6572 17.6971 89.0337 19.9025 89.6523 22.0003C89.8137 22.5382 90.002 23.103 90.1902 23.6409C89.4641 23.7485 88.7648 23.883 88.0655 24.0713C86.5056 24.4747 84.9995 25.0395 83.5471 25.7926C83.0899 26.0346 83.4933 26.7339 83.9505 26.4918C85.9946 25.4429 88.2 24.7437 90.4592 24.4209C90.9164 25.5774 91.4543 26.7339 92.0729 27.8097C92.315 28.2669 93.0142 27.8635 92.7722 27.4063C92.2074 26.4112 91.7233 25.3891 91.293 24.3133C93.2563 24.0982 95.2735 24.1788 97.2099 24.5016C96.6451 26.0884 95.892 27.6214 95.0045 29.0738C94.7355 29.5041 95.4348 29.9344 95.7038 29.4772C96.6451 27.9442 97.4251 26.3304 98.0168 24.6629C98.6623 24.7974 99.3077 24.9588 99.9263 25.1471C101.432 25.6043 102.858 26.2498 104.203 27.0297C104.66 27.2987 105.063 26.5994 104.606 26.3305C102.643 25.174 100.491 24.3671 98.2857 23.9099C98.9043 22.0003 99.2808 20.037 99.4422 18.0467C99.496 17.213 99.5229 16.3523 99.496 15.5186C100.276 15.5186 101.056 15.5186 101.836 15.5186C104.014 15.5186 106.22 15.5186 108.398 15.5186C108.936 15.4917 108.936 14.6848 108.425 14.6848ZM90.1633 6.64312C92.3419 7.04655 94.6011 7.12725 96.8065 6.83141C97.4251 8.33754 97.9092 9.87055 98.2319 11.4843C98.4471 12.5332 98.5816 13.609 98.6623 14.6848C95.5424 14.6848 92.4226 14.6848 89.3027 14.6848C89.222 11.9684 89.491 9.25196 90.1633 6.64312ZM97.7478 22.9954C97.6671 23.2375 97.6133 23.4795 97.5326 23.7216C95.4079 23.3451 93.2025 23.2644 91.0509 23.5334C90.1096 20.9514 89.5448 18.235 89.3565 15.4917C92.4763 15.4917 95.5962 15.4917 98.716 15.4917C98.7698 18.0198 98.4471 20.5749 97.7478 22.9954Z" fill="white"/>
<path d="M115.741 17.0516C115.526 16.944 115.31 17.0516 115.203 17.2399C115.095 17.4281 115.203 17.6702 115.391 17.7778C119.022 19.4991 120.178 20.7363 120.044 21.2742C119.883 21.9196 117.785 22.5383 112.352 22.1348C108.802 21.8659 104.472 21.2204 99.8188 20.2522C104.122 19.3646 108.049 18.3426 111.222 17.2668C116.279 15.5455 118.726 13.9856 118.511 12.587C118.323 11.3767 116.225 10.6774 112.11 10.5161C111.895 10.5161 111.706 10.6774 111.68 10.8926C111.68 11.1078 111.841 11.296 112.056 11.3229C116.09 11.4843 117.623 12.1836 117.704 12.7215C117.946 14.1469 110.577 17.3474 97.8285 19.8218C96.672 19.5529 95.4886 19.2839 94.3052 19.0149C78.9211 15.2765 70.0188 10.7581 70.3953 9.17129C70.4491 9.00992 70.8795 8.14928 75.2096 8.20307C75.4248 8.20307 75.613 8.0148 75.613 7.79964C75.613 7.58448 75.4248 7.39621 75.2096 7.39621C71.6863 7.36932 69.8574 7.88033 69.5885 8.98304C69.2657 10.3547 71.5787 12.1029 76.4737 14.2007C81.0728 16.1641 87.3125 18.1543 94.0632 19.7949C94.628 19.9294 95.2197 20.0639 95.7845 20.1983C94.8969 20.3597 93.9825 20.5211 93.0681 20.6556C86.2367 21.7583 79.7549 22.3769 74.8062 22.35C69.3733 22.3231 67.3293 21.57 67.2217 20.8976C67.1948 20.7362 67.2486 19.768 71.2829 18.1274C71.4981 18.0467 71.5787 17.8047 71.4981 17.5895C71.4174 17.3744 71.1753 17.2937 70.9601 17.3743C67.7058 18.7191 66.2266 19.9025 66.4148 21.0321C66.63 22.4306 69.454 23.1299 74.8062 23.1568C74.86 23.1568 74.9137 23.1568 74.9944 23.1568C79.9701 23.1568 86.4249 22.5382 93.2025 21.4355C94.7625 21.1935 96.2955 20.8976 97.7747 20.6287C103.154 21.8121 108.21 22.592 112.244 22.9148C113.428 22.9954 114.504 23.0492 115.472 23.0492C118.753 23.0492 120.528 22.5114 120.797 21.4624C121.12 20.2522 119.452 18.8267 115.741 17.0516Z" fill="#211F1C"/>
<path d="M103.208 34.1837C102.75 34.4258 102.347 33.7265 102.804 33.4845C104.525 32.57 106.247 31.6556 107.968 30.7142C108.425 30.4722 108.829 31.1715 108.372 31.4136C106.623 32.3549 104.902 33.2693 103.208 34.1837ZM104.821 37.196C106.543 36.7926 108.264 36.3623 110.012 35.9588C110.523 35.8512 110.308 35.0713 109.797 35.1789C108.076 35.5823 106.354 36.0126 104.606 36.4161C104.122 36.5505 104.337 37.3305 104.821 37.196ZM86.6132 38.487C84.0582 38.0298 81.5031 37.5726 78.9481 37.0884C78.4371 37.0078 78.2219 37.7608 78.7329 37.8684C81.288 38.3256 83.843 38.7828 86.3981 39.267C86.9091 39.3476 87.1243 38.5677 86.6132 38.487ZM86.8284 41.4724C83.9506 42.064 81.0728 42.6558 78.195 43.2475C77.684 43.355 77.8992 44.135 78.4102 44.0274C81.288 43.4357 84.1658 42.844 87.0436 42.2523C87.5546 42.1447 87.3394 41.3648 86.8284 41.4724Z" fill="#211F1C"/>
<path d="M125.235 131.303C123.487 126.623 121.765 121.943 120.017 117.263C118.323 112.691 116.44 108.146 115.015 103.52C114.315 101.288 113.777 98.9745 113.67 96.6078C113.562 94.2141 113.912 91.8204 114.208 89.4267C114.719 85.4194 115.149 81.3582 113.159 77.6466C112.352 76.1405 111.222 74.8226 109.797 73.8813C109.636 73.7737 109.447 73.6392 109.259 73.5317C112.137 69.9546 115.068 65.7589 114.073 60.9447C113.831 59.7075 113.293 58.5779 112.486 57.6096C112.352 57.4483 112.191 57.4483 112.056 57.529C112.056 57.0987 112.029 56.6414 111.975 56.2111C111.814 54.8394 111.276 53.5485 110.173 52.6609C109.098 51.8003 107.592 51.3431 106.274 51.881C106.193 51.9079 106.139 51.9617 106.112 52.0154C105.547 51.2086 104.741 50.5362 103.745 50.5362C102.939 50.5631 102.105 51.1548 101.836 51.9079C101.701 51.8003 101.567 51.6658 101.406 51.5851C100.787 51.2086 99.9533 51.0203 99.254 51.2086C99.3616 49.7831 99.4154 48.3308 99.4423 46.9053C99.4692 45.0765 99.4154 43.2476 99.2002 41.4187C99.0119 39.7512 98.7699 38.0299 97.9899 36.4969C97.3444 35.2328 96.2955 34.1839 94.9508 33.6998C93.6867 33.2157 91.9385 33.3232 91.2392 34.6142C90.513 35.9321 91.1854 37.6534 91.4813 39.025C91.8578 40.7732 92.1805 42.5214 92.4495 44.2965C93.095 48.3308 93.4715 52.392 93.5791 56.4532C92.9067 56.6952 92.2881 57.0448 91.804 57.6096C90.8627 58.6586 90.6475 60.1109 90.8358 61.4557C91.0778 63.177 92.0461 64.6831 92.9067 66.1623C93.8211 67.7223 94.7356 69.4974 94.3859 71.3531C94.2784 71.8642 95.0583 72.0793 95.1659 71.5683C95.7576 68.4753 93.5522 66.0279 92.315 63.4459C91.7502 62.2625 91.3737 60.8909 91.6695 59.573C91.9385 58.4434 92.7453 57.5559 93.848 57.1793C94.9508 56.8028 96.1341 56.8028 97.2637 56.9373C98.6623 57.0986 100.088 57.4752 101.433 57.9055C102.723 58.3089 104.122 58.7124 105.279 59.4654C106.112 60.0302 106.919 61.0254 106.381 62.0743C105.87 63.0963 104.499 63.4997 103.423 63.4459C101.782 63.3384 100.276 62.4777 98.6623 62.2088C98.1513 62.1281 97.9361 62.908 98.4471 62.9887C100.034 63.2576 101.486 64.0376 103.1 64.2259C104.283 64.3604 105.547 64.0645 106.462 63.2576C107.296 62.5315 107.565 61.4019 107.161 60.4068C107.296 60.084 107.376 59.7075 107.43 59.3578C107.565 58.6317 107.618 57.8786 107.592 57.1255C107.538 55.6194 107.161 54.0864 106.489 52.7416C106.462 52.7147 106.462 52.6878 106.435 52.634C107.376 52.2575 108.371 52.4458 109.205 52.9837C110.12 53.5485 110.711 54.4629 110.98 55.5118C111.303 56.749 111.169 58.04 111.034 59.2772C110.927 60.2454 110.873 61.5095 110.039 62.1818C109.582 62.5584 108.183 62.6122 108.183 61.7784C108.183 61.2674 107.376 61.2674 107.376 61.7784C107.349 62.8811 108.614 63.3652 109.555 63.2308C110.846 63.0425 111.464 61.7784 111.68 60.6219C111.814 59.8689 111.922 59.0889 111.975 58.3089C113.213 59.8958 113.562 61.9936 113.347 63.9569C113.105 66.2161 112.029 68.314 110.765 70.1697C110.039 71.2187 109.259 72.2138 108.452 73.2089C108.237 73.1551 108.049 73.1551 107.834 73.2089C106.731 73.4778 105.655 73.8006 104.525 73.9351C103.45 74.0696 102.347 74.1233 101.244 74.0696C100.276 74.0158 99.3347 73.7468 98.4202 73.3972C96.8872 72.8593 95.1659 71.9717 93.4984 72.3483C92.1805 72.6441 91.1316 73.6661 90.3248 74.6881C89.3027 75.9791 88.5228 77.4583 87.8773 78.9645C86.4249 82.2726 85.4029 85.8228 85.9139 89.4805C86.1829 91.4708 86.936 93.2997 88.1462 94.8865C89.4103 96.554 90.9165 98.0332 91.3737 100.158C92.2881 104.515 89.1145 108.576 86.9091 111.992C86.8822 112.046 86.8553 112.073 86.8284 112.126C86.3712 111.454 85.887 110.808 85.4029 110.136C83.4934 107.554 81.4224 105.08 79.0288 102.928C75.9896 100.185 72.547 97.8719 68.8355 96.1506C65.6349 94.6713 61.9503 93.8914 59.0994 91.7397C58.427 91.2287 57.8084 90.6101 57.3243 89.9109C56.894 89.3192 56.625 88.6468 56.3023 88.0013C56.3023 87.9744 56.2754 87.9744 56.2754 87.9475V87.9206C56.2754 87.813 56.2485 87.7324 56.2485 87.6248C56.2216 87.3827 56.1947 87.1406 56.1678 86.8986C56.114 86.3607 56.0602 85.7959 56.0064 85.258C55.5223 80.1479 55.0382 75.0378 54.5541 69.9546C54.5272 69.6856 54.5003 69.3898 54.4734 69.1208C57.4588 67.7492 60.4441 66.3775 63.4295 65.0058C63.6447 64.8983 63.6985 64.5217 63.5102 64.3604C58.9111 60.3799 54.4465 56.2918 49.8743 52.2575C48.1261 50.7245 46.3241 49.2183 44.1187 48.5191C44.7911 48.2501 45.4635 47.8736 46.1358 47.3088C47.8303 45.8295 48.9867 40.7732 45.9476 37.9492C42.7739 44.7268 38.148 41.0153 32.5 45.0496C28.1429 48.1694 29.9449 56.9911 32.7958 60.9447C31.3704 61.106 29.9987 61.8322 29.138 63.0156C27.7664 65.0059 28.0622 67.9374 29.8642 69.578C30.6711 70.3311 31.72 70.7345 32.7958 70.8421C32.7151 71.4607 32.5806 72.0793 32.4193 72.6979C32.0696 74.204 31.6931 75.7102 31.3166 77.2163C30.5635 80.0672 29.7566 82.9181 28.9498 85.769C28.5195 85.769 28.0622 85.9841 27.6588 86.1186C26.8251 86.3876 26.0182 86.6834 25.2382 87.0062C23.7052 87.6248 22.1991 88.3509 20.7736 89.1847C17.8958 90.8791 15.2332 92.9769 12.9202 95.3975C8.13285 100.481 5.17437 106.936 3.10343 113.525C1.89315 117.371 0.951814 121.298 0.0104795 125.251C-0.0971015 125.762 0.655966 125.977 0.790442 125.466C2.37726 118.769 3.99098 111.992 6.94946 105.752C9.82725 99.7276 14.0229 94.483 19.644 90.8253C21.1502 89.8571 22.7101 88.9695 24.3507 88.2433C25.2382 87.8399 26.1258 87.4903 27.0133 87.1675C27.4436 87.0062 27.9009 86.8717 28.3312 86.7372C28.627 86.6565 28.8422 86.4952 29.1112 86.6027C29.1918 86.6296 29.2456 86.6296 29.3263 86.6027C29.2725 86.7103 29.2725 86.8179 29.3801 86.9524C31.6662 89.9916 35.0012 92.17 38.6859 93.1114C40.5416 93.5955 42.4512 93.7569 44.3608 93.5686C46.6469 93.3535 48.7985 92.5735 50.8963 91.7128C52.5638 91.0136 54.6616 90.3143 55.7375 88.7544C55.7644 88.8082 55.7912 88.8619 55.8181 88.9157C56.1409 89.6419 56.5443 90.3143 57.0553 90.9329C58.0505 92.1432 59.3952 93.0307 60.7938 93.73C62.2999 94.4831 63.8598 95.0478 65.4198 95.6395C67.2217 96.3119 68.9699 97.0919 70.6643 98.0063C74.2145 99.9428 77.4419 102.39 80.239 105.295C82.2562 107.366 84.0044 109.625 85.6719 111.992C85.887 112.288 86.1022 112.584 86.2905 112.879C84.354 115.972 82.5789 119.791 83.8968 123.395C84.4885 125.036 85.7257 126.569 87.4739 127.026C88.98 127.43 90.782 126.811 91.5888 125.439C92.2074 124.417 92.073 123.126 91.8309 122.024C91.5351 120.679 90.9971 119.361 90.3786 118.124C89.491 116.295 88.4152 114.547 87.2587 112.853C88.6842 110.593 90.2979 108.415 91.3199 105.914C92.0461 104.165 92.4495 102.229 92.1805 100.346C91.8847 98.3829 90.7282 96.8498 89.491 95.3706C88.2 93.7838 87.2049 92.1163 86.7746 90.0722C86.3712 88.082 86.4787 86.011 86.936 84.0477C87.2856 82.4878 87.8773 80.9547 88.4959 79.4755C89.1145 78.0232 89.8675 76.5708 90.8358 75.3067C91.6426 74.2847 92.7453 73.1551 94.117 73.0744C95.8652 72.9937 97.6403 74.0695 99.2809 74.5537C101.137 75.0916 103.154 74.9571 105.036 74.6881C105.547 74.6074 106.058 74.5268 106.569 74.3923C107.054 74.2847 107.592 74.0158 108.049 73.9889C108.318 73.962 108.614 74.204 108.856 74.3385C109.259 74.5537 109.636 74.8226 109.985 75.1185C112.863 77.4853 113.912 81.2775 113.751 84.8546C113.562 89.3998 112.325 93.8914 112.917 98.4635C113.508 102.982 115.31 107.231 116.897 111.481C118.565 115.972 120.232 120.437 121.9 124.928C122.707 127.134 123.54 129.339 124.347 131.545C124.643 132.002 125.423 131.787 125.235 131.303ZM95.139 56.1035C94.897 56.1304 94.6549 56.1573 94.4397 56.2111C94.3322 52.903 94.0363 49.5949 93.606 46.3136C93.3908 44.6192 93.1219 42.9517 92.7991 41.2842C92.6378 40.4505 92.4764 39.6167 92.2881 38.783C92.1267 38.0299 91.9116 37.2768 91.804 36.4969C91.7233 35.9052 91.7233 35.2328 92.1267 34.7756C92.5571 34.2646 93.337 34.157 93.9556 34.2377C95.2466 34.3991 96.3762 35.3135 97.0486 36.4162C97.8823 37.761 98.1782 39.3478 98.3664 40.8808C98.5816 42.5752 98.6623 44.2965 98.6623 46.0178C98.6623 47.9542 98.5547 49.9176 98.4202 51.8541C98.3664 52.7416 98.2589 53.6023 98.2589 54.4898C98.2589 55.1622 98.2858 55.6463 98.0975 56.2649C97.1024 56.1035 96.1072 55.9959 95.139 56.1035ZM99.1195 56.4532C99.0388 56.4263 98.9581 56.4262 98.8775 56.3994C99.0388 55.8614 99.0388 55.4043 99.0388 54.8126C99.0388 54.0057 99.0926 53.1988 99.1464 52.392C99.1464 52.2844 99.1733 52.1768 99.1733 52.0961C99.254 52.0423 99.3078 52.0155 99.3885 51.9886C100.088 51.7465 100.895 52.0961 101.406 52.6071C101.97 53.1719 102.32 53.9519 102.67 54.6512C103.073 55.4311 103.45 56.238 103.772 57.0448C103.907 57.3407 104.014 57.6634 104.122 57.9862C104.068 57.9593 104.041 57.9593 103.988 57.9324C102.401 57.3138 100.787 56.8297 99.1195 56.4532ZM106.623 59.5192C106.193 59.062 105.655 58.7123 105.09 58.4165C104.929 57.8517 104.714 57.26 104.499 56.7221C104.095 55.727 103.638 54.7588 103.127 53.7905C102.992 53.4947 102.831 53.2257 102.67 52.9568C102.67 52.8761 102.67 52.8223 102.616 52.7416C102.239 52.0692 103.127 51.3431 103.772 51.3431C104.714 51.3431 105.413 52.3113 105.79 53.0644C106.812 55.0008 107.107 57.3945 106.623 59.5192ZM51.2459 90.7177C49.2019 91.5784 47.131 92.3852 44.9256 92.708C41.3754 93.1921 37.6638 92.3583 34.5978 90.5563C32.8765 89.5343 31.3166 88.1896 30.1063 86.5759C29.9718 86.4145 29.7835 86.3876 29.6222 86.4414C29.6491 86.4145 29.6491 86.3876 29.6491 86.3607C30.3752 83.8863 31.0745 81.3851 31.7469 78.8838C32.0965 77.5659 32.4462 76.2481 32.7689 74.9302C33.0917 73.6392 33.522 72.2945 33.6833 70.9497C33.6833 70.9228 33.6833 70.8959 33.6833 70.869C34.7054 70.7883 35.7005 70.4387 36.4805 69.7663C36.6418 69.6318 36.6687 69.3629 36.5342 69.2015C36.3998 69.0402 36.1308 69.0132 35.9694 69.1477C34.4364 70.4118 31.9083 70.358 30.429 69.0132C28.9498 67.6685 28.6808 65.1403 29.8373 63.4997C30.9669 61.8591 33.4413 61.2674 35.2164 62.1818C35.4046 62.2894 35.6467 62.2087 35.7543 62.0205C35.8619 61.8322 35.7812 61.5901 35.5929 61.4826C35.4315 61.4019 35.2971 61.3481 35.1357 61.2674L35.9963 61.1329C38.7397 58.6855 37.7176 55.727 38.0942 53.3064C38.6859 49.7831 40.4878 49.5949 42.6395 49.057C44.7642 49.4335 46.62 50.4555 48.2606 51.9079C53.0748 56.0766 57.7546 60.4068 62.542 64.5755C59.6642 65.9203 56.7864 67.2382 53.8817 68.556C53.7741 68.6098 53.6665 68.7712 53.6934 68.9056C54.07 72.8593 54.4465 76.8129 54.7961 80.7665C55.0113 83.0795 55.2264 85.4193 55.4416 87.7323C54.7154 89.3729 52.8328 90.0453 51.2459 90.7177ZM90.4054 119.926C90.8627 121.056 91.2661 122.266 91.293 123.476C91.3199 125.063 90.1903 126.273 88.5766 126.327C86.5863 126.381 85.134 124.498 84.623 122.777C84.0313 120.76 84.4616 118.635 85.2416 116.752C85.6988 115.65 86.2636 114.601 86.8822 113.606C88.2269 115.596 89.491 117.694 90.4054 119.926ZM36.5611 65.4093C36.9646 65.7589 36.3729 66.3237 35.9963 65.9741C34.8936 65.0059 33.3337 64.6024 31.8814 64.8714C31.6662 64.9252 31.451 64.8176 31.3972 64.6024C31.3435 64.4141 31.4779 64.1452 31.6662 64.1183C33.4144 63.7687 35.2164 64.2528 36.5611 65.4093ZM44.7642 78.9645C41.8595 78.2921 39.412 76.1405 38.3093 73.3972C38.2286 73.182 38.39 72.9399 38.5783 72.913C38.7934 72.8593 38.9817 72.9937 39.0624 73.182C40.0575 75.6833 42.3436 77.5928 44.9525 78.1845C45.4904 78.2921 45.2752 79.0721 44.7642 78.9645ZM42.505 56.238C42.6933 56.1035 42.9353 56.2111 43.0698 56.3725C43.5001 57.018 43.9304 57.6365 44.3608 58.282C44.4952 58.4703 44.3877 58.7124 44.2263 58.8468C44.038 58.9813 43.796 58.8737 43.6615 58.7124C43.2312 58.0669 42.8008 57.4483 42.3705 56.8028C42.236 56.6145 42.3436 56.3456 42.505 56.238ZM47.7765 56.0497C47.9378 56.2111 47.9109 56.4532 47.7765 56.6145C47.6151 56.7759 47.373 56.749 47.2117 56.6145C46.8082 56.238 46.4317 55.8077 46.0821 55.3505C46.0283 55.2698 46.0283 55.1353 46.0283 55.0277C46.0552 54.9201 46.1359 54.8394 46.2165 54.7856C46.2972 54.7318 46.4317 54.705 46.5393 54.7319C46.6469 54.7588 46.7275 54.8394 46.7813 54.9201C46.8082 54.947 46.8082 54.9739 46.8351 55.0008C47.131 55.4042 47.4268 55.727 47.7765 56.0497ZM40.2458 55.1622C40.5147 54.1671 41.1333 53.3064 41.994 52.7147C42.1822 52.5802 42.4243 52.6878 42.5588 52.8492C42.6933 53.0375 42.5857 53.2795 42.4243 53.414C42.3705 53.4409 42.3167 53.4947 42.2629 53.5216C42.236 53.5216 42.1822 53.5754 42.2629 53.5216C42.236 53.5485 42.236 53.5485 42.2091 53.5754C42.1285 53.656 42.0478 53.7367 41.9671 53.7905C41.8864 53.8712 41.8057 53.9519 41.7519 54.0326C41.725 54.0595 41.725 54.0864 41.6981 54.0864C41.6981 54.0864 41.6712 54.1133 41.6712 54.1402C41.6712 54.1671 41.6443 54.1671 41.6443 54.1671C41.6443 54.194 41.6174 54.1939 41.6174 54.2208C41.483 54.4091 41.3754 54.5974 41.2947 54.7856C41.2947 54.8125 41.2678 54.8394 41.2678 54.8663C41.2409 54.9201 41.2409 54.9739 41.214 55.0008C41.1871 55.1084 41.1333 55.216 41.1064 55.3235C41.0526 55.5387 40.8106 55.6463 40.6223 55.5925C40.3265 55.5925 40.192 55.3504 40.2458 55.1622ZM45.9476 51.8003C45.9207 51.8003 45.8938 51.8272 45.8938 51.8272C45.8669 51.8541 45.8131 51.8541 45.7862 51.881C45.6248 51.9617 45.4904 52.0423 45.329 52.123C45.1676 52.2037 45.0331 52.3113 44.8987 52.4189C44.8718 52.4189 44.8718 52.4458 44.8449 52.4458C44.8449 52.4458 44.8449 52.4458 44.818 52.4458L44.7642 52.4727C44.7373 52.4727 44.7373 52.4995 44.7104 52.4995C44.6566 52.5533 44.5759 52.6071 44.5221 52.6609C44.3608 52.8223 44.1187 52.8223 43.9573 52.6609C43.796 52.5265 43.796 52.2306 43.9573 52.0961C44.549 51.5582 45.2483 51.1548 46.0014 50.8858C46.2165 50.8051 46.4317 50.9665 46.4855 51.1548C46.5662 51.3699 46.4048 51.5851 46.2165 51.6389C46.109 51.7465 46.0283 51.7734 45.9476 51.8003ZM46.6469 132.298C46.8082 132.809 46.0283 132.997 45.8669 132.513C44.8987 129.366 43.9573 126.193 43.5808 122.911C43.2581 120.087 43.4463 117.236 44.4146 114.547C44.8718 113.256 45.4635 112.019 45.9207 110.728C46.351 109.491 46.6469 108.146 46.3241 106.828C45.7055 104.192 43.0698 102.713 41.994 100.319C41.5099 99.2704 41.3485 98.087 41.7788 96.9843C42.1554 96.0161 42.9084 95.2092 43.9842 95.021C44.4952 94.9403 44.7104 95.7202 44.1994 95.8009C43.0967 95.9892 42.4243 97.065 42.3436 98.1408C42.236 99.5125 43.0698 100.777 43.9035 101.799C44.7104 102.794 45.6248 103.681 46.2972 104.757C46.9696 105.833 47.2923 107.043 47.2386 108.307C47.0772 110.97 45.5442 113.31 44.818 115.811C43.285 121.298 45.0331 127.053 46.6469 132.298ZM45.4635 100.266C45.4635 100.239 45.4635 100.239 45.4635 100.266V100.266ZM45.3559 101.126C45.6517 101.261 46.0014 101.288 46.3241 101.207C46.6469 101.126 46.9158 100.938 47.1041 100.669C47.4268 100.239 47.5075 99.5932 47.3192 99.0821C47.1848 98.7863 46.9965 98.5173 46.7007 98.356C46.4586 98.2215 46.1358 98.1408 45.8669 98.1677C45.1945 98.2215 44.5221 98.6787 44.3877 99.378C44.3877 99.4049 44.3877 99.4587 44.3877 99.4856C44.3877 99.5125 44.3608 99.5393 44.3608 99.5662C44.307 100.266 44.7642 100.857 45.3559 101.126ZM45.6786 100.4C45.6786 100.373 45.6786 100.373 45.6786 100.4C45.6248 100.373 45.6786 100.373 45.6786 100.4ZM45.2752 99.3242C45.3021 99.2973 45.329 99.2435 45.3828 99.2166C45.3828 99.2166 45.4097 99.1897 45.4366 99.1897C45.4366 99.1897 45.4635 99.1897 45.4635 99.1628C45.5173 99.1359 45.5442 99.109 45.5979 99.0821C45.6248 99.0821 45.6248 99.0553 45.6517 99.0553C45.7055 99.0284 45.7593 99.0283 45.8131 99.0014C45.84 99.0014 45.8669 99.0015 45.8938 98.9746C45.9476 98.9746 46.0014 98.9746 46.0552 98.9746C46.0821 98.9746 46.109 98.9746 46.1358 98.9746C46.1896 98.9746 46.2434 99.0014 46.2703 99.0014H46.2972C46.2972 99.0014 46.3241 99.0014 46.3241 99.0283C46.351 99.0283 46.3779 99.0553 46.4048 99.0553C46.4048 99.0553 46.4048 99.0553 46.4317 99.0553C46.4586 99.0822 46.5124 99.109 46.5393 99.1628C46.5393 99.1897 46.5662 99.1897 46.5662 99.2166C46.5662 99.2435 46.5931 99.2435 46.5931 99.2704C46.5931 99.2704 46.5931 99.2973 46.62 99.3242C46.62 99.3511 46.6469 99.378 46.6469 99.4049C46.6469 99.4318 46.6469 99.4587 46.6738 99.4587C46.6738 99.4587 46.6738 99.4587 46.6738 99.4856C46.6738 99.5394 46.6738 99.5663 46.6738 99.6201C46.6738 99.6738 46.6738 99.7007 46.6738 99.7545C46.6738 99.7814 46.6738 99.8083 46.6469 99.8352C46.6469 99.889 46.62 99.9159 46.5931 99.9697C46.5931 99.9966 46.5662 99.9966 46.5662 100.023C46.5393 100.077 46.5124 100.104 46.4855 100.158C46.4586 100.185 46.4586 100.212 46.4317 100.212C46.4048 100.239 46.4048 100.239 46.3779 100.266C46.3241 100.292 46.2972 100.319 46.2434 100.346C46.2165 100.346 46.1896 100.373 46.1627 100.373C46.1359 100.373 46.109 100.373 46.0821 100.4C46.0821 100.4 46.0821 100.4 46.0552 100.4C46.0014 100.4 45.9476 100.4 45.8938 100.4C45.8669 100.4 45.84 100.4 45.8131 100.373C45.7862 100.373 45.7593 100.346 45.7055 100.346C45.7055 100.346 45.6248 100.319 45.6248 100.292C45.5979 100.266 45.571 100.266 45.5442 100.239L45.5173 100.212L45.4904 100.185C45.4635 100.185 45.4635 100.158 45.4366 100.158C45.3828 100.131 45.3559 100.077 45.329 100.023L45.3021 99.9966C45.2752 99.9697 45.2752 99.9428 45.2483 99.9159C45.2483 99.889 45.2214 99.8621 45.2214 99.8352C45.2214 99.8083 45.2214 99.8083 45.1945 99.8083C45.1945 99.7814 45.1676 99.7545 45.1676 99.7276V99.7007C45.1676 99.7007 45.1676 99.7007 45.1676 99.7276V99.7007C45.1676 99.6469 45.1676 99.6738 45.1676 99.7007C45.1676 99.6738 45.1676 99.6469 45.1676 99.6469C45.1676 99.62 45.1676 99.5662 45.1676 99.5394C45.1676 99.4856 45.1945 99.4318 45.1945 99.4049C45.1945 99.378 45.2214 99.3511 45.2214 99.3511C45.2483 99.378 45.2483 99.3511 45.2752 99.3242ZM47.4806 119.388C47.4806 119.415 47.4806 119.415 47.4806 119.388C47.4806 119.415 47.4806 119.388 47.4806 119.388ZM47.5075 117.263C46.9158 117.102 46.1896 117.263 45.8131 117.747C45.6786 117.909 45.6517 118.151 45.8131 118.312C45.9476 118.447 46.2434 118.501 46.3779 118.312C46.4048 118.258 46.4586 118.232 46.4855 118.205L46.5124 118.178C46.5393 118.151 46.5931 118.124 46.62 118.097C46.62 118.097 46.6469 118.07 46.6738 118.07C46.6469 118.07 46.6469 118.07 46.6738 118.07H46.7007C46.7544 118.043 46.7813 118.043 46.8351 118.043C46.862 118.043 46.8889 118.043 46.8889 118.043C46.9427 118.043 46.9696 118.043 47.0234 118.043C47.0503 118.043 47.131 118.07 47.1848 118.043C47.2117 118.043 47.2117 118.043 47.2386 118.043C47.2923 118.043 47.3192 118.07 47.373 118.097C47.373 118.097 47.373 118.097 47.3999 118.097C47.4268 118.097 47.4268 118.097 47.3999 118.097C47.4268 118.097 47.4537 118.124 47.4537 118.124C47.4537 118.124 47.5344 118.151 47.5613 118.178C47.5613 118.178 47.5613 118.178 47.5882 118.205L47.6151 118.232C47.642 118.258 47.642 118.258 47.6689 118.285C47.6958 118.312 47.7227 118.366 47.7496 118.393C47.7496 118.393 47.7496 118.393 47.7496 118.42C47.7496 118.447 47.7496 118.447 47.7765 118.474C47.7765 118.527 47.8034 118.554 47.8034 118.608C47.8034 118.635 47.8034 118.635 47.8034 118.662C47.8034 118.716 47.8034 118.769 47.8034 118.823V118.85V118.877C47.8034 118.931 47.7765 118.958 47.7765 119.012C47.7765 119.038 47.7496 119.065 47.7496 119.092C47.7227 119.119 47.6958 119.2 47.6958 119.2C47.6958 119.227 47.6689 119.227 47.6689 119.254C47.6689 119.28 47.642 119.28 47.642 119.307C47.6151 119.334 47.5882 119.388 47.5613 119.388C47.5344 119.415 47.5344 119.415 47.5075 119.442C47.5075 119.442 47.5075 119.442 47.4806 119.442C47.4537 119.469 47.4537 119.469 47.4806 119.442C47.4537 119.469 47.3999 119.496 47.3999 119.496C47.373 119.496 47.373 119.523 47.3461 119.523H47.3192C47.3192 119.523 47.2386 119.549 47.2117 119.549C47.2117 119.549 47.2117 119.549 47.1848 119.549C47.1579 119.549 47.131 119.549 47.1041 119.549C47.1041 119.549 47.0503 119.549 46.9965 119.549H46.9696C46.9427 119.549 46.9158 119.523 46.8889 119.523C46.862 119.523 46.8351 119.523 46.8351 119.496H46.8082C46.7544 119.469 46.7007 119.442 46.6738 119.415C46.6469 119.415 46.6469 119.388 46.62 119.388C46.62 119.388 46.5931 119.388 46.5931 119.361C46.5393 119.334 46.5124 119.28 46.4855 119.254C46.4586 119.227 46.4317 119.2 46.4317 119.2L46.4586 119.227C46.4586 119.2 46.4317 119.2 46.4317 119.173C46.4048 119.119 46.3779 119.065 46.351 119.038C46.351 119.012 46.3241 118.985 46.3241 118.958C46.3241 118.931 46.3241 118.904 46.2972 118.877V118.85C46.2972 118.635 46.109 118.447 45.8938 118.447C45.6786 118.447 45.4635 118.635 45.4904 118.85C45.5173 119.442 45.8938 119.98 46.4317 120.222C46.9965 120.464 47.642 120.41 48.0992 120.007C48.5295 119.63 48.6909 119.038 48.6102 118.474C48.4757 117.882 48.0454 117.425 47.5075 117.263ZM47.1848 119.523C47.1579 119.549 47.1579 119.549 47.1848 119.523C47.1579 119.523 47.1848 119.523 47.1848 119.523ZM47.7227 119.092C47.6958 119.119 47.7227 119.092 47.7227 119.092V119.092ZM47.7227 119.065C47.7227 119.065 47.7227 119.038 47.7227 119.065C47.7227 119.038 47.7227 119.065 47.7227 119.065ZM46.6738 118.07C46.7007 118.07 46.7007 118.07 46.6738 118.07C46.7007 118.07 46.6738 118.07 46.6738 118.07ZM47.3999 118.07C47.3999 118.07 47.3999 118.097 47.3999 118.07C47.3999 118.097 47.373 118.07 47.3999 118.07C47.373 118.07 47.373 118.07 47.3999 118.07ZM36.7225 97.2264C35.6736 97.0381 34.6516 96.7154 33.6833 96.285C30.2408 94.8058 27.363 92.0087 25.8568 88.5661C25.6417 88.082 26.3409 87.6786 26.5561 88.1627C26.9595 89.104 27.4705 89.9915 28.0891 90.8253C30.2139 93.73 33.4413 95.774 36.9377 96.4195C37.4218 96.554 37.2066 97.3339 36.7225 97.2264Z" fill="#211F1C"/>
</svg>
