<svg width="140" height="132" viewBox="0 0 140 132" fill="none" xmlns="http://www.w3.org/2000/svg">
<path d="M31.7822 102.72C41.8203 75.0377 -1.24422 72.7756 24.996 52.8975C29.3222 49.8437 34.2705 46.6767 35.6561 41.5871C36.9568 36.7801 34.6947 31.7753 34.6664 26.7704C38.4271 -0.346372 70.8598 5.70471 88.3909 16.5344C95.4882 20.0972 103.49 24.9042 104.31 32.7932C104.621 35.8753 103.745 39.0705 104.763 42.0112C110.248 52.8692 126.931 47.8361 129.702 67.8838C131.258 90.1936 109.146 87.5074 103.688 101.476" fill="#F8F6F2"/>
<path d="M109.994 97.7151C103.801 89.4019 95.4599 81.626 89.9461 77.7804C87.175 75.8294 84.3757 74.3873 81.6047 73.3128C80.2474 69.4107 78.975 65.5935 77.7025 61.3803C78.975 61.2955 80.2191 60.7865 81.0957 59.8817C84.4888 56.2624 81.2088 50.9182 77.0239 51.2292C77.646 46.394 78.6639 41.5305 75.8646 37.2608C64.3845 24.5931 51.7734 47.0443 43.743 53.0954C43.743 53.0954 50.7555 55.8382 54.2052 57.1672C54.2052 57.1672 53.5831 69.948 53.3851 75.6032C46.2878 79.5053 40.4064 85.4998 36.6174 91.8902H3.47784C1.38541 91.8902 -0.084962 94.2937 0.565388 96.6406L8.25654 124.464C8.68068 125.963 9.83994 126.981 11.1689 126.981H12.4131C13.1766 129.356 15.4103 131.109 18.04 131.109H65.0632C68.428 131.137 71.0011 128.338 71.0011 125.058C73.1218 127.235 85.2806 131.109 93.8482 131.109C99.5034 131.109 113.076 129.922 115.055 128.847C121.644 125.284 120.569 109.846 109.994 97.7151ZM53.0175 123.22C53.0175 122.881 52.961 122.57 52.8761 122.23L50.9534 115.303C51.6038 115.105 52.2258 114.935 52.8479 114.794C53.1589 115.048 53.6114 115.275 54.2617 115.359C56.7783 115.614 59.5493 114.596 61.8114 116.236C63.1404 117.197 63.7342 118.837 64.639 120.195C65.5721 121.524 66.8728 122.57 68.3432 123.22C65.8266 123.22 60.0017 123.22 53.0175 123.22ZM71.0011 124.04C70.9729 124.068 70.9729 124.068 70.9446 124.097C70.9163 124.04 70.9163 124.012 70.8881 123.955C70.9446 123.955 71.0011 123.984 71.086 123.984C71.0294 124.012 71.0294 124.012 71.0011 124.04Z" fill="white"/>
<path d="M26.0704 49.8437L13.0916 53.7458C10.9427 54.3961 8.70883 53.1803 8.05848 51.0313C7.29503 47.6382 3.50606 41.0498 8.79369 39.4098L21.7724 35.5077C23.9214 34.8574 26.1552 36.0732 26.8055 38.2222C27.569 41.6154 31.358 48.2037 26.0704 49.8437Z" fill="#E8C444" fill-opacity="0.7"/>
<path d="M7.0972 42.8595C10.0096 44.5278 12.9786 46.1396 15.9759 47.6382C16.3434 47.8361 16.7111 48.0058 17.0787 48.1755C17.3897 48.3451 17.729 48.543 18.0683 48.6279C18.6056 48.741 19.1711 48.6279 19.567 48.2603C19.7932 48.0341 19.9062 47.7796 20.0194 47.4968C20.189 47.101 20.3869 46.7051 20.5849 46.3092C20.9525 45.5175 21.3201 44.754 21.6877 43.9623C22.5077 42.1809 23.3559 40.4278 24.1759 38.6464C24.4021 38.1657 23.667 37.7133 23.4408 38.2223C22.0553 41.163 20.698 44.0754 19.3124 47.0161C19.0862 47.4686 18.9166 47.9775 18.2946 47.8361C18.0118 47.7796 17.7573 47.5817 17.5028 47.4685C17.1352 47.2989 16.7676 47.101 16.4 46.9313C14.9862 46.2244 13.5724 45.4892 12.1586 44.7258C10.6034 43.8775 9.04825 43.0292 7.52134 42.1244C7.04064 41.8699 6.6165 42.6051 7.0972 42.8595Z" fill="#211F1C"/>
<path d="M64.4977 9.18266C64.2997 21.4262 46.09 21.4262 45.8638 9.18266C46.0617 -3.06089 64.2715 -3.06089 64.4977 9.18266Z" fill="#F06445" fill-opacity="0.7"/>
<path d="M58.4183 6.80748C57.6549 5.42196 55.7038 5.28058 54.6011 6.35507C54.0638 6.89231 53.8659 7.62749 53.9507 8.33439C53.7245 8.05163 53.4135 7.82542 53.0459 7.71232C52.4803 7.54266 51.8017 7.65577 51.321 7.99508C50.812 8.36267 50.4444 8.92819 50.4727 9.57854C50.501 10.4268 51.1231 11.0489 51.8017 11.5013C52.3107 11.8406 52.9045 12.0668 53.4983 12.2648C54.3183 12.5475 55.1383 12.7172 55.9866 12.8586C56.2693 12.9151 56.5238 12.9434 56.8066 12.9717C57.0328 12.9999 57.2307 12.7455 57.2307 12.5475C57.2307 12.4627 57.2025 12.4061 57.1742 12.3496C57.259 11.3882 57.8528 10.5682 58.2486 9.71992C58.7293 8.81508 58.9556 7.76887 58.4183 6.80748ZM57.4004 9.60682C57.0045 10.3985 56.5238 11.1903 56.3542 12.0951C55.6755 11.982 54.9686 11.8406 54.29 11.671C53.979 11.5861 53.6397 11.473 53.3286 11.3599C53.2721 11.3317 53.1873 11.3034 53.1307 11.2751H53.1024C53.0741 11.2468 53.0176 11.2468 52.9893 11.2186C52.8762 11.162 52.7631 11.1054 52.65 11.0489C52.4521 10.9358 52.2541 10.8227 52.0562 10.6813C52.0562 10.6813 51.9714 10.6248 52.0279 10.653C52.0845 10.7096 52.0279 10.653 51.9997 10.6248C51.9714 10.5965 51.9148 10.5682 51.8865 10.5399C51.83 10.4834 51.7452 10.4268 51.6886 10.342C51.6603 10.3137 51.632 10.2854 51.6038 10.2572L51.5755 10.2289C51.5473 10.1723 51.4907 10.1158 51.4624 10.031C51.4341 10.0027 51.4341 9.9744 51.4058 9.94613C51.3776 9.88958 51.3493 9.83302 51.3493 9.7482C51.3493 9.71992 51.3493 9.71992 51.3493 9.69164C51.3493 9.69164 51.3493 9.69164 51.3493 9.66337C51.3493 9.60682 51.3493 9.55026 51.3493 9.49371V9.52199V9.49371C51.3493 9.43716 51.3493 9.46544 51.3493 9.49371C51.3493 9.46544 51.3493 9.46543 51.3493 9.43716C51.3493 9.38061 51.3776 9.32405 51.4058 9.2675C51.4058 9.23923 51.4341 9.21095 51.4341 9.21095C51.4624 9.1544 51.4907 9.09785 51.519 9.06957C51.5473 9.04129 51.5473 9.04129 51.5755 9.01302C51.6038 8.95646 51.6603 8.92819 51.6886 8.89991C51.7169 8.87164 51.7169 8.87164 51.7451 8.84336C51.8017 8.81508 51.83 8.78681 51.8865 8.75853C51.9431 8.73026 51.9714 8.70198 52.0279 8.6737C52.0562 8.6737 52.0845 8.64543 52.1127 8.64543C52.1693 8.61715 52.2259 8.61715 52.2824 8.58888C52.3107 8.58888 52.3107 8.58888 52.339 8.58888C52.339 8.58888 52.339 8.58888 52.3673 8.58888C52.4238 8.58888 52.4803 8.58888 52.5369 8.58888C52.5652 8.58888 52.5935 8.58888 52.6217 8.58888C52.6783 8.58888 52.7349 8.61715 52.7914 8.61715C52.8197 8.61715 52.8479 8.64543 52.8762 8.64543C52.9327 8.6737 52.9893 8.70198 53.0459 8.73026C53.0741 8.73026 53.0741 8.75853 53.1024 8.75853C53.1024 8.75853 53.1307 8.75853 53.1307 8.78681C53.1873 8.84336 53.2438 8.87164 53.2721 8.92819L53.3003 8.95647C53.3003 8.98474 53.3287 9.01302 53.3569 9.01302C53.4135 9.06957 53.4417 9.1544 53.47 9.21095C53.4983 9.23923 53.4983 9.2675 53.5265 9.29578C53.5265 9.32405 53.5266 9.32405 53.5549 9.35233C53.5831 9.43716 53.6114 9.52199 53.6397 9.63509C53.6962 9.8613 53.9507 10.0027 54.1486 9.91785C54.3748 9.8613 54.5162 9.60681 54.4314 9.40888C54.4031 9.32405 54.3749 9.23923 54.3466 9.1544C54.6294 9.21095 54.9686 8.98474 54.8555 8.64543C54.799 8.47577 54.7707 8.33439 54.7424 8.16473C54.7424 7.99508 54.7425 7.8537 54.7707 7.74059C54.8273 7.48611 54.9404 7.23162 55.11 7.09024C55.4776 6.69438 55.9583 6.49645 56.4955 6.52472C56.7217 6.52472 56.948 6.60955 57.1742 6.75093C57.4004 6.89231 57.57 7.09024 57.7114 7.34473C58.1073 8.07991 57.7679 8.89991 57.4004 9.60682Z" fill="#211F1C"/>
<path d="M51.5757 10.2006C51.604 10.2006 51.604 10.2006 51.5757 10.2006C51.604 10.2289 51.6039 10.2289 51.6039 10.2289C51.6322 10.2289 51.604 10.2006 51.5757 10.2006Z" fill="#211F1C"/>
<path d="M99.8144 29.6828C100.352 29.598 100.578 30.418 100.041 30.5028C98.9096 30.7007 97.7503 30.6725 96.6193 30.5594C95.4599 30.4463 94.2723 30.2483 93.1413 29.909C92.1516 29.598 91.162 29.2021 90.3702 28.5235C89.7199 27.958 89.2958 27.1945 89.4089 26.318C89.5785 25.1586 90.4833 24.2255 91.3599 23.5186C91.3316 23.6317 91.2751 23.7166 91.2468 23.8297C91.2185 23.2076 91.0206 22.6986 90.6813 22.1896C90.4268 21.8221 90.144 21.4545 90.0592 21.0021C89.9743 20.4648 90.2006 19.9841 90.5399 19.56C90.7944 19.2489 91.0772 18.9662 91.3882 18.6834C91.4447 18.6269 91.5578 18.5703 91.6143 18.4855C91.6709 18.4289 91.671 18.231 91.671 18.1462C91.7275 17.9482 91.784 17.7503 91.8406 17.5524C92.2082 16.3365 92.8868 15.1489 94.0178 14.5268C96.3647 13.2544 99.1923 14.7813 101.087 16.1951C100.889 16.3648 100.663 16.5062 100.465 16.6758C100.239 15.2903 100.521 13.7916 101.087 12.4909C101.539 11.4165 102.359 10.2571 103.603 10.0592C103.914 10.0027 104.226 10.0309 104.537 10.0875C104.904 10.1723 105.102 10.3137 105.328 10.6247C105.611 11.0489 105.724 11.6144 105.724 12.1234C105.724 13.3675 105.272 14.5551 105.272 15.7993C105.243 17.6089 106.177 19.051 107.506 20.2386C107.93 20.6062 107.308 21.2 106.912 20.8324C105.498 19.5882 104.508 18.0331 104.423 16.1386C104.367 14.9227 104.734 13.7634 104.848 12.5758C104.876 12.1799 104.904 11.7275 104.763 11.3316C104.706 11.2185 104.621 11.1054 104.565 10.9923C104.537 10.9358 104.452 10.9075 104.593 10.9923C104.537 10.964 104.452 10.964 104.367 10.9358C104.169 10.8792 103.943 10.8792 103.745 10.9358C102.727 11.1337 102.105 12.2647 101.794 13.1696C101.426 14.1875 101.172 15.4034 101.341 16.4779C101.398 16.7889 101.059 17.2131 100.719 16.9586C98.8814 15.573 95.6296 13.7634 93.6785 15.9689C93.2826 16.4213 92.9999 17.0151 92.802 17.5806C92.6606 17.9765 92.5758 18.3441 92.4909 18.74C92.4061 19.1358 91.9254 19.3903 91.6426 19.7013C91.3316 20.0124 90.9358 20.4365 90.964 20.8607C90.964 20.9455 91.0488 21.1152 91.1337 21.2283C91.2185 21.3979 91.3316 21.5393 91.4447 21.709C91.7275 22.1331 91.9537 22.5855 92.0668 23.0662C92.1233 23.3772 92.2647 23.8579 92.0385 24.1124C91.8406 24.3386 91.5578 24.5083 91.3599 24.7345C91.0206 25.0738 90.6812 25.4697 90.4833 25.9221C90.3419 26.2048 90.2854 26.5724 90.3137 26.7986C90.4268 27.449 90.964 27.9297 91.5578 28.2973C92.3495 28.778 93.2827 29.0607 94.1875 29.2869C95.9123 29.7394 98.0047 29.9938 99.8144 29.6828ZM104.848 32.1428C105.215 30.1352 105.639 28.1276 106.375 26.2048C106.742 25.2435 107.223 24.2821 107.901 23.5186C108.184 23.2076 108.495 22.8965 108.891 22.6986C109.061 22.6138 109.23 22.529 109.4 22.4724C109.626 22.4159 109.852 22.5007 110.05 22.6138C110.955 23.1228 111.068 24.3952 111.012 25.3C110.955 25.8938 110.87 26.4311 110.757 27.0531C110.418 28.778 109.937 30.5311 109.146 32.0863C108.806 32.7649 108.354 33.5284 107.732 33.9242C107.449 34.0939 107.251 34.1787 106.94 34.1504C106.686 34.1222 106.346 33.9808 106.063 33.7546C105.639 33.4152 105.045 34.009 105.47 34.3484C109.004 37.1477 110.899 30.1352 111.408 27.8731C111.775 26.1766 112.312 24.0276 111.181 22.5007C110.814 22.02 110.333 21.6807 109.739 21.5676C109.23 21.4827 108.693 21.7372 108.269 22.02C107.364 22.6138 106.714 23.5186 106.205 24.48C105.017 26.7704 104.48 29.3435 103.999 31.8601C103.943 32.4539 104.763 32.6801 104.848 32.1428Z" fill="#211F1C"/>
<path d="M135.414 80.0425L118.957 82.757C115.903 83.266 112.991 81.1735 112.482 78.1197C111.775 73.4542 109.315 66.4417 116.045 65.0844L132.501 62.3699C135.555 61.861 138.468 63.9534 138.977 67.0072C139.684 71.6728 142.144 78.6852 135.414 80.0425Z" fill="#4FC9DA" fill-opacity="0.7"/>
<path d="M121.559 69.0997C122.039 70.5983 122.379 72.1252 122.69 73.6521C122.859 74.6135 123.001 75.5749 123.283 76.508C123.453 77.0735 123.764 77.6956 124.414 77.8087C125.15 77.9218 125.885 77.3846 126.45 77.017C128.006 75.9708 129.419 74.7549 130.861 73.5673C131.031 73.4259 131.003 73.1149 130.861 72.9735C128.91 70.9093 126.337 69.4107 123.566 68.7603C123.029 68.6472 122.803 69.4672 123.34 69.5804C125.998 70.2024 128.401 71.588 130.268 73.5673C130.268 73.3693 130.268 73.1714 130.268 72.9735C129.023 73.9914 127.751 75.0376 126.45 75.999C126.083 76.2818 125.687 76.5363 125.291 76.7625C125.206 76.7908 125.15 76.8473 125.065 76.8756C125.008 76.9039 125.037 76.9039 124.923 76.9321C124.867 76.9604 124.81 76.9604 124.754 76.9887C124.726 76.9887 124.697 76.9887 124.669 77.017C124.754 77.017 124.726 77.017 124.669 77.017C124.641 77.017 124.499 77.017 124.556 77.017C124.612 77.017 124.499 76.9887 124.471 76.9887C124.584 77.0452 124.471 76.9887 124.443 76.9604C124.556 77.0452 124.443 76.9321 124.386 76.9039C124.33 76.8473 124.414 76.9604 124.386 76.9039C124.358 76.8756 124.358 76.8473 124.33 76.8473C124.301 76.7908 124.273 76.7342 124.245 76.6776C124.188 76.5645 124.245 76.6777 124.188 76.5645C124.16 76.4797 124.132 76.4232 124.103 76.3383C123.849 75.4901 123.736 74.5852 123.566 73.7087C123.255 72.0969 122.888 70.4852 122.407 68.9017C122.209 68.3645 121.389 68.5907 121.559 69.0997Z" fill="#211F1C"/>
<path d="M41.905 32.9911C41.7636 32.7932 41.8767 32.5387 42.0464 32.3973C42.2443 32.2559 42.4988 32.3691 42.6401 32.5387C42.6684 32.5953 42.6967 32.6518 42.7533 32.6801C42.6685 32.5953 42.7815 32.7084 42.8098 32.7366C42.8664 32.8215 42.9229 32.878 43.0077 32.9346C43.036 32.9629 43.0925 32.9911 43.1208 33.0194C43.0925 32.9911 43.0643 32.9629 43.1208 33.0194L43.1491 33.0477C43.2057 33.1042 43.2905 33.1325 43.3753 33.1608C43.4036 33.1608 43.4036 33.1891 43.4319 33.1891C43.5167 33.2173 43.3188 33.1608 43.4036 33.1891C43.4319 33.1891 43.4601 33.2173 43.4884 33.2173C43.545 33.2456 43.6298 33.2456 43.7146 33.2739C43.6298 33.2456 43.6298 33.2739 43.6863 33.2739C43.7146 33.2739 43.7147 33.2739 43.7429 33.2739C43.7712 33.2739 43.7995 33.2739 43.856 33.2739C43.8843 33.2739 43.9126 33.2739 43.9409 33.2739C43.9691 33.2739 44.0539 33.2739 43.9691 33.2739C43.8843 33.2739 43.9408 33.2739 43.9691 33.2739C44.0257 33.2739 44.0822 33.2456 44.1388 33.2173C44.1671 33.2173 44.1954 33.1891 44.2236 33.1891H44.2519C44.3084 33.1608 44.1953 33.2173 44.1953 33.2173C44.2519 33.1891 44.3085 33.1608 44.365 33.1325C44.4216 33.1042 44.4781 33.076 44.5064 33.0477C44.5629 33.0194 44.4215 33.1042 44.4781 33.076L44.5064 33.0477C44.5347 33.0194 44.563 33.0194 44.5912 32.9911C44.6195 32.9629 44.676 32.9063 44.7043 32.878C44.7326 32.8497 44.7609 32.8215 44.7892 32.7932C44.8174 32.7366 44.7326 32.878 44.7892 32.7932C44.8174 32.7366 44.8457 32.6801 44.874 32.6518C44.9023 32.5953 44.9305 32.5387 44.9588 32.4822C44.987 32.4256 44.9305 32.5387 44.9305 32.5387C44.9305 32.5104 44.9588 32.5104 44.9588 32.4822C44.9588 32.4539 44.9871 32.4256 44.9871 32.3973C45.0153 32.3408 45.0153 32.2842 45.0436 32.1994C45.0436 32.1428 45.0436 32.058 45.0436 32.1994C45.0436 32.1711 45.0436 32.1428 45.0436 32.1146C45.0436 32.058 45.0436 32.0015 45.0436 31.9166C45.0436 31.8884 45.0436 31.8601 45.0436 31.8318C45.0436 31.7753 45.0719 31.9449 45.0436 31.8884V31.8601C45.0436 31.8035 45.0153 31.7187 44.9871 31.6622C44.9871 31.6339 44.9305 31.549 44.9871 31.6622C44.9588 31.6339 44.9588 31.6056 44.9305 31.5773C44.9023 31.5208 44.8739 31.4642 44.8174 31.4077L44.7892 31.3794C44.7326 31.3228 44.8457 31.4359 44.8174 31.4077C44.7891 31.3794 44.7608 31.3511 44.7608 31.3228C44.7043 31.2663 44.6478 31.2097 44.5912 31.1532C44.563 31.1532 44.5629 31.1249 44.5346 31.1249C44.5346 31.1249 44.6195 31.1815 44.5629 31.1532C44.5346 31.1249 44.4781 31.0966 44.4498 31.0684C44.365 31.0118 44.2802 30.9835 44.1953 30.927C44.167 30.8987 44.1105 30.8987 44.0822 30.8704C44.054 30.8704 44.0257 30.8421 44.0257 30.8421C44.1105 30.8704 44.054 30.8421 44.0257 30.8421C43.9974 30.8421 43.9974 30.8421 43.9691 30.8421C43.9974 30.8421 43.9974 30.8421 44.0257 30.8421C43.9974 30.8421 43.9691 30.8421 43.9409 30.8421C43.8843 30.8421 43.856 30.8421 43.7995 30.8421C43.7712 30.8421 43.7429 30.8421 43.7146 30.8421C43.7146 30.8421 43.8278 30.8139 43.7429 30.8421C43.6864 30.8421 43.6298 30.8704 43.6016 30.8704C43.545 30.8704 43.4885 30.8987 43.4602 30.927C43.3754 30.9552 43.5167 30.8987 43.4602 30.927C43.4319 30.927 43.4036 30.9553 43.3753 30.9553C43.2905 31.0118 43.2056 31.0401 43.1208 31.0966C43.036 31.1532 43.1774 31.0401 43.0926 31.0966C43.0643 31.1249 43.036 31.1249 43.0077 31.1532C42.9795 31.1815 42.9512 31.2097 42.9229 31.238C42.8946 31.2663 42.8381 31.3228 42.8098 31.3511C42.7533 31.4359 42.8381 31.2946 42.8098 31.3511C42.7815 31.3794 42.7816 31.4077 42.7533 31.4077C42.6967 31.4925 42.6119 31.6056 42.6119 31.6904C42.6402 31.6056 42.6402 31.6622 42.6119 31.6622C42.6119 31.6904 42.5836 31.7187 42.5836 31.747C42.5553 31.8035 42.5553 31.8318 42.5553 31.8884C42.5553 31.9166 42.5553 31.9449 42.5271 31.9732C42.4988 32.0863 42.5271 31.8884 42.5271 31.9732C42.5271 32.0015 42.5271 32.058 42.5271 32.0863C42.5271 32.1146 42.5553 32.2277 42.5271 32.2559C42.5271 32.2277 42.4988 32.1711 42.5271 32.2277C42.5271 32.256 42.527 32.2842 42.5553 32.3125C42.6119 32.5387 42.4987 32.7649 42.2725 32.8215C42.0746 32.878 41.7919 32.7366 41.7636 32.5387C41.4809 31.2946 42.4705 30.0787 43.6863 29.9373C43.7994 29.9373 43.9126 29.909 44.0257 29.9373C44.1954 29.9656 44.3367 29.9939 44.5064 30.0787C44.676 30.1635 44.8457 30.2483 45.0154 30.3615C45.3547 30.6159 45.6092 30.927 45.7788 31.3228C46.0333 31.9166 45.8919 32.6518 45.5243 33.1608C45.1284 33.7263 44.5346 34.0939 43.856 34.1222C43.036 34.207 42.3574 33.6415 41.905 32.9911ZM131.851 107.103C132.304 107.725 132.954 108.205 133.746 108.149C134.424 108.092 135.018 107.725 135.414 107.188C135.782 106.679 135.923 105.972 135.725 105.378C135.612 105.039 135.386 104.699 135.103 104.473C134.905 104.303 134.707 104.162 134.481 104.077C134.283 103.992 134.057 103.964 133.831 103.964C132.813 103.964 131.766 104.699 131.625 105.745C131.597 105.972 131.682 106.198 131.908 106.254C132.106 106.311 132.388 106.198 132.417 105.972C132.417 105.887 132.445 105.802 132.473 105.717C132.473 105.689 132.473 105.689 132.502 105.661C132.502 105.632 132.502 105.632 132.502 105.689C132.502 105.661 132.558 105.604 132.558 105.548C132.586 105.519 132.586 105.491 132.615 105.434C132.615 105.406 132.643 105.406 132.643 105.378C132.699 105.321 132.643 105.378 132.643 105.406C132.671 105.321 132.784 105.237 132.841 105.208C132.841 105.208 132.954 105.123 132.897 105.152C132.841 105.208 132.926 105.123 132.926 105.123C132.954 105.123 132.954 105.095 132.982 105.095C133.067 105.039 133.152 105.01 133.208 104.954C133.237 104.954 133.237 104.925 133.265 104.925C133.18 104.954 133.208 104.954 133.237 104.925C133.293 104.897 133.322 104.897 133.378 104.869C133.435 104.869 133.463 104.841 133.52 104.841C133.548 104.841 133.548 104.841 133.576 104.841C133.604 104.841 133.689 104.812 133.604 104.841C133.548 104.869 133.633 104.841 133.633 104.841C133.661 104.841 133.661 104.841 133.689 104.841C133.717 104.841 133.774 104.841 133.802 104.841C133.831 104.841 133.887 104.841 133.915 104.841C134 104.841 133.859 104.812 133.915 104.841C133.944 104.841 133.972 104.841 134 104.841C134.057 104.841 134.085 104.869 134.142 104.869C134.17 104.869 134.283 104.925 134.226 104.897C134.17 104.869 134.255 104.925 134.255 104.925C134.283 104.925 134.283 104.954 134.311 104.954C134.339 104.982 134.396 105.01 134.424 105.039C134.453 105.067 134.481 105.067 134.396 105.039C134.424 105.039 134.424 105.067 134.453 105.067C134.481 105.095 134.509 105.123 134.537 105.152C134.594 105.208 134.651 105.265 134.707 105.321L134.735 105.35C134.764 105.378 134.679 105.265 134.707 105.321C134.735 105.35 134.735 105.378 134.764 105.406C134.792 105.463 134.82 105.519 134.877 105.576C134.933 105.661 134.848 105.519 134.877 105.576C134.877 105.604 134.905 105.632 134.905 105.661C134.933 105.717 134.933 105.774 134.962 105.859C134.99 105.943 134.962 105.745 134.962 105.859C134.962 105.887 134.962 105.915 134.962 105.943C134.962 106 134.962 106.057 134.962 106.141C134.962 106.254 134.99 106.057 134.962 106.141C134.962 106.17 134.962 106.198 134.933 106.226C134.933 106.283 134.905 106.339 134.877 106.424C134.877 106.452 134.848 106.481 134.848 106.509C134.82 106.565 134.905 106.424 134.848 106.509C134.82 106.565 134.792 106.622 134.764 106.679C134.735 106.735 134.707 106.792 134.651 106.848C134.622 106.905 134.707 106.763 134.651 106.848C134.622 106.877 134.594 106.905 134.594 106.933C134.566 106.99 134.509 107.018 134.481 107.046C134.453 107.074 134.453 107.074 134.424 107.103C134.339 107.188 134.481 107.074 134.424 107.103C134.311 107.159 134.226 107.216 134.113 107.272C134.057 107.301 134.226 107.244 134.113 107.272C134.085 107.272 134.057 107.301 134.028 107.301C133.972 107.329 133.915 107.329 133.831 107.357H133.802C133.746 107.385 133.887 107.357 133.831 107.357C133.802 107.357 133.774 107.357 133.717 107.357C133.661 107.357 133.576 107.357 133.52 107.357C133.435 107.357 133.633 107.385 133.52 107.357C133.491 107.357 133.463 107.357 133.406 107.329C133.378 107.329 133.322 107.301 133.293 107.301C133.265 107.301 133.265 107.301 133.265 107.272C133.18 107.244 133.265 107.301 133.293 107.272C133.265 107.272 133.124 107.188 133.095 107.159C133.067 107.131 133.039 107.103 132.982 107.103C132.954 107.074 132.954 107.074 133.011 107.131C133.011 107.103 132.954 107.103 132.954 107.074C132.897 107.018 132.813 106.961 132.756 106.877C132.728 106.848 132.699 106.82 132.671 106.763C132.643 106.735 132.615 106.679 132.671 106.763C132.643 106.735 132.643 106.707 132.615 106.679C132.473 106.509 132.247 106.396 132.021 106.537C131.823 106.65 131.71 106.933 131.851 107.103ZM113.302 56.9692C113.302 56.9127 113.274 56.8844 113.274 56.8279C113.302 56.941 113.274 56.8844 113.274 56.8561C113.274 56.8279 113.274 56.8279 113.274 56.7996C113.274 56.7713 113.274 56.7148 113.274 56.6865C113.274 56.6582 113.302 56.5734 113.274 56.7148C113.274 56.6865 113.274 56.6582 113.274 56.6299C113.274 56.6017 113.302 56.5451 113.302 56.5168C113.302 56.4886 113.387 56.3472 113.302 56.4603C113.359 56.3754 113.387 56.2906 113.443 56.2341L113.472 56.2058C113.5 56.1775 113.557 56.1492 113.472 56.2058C113.5 56.1775 113.528 56.1492 113.557 56.0927C113.585 56.0644 113.613 56.0361 113.641 56.0079C113.67 55.9796 113.67 55.9796 113.698 55.9513C113.783 55.8665 113.641 55.9796 113.698 55.9513C113.755 55.8948 113.839 55.8665 113.896 55.8099C113.924 55.8099 113.952 55.7816 113.952 55.7816C113.952 55.7816 113.839 55.8099 113.924 55.8099C113.981 55.7817 114.009 55.7816 114.066 55.7534C114.094 55.7534 114.15 55.7251 114.179 55.7251C114.263 55.6968 114.066 55.7251 114.15 55.7251C114.179 55.7251 114.207 55.7251 114.207 55.7251C114.235 55.7251 114.292 55.7251 114.32 55.7251C114.348 55.7251 114.377 55.7251 114.377 55.7251C114.292 55.7251 114.292 55.7251 114.32 55.7251C114.348 55.7251 114.348 55.7251 114.377 55.7251C114.348 55.7251 114.348 55.6968 114.32 55.6968C114.32 55.6968 114.348 55.6968 114.348 55.7251C114.377 55.7251 114.377 55.7534 114.405 55.7534C114.433 55.7816 114.461 55.7817 114.518 55.8099C114.574 55.8382 114.659 55.8948 114.716 55.9513C114.744 55.9513 114.744 55.9796 114.772 55.9796C114.659 55.8947 114.716 55.9513 114.744 55.9513C114.772 55.9796 114.801 55.9796 114.801 56.0079C114.857 56.0644 114.886 56.0927 114.942 56.1492L114.97 56.1775C114.886 56.0644 114.914 56.121 114.942 56.1492C114.97 56.1775 114.97 56.1775 114.999 56.2058C115.027 56.2623 115.055 56.3189 115.083 56.3472C115.112 56.4037 115.027 56.2341 115.055 56.2906C115.055 56.2906 115.055 56.3189 115.083 56.3189C115.083 56.3472 115.112 56.3754 115.112 56.3754C115.112 56.4037 115.112 56.432 115.14 56.4603C115.14 56.5168 115.14 56.6017 115.14 56.432C115.14 56.4885 115.14 56.5168 115.14 56.5734C115.14 56.6017 115.14 56.6299 115.14 56.6582V56.6865C115.14 56.7713 115.14 56.6299 115.14 56.6299C115.112 56.6582 115.112 56.743 115.112 56.7713C115.112 56.8279 115.083 56.8844 115.055 56.9127C115.027 56.9692 115.112 56.7996 115.083 56.8561C115.083 56.8561 115.083 56.8844 115.055 56.8844C115.055 56.9127 115.027 56.941 115.027 56.941C114.999 56.9975 114.97 57.0258 114.942 57.0824C114.942 57.1106 114.914 57.1106 114.914 57.1389C114.999 56.9975 114.942 57.0823 114.914 57.1389C114.886 57.1672 114.829 57.2237 114.801 57.252C114.772 57.2803 114.631 57.3934 114.772 57.2803C114.716 57.3086 114.688 57.3368 114.631 57.3651C114.603 57.3934 114.546 57.4217 114.49 57.4217C114.405 57.4782 114.574 57.3934 114.518 57.4217C114.49 57.4217 114.461 57.4499 114.433 57.4499C114.377 57.4782 114.348 57.4782 114.292 57.4782C114.235 57.4782 114.15 57.4782 114.32 57.4782C114.292 57.4782 114.263 57.4782 114.235 57.4782C114.179 57.4782 114.122 57.4782 114.066 57.4782C114.037 57.4782 113.981 57.4499 114.122 57.4782H114.094C114.066 57.4782 114.037 57.4782 114.009 57.4499C113.981 57.4499 113.952 57.4217 113.924 57.4217C113.924 57.4217 113.896 57.4217 113.896 57.3934C113.811 57.3651 113.981 57.4499 113.924 57.4217C113.868 57.3934 113.811 57.3651 113.754 57.3368C113.726 57.3086 113.698 57.3086 113.67 57.2803C113.811 57.3651 113.698 57.2803 113.641 57.252C113.585 57.1954 113.528 57.1389 113.472 57.0824L113.443 57.0541C113.387 56.9692 113.5 57.1106 113.443 57.0541C113.415 57.0258 113.387 56.9692 113.359 56.941C113.302 56.8561 113.274 56.7713 113.217 56.6865C113.104 56.4885 112.821 56.4037 112.623 56.5451C112.426 56.6865 112.369 56.9127 112.482 57.1389C112.793 57.761 113.33 58.2699 114.066 58.2982C114.603 58.3265 115.168 58.0437 115.508 57.6479C115.875 57.1955 116.073 56.6017 115.875 56.0361C115.762 55.7251 115.592 55.4423 115.338 55.2444C115.197 55.1313 115.027 55.0182 114.857 54.9051C114.801 54.8768 114.744 54.8485 114.688 54.8203C114.603 54.792 114.518 54.7637 114.405 54.7637C114.32 54.7637 114.207 54.7637 114.122 54.7637C113.67 54.8203 113.217 55.0465 112.906 55.3858C112.595 55.7251 112.397 56.1775 112.426 56.6582C112.426 56.7713 112.454 56.9127 112.482 57.0258C112.539 57.252 112.793 57.3934 112.991 57.3086C113.217 57.4217 113.359 57.1954 113.302 56.9692ZM0.678466 60.7017C1.21571 61.0127 1.86605 61.0975 2.43157 60.8148C2.85571 60.5886 3.16672 60.1079 3.25155 59.6272C3.33638 59.09 3.2233 58.5527 2.85571 58.1568C2.65778 57.9589 2.40327 57.8175 2.1205 57.7327C1.95085 57.6761 1.78125 57.6761 1.61159 57.6479C1.38538 57.6479 1.18744 57.7044 0.961227 57.7893C0.112945 58.1851 -0.282948 59.401 0.226021 60.1927C0.339126 60.3907 0.621914 60.4755 0.819847 60.3341C1.01778 60.221 1.10261 59.9665 0.961227 59.7403C0.932951 59.712 0.932965 59.6837 0.904689 59.6555C0.876413 59.5989 0.904689 59.6837 0.904689 59.6837C0.904689 59.6837 0.876385 59.6555 0.876385 59.6272C0.876385 59.5989 0.848081 59.5424 0.848081 59.5141C0.848081 59.4858 0.848081 59.4858 0.848081 59.4575C0.848081 59.401 0.848081 59.5424 0.848081 59.4858C0.848081 59.401 0.848081 59.3444 0.848081 59.2596V59.2031C0.876357 59.2596 0.819805 59.2879 0.848081 59.2313C0.848081 59.1748 0.876385 59.1465 0.876385 59.0899C0.876385 59.0617 0.904689 59.0334 0.904689 58.9768L0.932923 58.9203C0.932923 58.9203 0.904647 59.0051 0.932923 58.9486C0.961199 58.8637 1.01779 58.8072 1.04607 58.7506L1.0743 58.6941C1.0743 58.6941 1.01779 58.7789 1.04607 58.7224C1.07435 58.6941 1.10257 58.6658 1.13084 58.6375C1.15912 58.6093 1.18741 58.581 1.21568 58.5527C1.27224 58.4961 1.18745 58.581 1.18745 58.581C1.18745 58.581 1.24399 58.5527 1.24399 58.5244C1.27226 58.4961 1.30055 58.4962 1.32883 58.4679C1.35711 58.4679 1.35709 58.4396 1.38537 58.4396C1.44192 58.4113 1.35706 58.4679 1.35706 58.4396C1.35706 58.4396 1.44193 58.4113 1.47021 58.4113C1.49849 58.4113 1.49847 58.4113 1.52675 58.4113C1.61158 58.383 1.44192 58.4113 1.52675 58.4113C1.5833 58.4113 1.66812 58.4113 1.72467 58.4113C1.75294 58.4113 1.75293 58.4113 1.78121 58.4113C1.78121 58.4113 1.66812 58.383 1.72467 58.4113C1.75294 58.4113 1.78123 58.4113 1.80951 58.4396C1.86606 58.4396 1.92257 58.4679 1.97912 58.4962C2.0074 58.4962 2.03569 58.5244 2.06397 58.5244C2.06397 58.5244 1.95088 58.4679 2.00743 58.4962C2.00743 58.4962 2.03573 58.4961 2.03573 58.5244C2.09228 58.5527 2.12056 58.581 2.17711 58.6093C2.20539 58.6093 2.20537 58.6375 2.23365 58.6375C2.23365 58.6375 2.14884 58.5527 2.17711 58.6093L2.20535 58.6375C2.23362 58.6658 2.26191 58.6941 2.29019 58.7224C2.29019 58.7224 2.34674 58.8072 2.29019 58.7224C2.23364 58.6658 2.29022 58.7224 2.31849 58.7506C2.34677 58.7789 2.37503 58.8355 2.37503 58.8637C2.37503 58.892 2.43158 58.9486 2.37503 58.8637C2.34675 58.7789 2.37503 58.8637 2.37503 58.892C2.40331 58.9203 2.40327 58.9768 2.40327 59.0334C2.40327 59.0617 2.40327 59.0617 2.40327 59.0899C2.43154 59.1748 2.40327 58.9768 2.40327 59.0617C2.40327 59.1465 2.40327 59.2313 2.40327 59.3162C2.40327 59.401 2.43154 59.2313 2.40327 59.2879C2.40327 59.3162 2.40327 59.3162 2.40327 59.3444C2.40327 59.401 2.37503 59.4293 2.37503 59.4858C2.37503 59.5141 2.34677 59.5706 2.31849 59.5989C2.37504 59.4293 2.31846 59.5989 2.29019 59.6272C2.26191 59.6555 2.26193 59.712 2.23365 59.7403C2.23365 59.7686 2.20535 59.7686 2.20535 59.7968C2.29018 59.6837 2.23362 59.7403 2.20535 59.7968C2.17707 59.8251 2.14878 59.8534 2.1205 59.8817C2.09223 59.8817 2.09224 59.91 2.06397 59.91C2.03569 59.9382 2.1205 59.8817 2.1205 59.8817L2.09227 59.91C2.06399 59.9382 2.0074 59.9665 1.97912 59.9948C1.92257 60.0231 1.86605 60.0231 2.00743 59.9948C1.97915 59.9948 1.95086 60.0231 1.92259 60.0231C1.86603 60.0513 1.83776 60.0513 1.78121 60.0513C1.72465 60.0796 1.83774 60.0513 1.83774 60.0513C1.80947 60.0513 1.80948 60.0513 1.78121 60.0513C1.75293 60.0513 1.72464 60.0513 1.69636 60.0513C1.63981 60.0513 1.5833 60.0513 1.52675 60.0513C1.66813 60.0513 1.55502 60.0513 1.52675 60.0513C1.49847 60.0513 1.47018 60.0513 1.44191 60.0231C1.38535 59.9948 1.30054 59.9665 1.24399 59.9665C1.38537 59.9948 1.24396 59.9665 1.21568 59.9382C1.18741 59.91 1.13088 59.91 1.10261 59.8817C0.904675 59.7686 0.621886 59.8251 0.508782 60.0231C0.423954 60.3341 0.480534 60.5886 0.678466 60.7017Z" fill="#211F1C"/>
<path d="M73.8002 56.0078C75.1575 54.6788 77.1086 54.0002 79.0031 54.2547C79.2293 54.283 79.4272 54.4244 79.4272 54.6788C79.4272 54.8768 79.2293 55.1313 79.0031 55.103C77.3348 54.8768 75.6099 55.4423 74.3941 56.6299C74.0265 56.9975 73.4326 56.4037 73.8002 56.0078ZM65.4305 61.6913L65.4022 61.663C65.4022 61.663 65.4023 61.6913 65.4305 61.6913ZM62.716 44.9519C62.8291 45.1498 63.1119 45.2346 63.3098 45.0933C63.5078 44.9519 63.5643 44.7257 63.4512 44.4995C63.2533 44.1319 63.0553 43.7643 62.8574 43.3967C62.7443 43.1988 62.4616 43.1139 62.2636 43.2553C62.0657 43.3967 62.0092 43.6229 62.1223 43.8491C62.3202 44.2167 62.5181 44.5843 62.716 44.9519ZM62.3484 63.5293C62.3484 63.5575 62.3484 63.5575 62.3484 63.5293C62.3484 63.5575 62.3484 63.5575 62.3484 63.5293C62.3484 63.5575 62.3484 63.5293 62.3484 63.5293ZM62.3484 63.5293C62.3484 63.5575 62.3484 63.5575 62.3484 63.5293V63.5293ZM71.1423 124.492C71.1706 124.492 71.1706 124.492 71.1423 124.492C71.1706 124.492 71.1423 124.492 71.1423 124.492ZM67.212 84.1708C67.4382 85.0756 67.1271 86.037 66.3919 86.6025C65.5436 87.2246 64.2429 87.1398 63.4795 86.4046C62.7726 85.7543 62.6029 84.6515 62.9422 83.7749C63.3098 82.757 64.2147 82.1349 65.2892 82.1632C65.5719 82.1632 65.7133 82.4177 65.685 82.6439C65.9112 82.7004 66.1375 82.7853 66.3637 82.9267C66.7878 83.2094 67.0706 83.6618 67.212 84.1708ZM65.6568 86.037C65.6568 86.037 65.7133 86.0087 65.6568 86.037V86.037ZM66.4202 84.8211C66.4202 84.7363 66.4202 84.6515 66.4202 84.5949C66.4202 84.5667 66.4202 84.5667 66.4202 84.5667V84.5384C66.4202 84.5101 66.3919 84.4536 66.3919 84.4253C66.3636 84.3405 66.3353 84.2556 66.3071 84.1991C66.3071 84.1708 66.2788 84.1708 66.2788 84.1425C66.2506 84.1142 66.2506 84.0577 66.2223 84.0294C66.194 84.0011 66.194 83.9729 66.1657 83.9446L66.1375 83.9163C66.0809 83.8598 66.0244 83.7749 65.9395 83.7184L65.9112 83.6901C65.883 83.6618 65.8547 83.6618 65.8264 83.6336C65.7981 83.6053 65.7416 83.577 65.685 83.577C65.6567 83.577 65.6567 83.577 65.6285 83.5487C65.5436 83.5204 65.4588 83.4922 65.3457 83.4922C65.3174 83.4922 65.3174 83.4922 65.2892 83.4922C65.2326 83.4922 65.176 83.4922 65.1195 83.4922C65.0629 83.4922 65.0064 83.4922 64.9499 83.4922C64.9216 83.4922 64.7802 83.5204 64.8367 83.4922C64.6388 83.5204 64.4409 83.4356 64.356 83.266C64.2995 83.2942 64.2712 83.3225 64.2147 83.3508C64.2147 83.3508 64.2146 83.3508 64.1864 83.3508L64.1581 83.3791C64.0733 83.4356 64.0167 83.5204 63.9319 83.6053C63.9319 83.6335 63.9036 83.6336 63.9036 83.6618C63.8753 83.7184 63.8471 83.7467 63.8188 83.8032C63.7906 83.8315 63.7622 83.888 63.7622 83.9163L63.734 83.9729V84.0011C63.7057 84.086 63.6774 84.1991 63.6491 84.2839C63.6491 84.3405 63.6208 84.3687 63.6208 84.4253C63.6208 84.4536 63.6208 84.4536 63.6208 84.4818C63.6208 84.5667 63.6208 84.6515 63.6208 84.7646C63.6208 84.8211 63.6208 84.8777 63.6208 84.906V84.9343C63.6208 84.9343 63.6208 84.9342 63.6208 84.9625C63.6491 85.0474 63.6492 85.1322 63.6774 85.217C63.7057 85.2736 63.7057 85.3018 63.734 85.3584C63.734 85.3867 63.7622 85.3867 63.7622 85.4149C63.7905 85.4998 63.847 85.5563 63.9036 85.6412L63.9319 85.6977C63.9602 85.726 63.9885 85.7543 64.0167 85.8108C64.045 85.8391 64.0733 85.8674 64.1298 85.8956L64.1581 85.9239C64.1581 85.9239 64.1581 85.9239 64.1864 85.9239C64.2712 85.9805 64.3561 86.037 64.4409 86.0653C64.4692 86.0653 64.4974 86.0936 64.4974 86.0936C64.554 86.1218 64.6105 86.1218 64.6388 86.1501C64.6954 86.1784 64.7519 86.1784 64.8085 86.1784H64.8367C64.865 86.1784 64.8933 86.1784 64.8933 86.1784C65.0064 86.1784 65.0912 86.1784 65.2043 86.1784C65.2043 86.1784 65.2044 86.1784 65.2326 86.1784C65.2609 86.1784 65.2891 86.1784 65.3174 86.1501C65.374 86.1501 65.4022 86.1218 65.4588 86.1218C65.5153 86.1218 65.5436 86.0936 65.6002 86.0653C65.6284 86.0653 65.6285 86.037 65.6568 86.037C65.7416 86.0087 65.7981 85.9522 65.8547 85.9239C65.883 85.9239 65.9112 85.8956 65.9112 85.8674C65.9395 85.8391 65.9678 85.8108 65.9961 85.7825C66.0243 85.7543 66.0526 85.726 66.0809 85.6977L66.1091 85.6694C66.1657 85.5846 66.194 85.528 66.2223 85.4432C66.2223 85.4432 66.2223 85.4149 66.2505 85.4149C66.2505 85.4149 66.2505 85.4149 66.2505 85.3867C66.2505 85.3584 66.2788 85.3018 66.2788 85.2736C66.3071 85.1887 66.3071 85.1322 66.3354 85.0474C66.3354 85.0191 66.3354 85.0191 66.3354 85.0191C66.3354 85.0191 66.3354 85.0191 66.3354 84.9908C66.4202 84.906 66.4202 84.8494 66.4202 84.8211ZM82.7355 92.2578C82.9334 93.3322 82.0568 94.0674 81.152 94.4633C81.5479 95.0571 81.8306 95.7074 81.8589 96.4143C81.8872 96.895 81.7176 97.4323 81.3217 97.7433C80.9541 98.0544 80.4452 98.1392 79.9927 97.9978C78.9748 97.6868 78.5789 96.6123 78.5224 95.5943C78.2396 95.7357 77.9003 95.7923 77.561 95.764C76.5147 95.7074 75.4685 94.8591 75.5816 93.7281C75.6665 93.0495 76.0624 92.484 76.741 92.286C77.1651 92.1729 77.5893 92.2012 77.9569 92.3991C77.7872 91.7771 77.7306 91.1267 77.9851 90.5329C78.381 89.6281 79.5403 89.4301 80.2755 90.0805C80.6148 90.3915 80.7562 90.7591 80.7562 91.1267C81.6327 90.9005 82.5658 91.3246 82.7355 92.2578ZM81.5479 91.9467C81.5196 91.9467 81.5479 91.9467 81.5479 91.9467V91.9467ZM78.7768 90.9288C78.8051 90.9005 78.8051 90.9005 78.7768 90.9288V90.9288ZM80.5017 97.2343C80.5583 97.2343 80.5583 97.2343 80.5017 97.2343V97.2343ZM80.8692 97.0364C80.841 97.0647 80.841 97.0647 80.8692 97.0364V97.0364ZM81.9155 92.5971C81.9155 92.5688 81.9155 92.5122 81.9155 92.484C81.9155 92.484 81.9155 92.484 81.9155 92.4557C81.9155 92.4274 81.8872 92.3991 81.8872 92.3426L81.8589 92.286C81.8589 92.2578 81.8307 92.2295 81.8307 92.2295C81.8024 92.2012 81.8024 92.1729 81.7741 92.1447C81.8024 92.1729 81.8024 92.1729 81.7458 92.1164C81.7176 92.0881 81.6893 92.0598 81.661 92.0315C81.6327 92.0033 81.6044 92.0033 81.5761 91.975C81.5761 91.975 81.5762 91.975 81.5479 91.975C81.5196 91.975 81.463 91.9467 81.4348 91.9467C81.4065 91.9467 81.3782 91.9467 81.3782 91.9467C81.35 91.9467 81.3217 91.9467 81.2934 91.9467C81.2934 91.9467 81.2369 91.9467 81.2086 91.9467C81.1803 91.9467 81.1238 91.9467 81.1238 91.975C81.0955 91.975 81.0389 92.0033 81.0106 92.0033C81.0106 92.0033 80.9824 92.0033 80.9824 92.0315C80.9541 92.0598 80.8975 92.0881 80.8692 92.0881C80.841 92.0881 80.7562 92.1729 80.7562 92.1729C80.7279 92.2012 80.6714 92.2295 80.6431 92.2578C80.5865 92.286 80.5582 92.3426 80.53 92.3991C80.3603 92.7667 80.1058 93.106 79.8796 93.3888C79.7382 93.5585 79.4837 93.5302 79.3141 93.4171C79.1444 93.2757 79.1162 93.0495 79.201 92.8798C79.3706 92.5405 79.5686 92.1729 79.8513 91.8619C79.8796 91.8336 79.8796 91.7771 79.8796 91.7771C79.9079 91.7205 79.9079 91.6357 79.9362 91.5791C79.9362 91.5509 79.9361 91.5226 79.9644 91.4943C79.9644 91.4377 79.9644 91.3812 79.9644 91.3246C79.9644 91.2681 79.9361 91.1267 79.9644 91.2398C79.9644 91.2115 79.9362 91.155 79.9362 91.1267C79.9362 91.0984 79.9079 91.0702 79.9079 91.0136C79.9079 91.0136 79.9079 90.9853 79.8796 90.9853C79.8513 90.9571 79.823 90.9005 79.823 90.8722L79.7948 90.844C79.7665 90.8157 79.7382 90.7874 79.71 90.7591C79.6817 90.7308 79.6251 90.7026 79.5968 90.7026H79.5686C79.512 90.7026 79.4555 90.6743 79.3989 90.646H79.3707C79.3424 90.646 79.3141 90.646 79.2575 90.646C79.2292 90.646 79.201 90.6743 79.1444 90.6743H79.1161C79.0879 90.7026 79.0596 90.7026 79.0313 90.7309C79.0313 90.7309 79.0313 90.7308 79.0031 90.7591C78.9748 90.7874 78.9465 90.8157 78.9182 90.844L78.8899 90.8722C78.8899 90.8722 78.89 90.844 78.9182 90.844L78.8899 90.8722C78.8899 90.8722 78.8899 90.8722 78.8899 90.844V90.8722C78.8616 90.9005 78.8617 90.9288 78.8334 90.9571C78.8334 90.9571 78.8052 90.9853 78.8052 91.0136C78.7769 91.0702 78.7768 91.0984 78.7485 91.155C78.7485 91.1833 78.7203 91.2398 78.7203 91.2681C78.7203 91.2964 78.7203 91.3529 78.7203 91.3812C78.7203 91.5226 78.7203 91.6357 78.7203 91.7771C78.7203 91.8053 78.7203 91.8053 78.7203 91.8053C78.7203 91.8053 78.7203 91.8053 78.7203 91.8336C78.7203 91.8619 78.7203 91.9184 78.7485 91.9467C78.7768 92.0315 78.7769 92.0881 78.8052 92.1729C78.8617 92.3426 78.9182 92.5122 78.9748 92.6819C79.0596 92.9081 78.8899 93.1343 78.692 93.1909C78.6637 93.1909 78.6354 93.1909 78.6072 93.1909C78.5789 93.304 78.4941 93.3888 78.4092 93.4453C78.183 93.5584 77.9569 93.4736 77.8155 93.304C77.6176 93.0212 77.1086 93.0495 76.7975 93.2474C76.6561 93.3322 76.5713 93.4453 76.5148 93.615C76.4865 93.6716 76.4865 93.7281 76.4865 93.7847C76.4582 93.8695 76.4865 93.7847 76.4865 93.8412C76.4865 93.8978 76.4865 93.926 76.4865 93.9826C76.4865 94.0109 76.4865 94.0391 76.4865 94.0391C76.4865 94.0957 76.5148 94.124 76.5148 94.1805L76.5431 94.2371C76.5713 94.3219 76.6279 94.3785 76.6561 94.4633C76.6561 94.4916 76.6844 94.4916 76.6844 94.5198C76.7127 94.5481 76.7409 94.5764 76.7692 94.6047C76.8258 94.6612 76.8258 94.6612 76.9106 94.7178C77.1934 94.9157 77.4761 94.9723 77.8437 94.944C77.9003 94.944 77.8437 94.944 77.9286 94.944C77.9851 94.944 78.0417 94.9157 78.0699 94.9157C78.1831 94.8874 78.183 94.8874 78.2679 94.8309C78.4375 94.7461 78.5506 94.6612 78.692 94.4916C78.9182 94.2088 79.4555 94.435 79.4272 94.8026C79.3989 95.1702 79.3707 95.6509 79.4272 95.9336C79.4555 96.1033 79.4837 96.2447 79.5403 96.4143C79.5403 96.4426 79.5686 96.4992 79.5968 96.5274C79.6251 96.584 79.6534 96.6405 79.6817 96.6971C79.7099 96.7536 79.7383 96.8102 79.7948 96.8668C79.7948 96.895 79.823 96.895 79.823 96.895C79.823 96.895 79.8231 96.895 79.8513 96.9233C79.9079 96.9799 79.9644 97.0364 80.021 97.093C80.0492 97.1212 80.0775 97.1495 80.1058 97.1495C80.1341 97.1778 80.1907 97.1778 80.219 97.2061H80.2472C80.2755 97.2061 80.3321 97.2343 80.3603 97.2343H80.3886C80.3886 97.2343 80.3886 97.2343 80.4169 97.2343C80.4452 97.2343 80.5017 97.2343 80.53 97.2343H80.5583C80.5865 97.2343 80.6431 97.2061 80.6713 97.2061H80.6996C80.7279 97.1778 80.7562 97.1778 80.8127 97.1495C80.8127 97.1495 80.841 97.1495 80.841 97.1212C80.8693 97.093 80.8976 97.0647 80.9259 97.0364L80.9541 97.0081C80.9541 97.0081 80.9541 97.0081 80.9541 96.9799C80.9824 96.9516 80.9824 96.9233 81.0106 96.8668C81.0106 96.8668 81.0106 96.8668 81.0106 96.8385C81.0106 96.8385 81.0106 96.8385 81.0106 96.8102C81.0106 96.7819 81.0389 96.7254 81.0389 96.6971C81.0389 96.6688 81.0672 96.5557 81.0672 96.584C81.0672 96.5557 81.0672 96.4992 81.0672 96.4709C81.0672 96.4143 81.0672 96.3578 81.0672 96.3012C81.0672 96.273 81.0672 96.2447 81.0672 96.2164C80.9541 95.5378 80.6148 94.9723 80.1907 94.4067C80.021 94.1805 80.2189 93.8412 80.4451 93.7847C80.7844 93.6998 81.0672 93.5867 81.35 93.3888C81.4914 93.304 81.4913 93.2757 81.6045 93.1909C81.6327 93.1626 81.6893 93.106 81.7175 93.0778L81.7458 93.0495L81.7741 93.0212C81.8024 92.9647 81.8306 92.9364 81.8589 92.8798L81.8872 92.8233C81.9155 92.7667 81.9155 92.6819 81.9438 92.6253C81.9155 92.6253 81.9155 92.5971 81.9155 92.5971ZM81.0106 96.273C81.0106 96.3012 81.0106 96.3295 81.0106 96.273V96.273ZM119.551 120.958C119.381 123.277 118.788 125.68 117.317 127.546C116.752 128.253 116.016 128.932 115.168 129.299C114.433 129.639 113.613 129.78 112.821 129.921C110.05 130.43 107.223 130.713 104.395 130.968C101.426 131.222 98.457 131.448 95.4597 131.533C92.3776 131.618 89.2955 131.335 86.27 130.798C83.0183 130.233 79.7948 129.384 76.6561 128.31C75.4403 127.886 74.2244 127.405 73.0651 126.839C72.3582 126.5 71.6513 126.132 71.0292 125.624C70.7747 128.649 68.3147 131.137 65.1478 131.137H65.1195H18.0964C15.4667 131.137 13.2329 129.413 12.4694 127.009H11.2253C9.89634 127.009 8.70873 125.991 8.31287 124.492L0.621789 96.6688C-0.0285606 94.3219 1.44174 91.9184 3.53417 91.9184H36.1648C37.409 89.7977 38.851 87.7901 40.4062 85.8956C42.8097 82.9832 45.5807 80.3818 48.6345 78.1763C50.02 77.1583 51.4904 76.2252 52.9891 75.4052C53.0174 74.359 53.0739 73.2845 53.1022 72.2383C53.2435 68.9583 53.3849 65.6782 53.5546 62.3982C53.6394 60.7582 53.696 59.1465 53.7808 57.5065C52.9891 57.1954 52.1973 56.8844 51.4056 56.5733C48.8042 55.5837 46.2311 54.5657 43.6297 53.5478C43.2621 53.4064 43.2338 53.0106 43.5166 52.7843C43.7711 52.5864 44.0255 52.3885 44.28 52.1623C47.0511 49.7871 49.398 46.9312 51.8297 44.245C53.9504 41.9263 56.1277 39.5794 58.5878 37.5718C59.0967 33.9242 65.4023 28.9476 69.4457 31.8883C80.3038 27.76 88.7866 41.4739 84.7714 50.4657C84.1776 51.9643 83.4424 53.4064 82.5941 54.7919C83.1314 56.3754 82.99 58.2134 81.661 59.8534C83.81 62.9637 88.3907 64.0948 91.699 62.0023C92.1514 61.7196 92.83 61.4651 93.1128 61.8892C91.7556 66.7245 86.0438 70.0893 81.2369 71.079C81.4631 71.7293 81.6893 72.3797 81.9155 73.03C82.0569 73.0866 82.17 73.1148 82.3114 73.1714C86.27 74.7831 89.8611 77.0735 93.1976 79.7314C96.4777 82.3611 99.5315 85.2453 102.444 88.2708C105.243 91.1833 107.901 94.2654 110.333 97.5171C111.521 98.9026 112.652 100.373 113.67 101.9C115.705 104.982 117.317 108.375 118.363 111.91C119.268 114.822 119.777 117.904 119.551 120.958ZM60.6802 35.9318C61.5567 35.3097 62.4616 34.7442 63.4512 34.2918C62.4333 34.6594 61.4719 35.2249 60.6802 35.9318ZM54.3463 56.743C54.516 56.7995 54.6573 56.9409 54.6573 57.1389C54.6291 57.7609 54.6008 58.383 54.5725 59.0051C54.4311 61.9741 54.2898 64.9148 54.1767 67.8838C54.0636 70.7114 53.9222 73.539 53.8374 76.3666C55.6753 77.0169 57.5698 77.5259 59.4926 77.8652C66.9857 79.1942 74.8748 78.0632 81.6893 74.67C81.2934 73.5673 80.8975 72.4645 80.53 71.3617C79.4272 68.1948 78.4092 64.9996 77.4196 61.8044H77.3913C76.232 61.8044 75.1009 61.4651 74.1678 60.7865C73.9699 60.6451 73.9416 60.3906 74.083 60.1927C74.2244 59.9947 74.4789 59.9665 74.6768 60.1078C76.4582 61.4368 79.2858 61.1823 80.841 59.5706C82.7355 57.563 82.3114 55.0464 81.0672 53.463C79.7948 51.8795 77.4478 50.8898 75.0727 52.2754C74.8747 52.3885 74.6202 52.3319 74.5071 52.134C74.394 51.9361 74.4506 51.6816 74.6485 51.5402C74.8747 51.3988 75.101 51.2857 75.3272 51.2009C75.0727 49.7871 74.8465 48.3733 74.6203 46.9595C66.3354 47.1291 62.0374 41.9829 65.5154 34.3483C63.3664 35.0552 61.4153 36.3842 59.6905 37.7415C56.5801 40.258 53.8939 43.227 51.236 46.196C49.1435 48.5147 47.0794 50.9747 44.6476 52.954C44.7042 52.9823 44.789 53.0106 44.8456 53.0388C47.9842 54.283 51.1794 55.5271 54.3463 56.743ZM49.9635 126.132C50.5856 126.132 51.1511 125.821 51.5753 125.256C52.1408 124.492 52.3387 123.418 52.0843 122.428L44.3931 94.6047C44.0821 93.4736 43.2338 92.7102 42.3007 92.7102H3.56247C2.9404 92.7102 2.37489 93.0212 1.95075 93.5867C1.38523 94.3502 1.18728 95.4247 1.44177 96.4143L9.13285 124.238C9.44388 125.369 10.2922 126.132 11.2253 126.132H49.9635ZM49.4546 105.915C49.3132 105.915 49.1718 105.943 49.0304 105.915C48.6346 105.859 48.38 105.689 48.2104 105.463L50.8118 114.907C51.236 114.794 51.6318 114.681 52.056 114.568C51.9428 114.37 51.8863 114.115 51.8863 113.861C51.8297 112.56 53.2153 111.853 54.3463 111.768C55.1381 111.712 55.9581 111.881 56.7498 111.599C57.0891 111.485 57.3719 111.259 57.4284 110.892C57.485 110.637 57.485 110.383 57.4284 110.128C57.2305 109.223 56.0712 109.025 55.2512 108.941C54.1201 108.828 52.9325 108.912 51.8015 108.686C50.5291 108.432 49.3415 107.244 49.4546 105.915ZM51.0663 115.699L52.8759 122.23C52.9608 122.57 53.0173 122.909 53.0173 123.22C59.238 123.22 64.5257 123.22 67.4099 123.22C66.194 122.541 65.0912 121.608 64.2995 120.449C63.225 118.922 62.6029 116.943 60.7932 116.123C59.0118 115.331 56.976 115.84 55.1098 115.812C54.3746 115.812 53.4415 115.67 52.7629 115.218C52.1973 115.388 51.6318 115.529 51.0663 115.699ZM70.1809 124.634V124.606V124.577C70.1809 124.436 70.1244 124.323 70.0396 124.238C69.8416 124.181 69.6437 124.153 69.4457 124.097C68.1168 124.097 61.3588 124.097 52.9608 124.097C52.678 125.708 51.4904 127.009 49.9352 127.009H13.346C14.0812 128.932 15.9191 130.289 18.0681 130.289H65.0912H65.1195C66.5333 130.289 67.834 129.724 68.7954 128.677C69.8133 127.575 70.2941 126.104 70.1809 124.634ZM71.5381 122.796C72.0754 122.089 72.5278 121.326 72.9237 120.562C73.7154 119.007 74.2809 117.282 74.4506 115.557C74.5071 114.794 74.5354 114.03 74.3658 113.267C74.3092 113.012 74.2527 112.758 74.1678 112.475C73.4327 111.429 72.6692 110.439 71.8492 109.506C69.983 107.329 67.9188 105.265 65.6285 103.54C63.536 101.956 61.1891 100.543 58.6443 99.9206C56.4105 99.3833 54.0918 99.6378 52.1973 100.967C51.9994 101.108 51.7732 101.278 51.5753 101.447C54.516 100.599 57.6829 100.825 60.4822 102.126C60.9912 102.352 60.5388 103.087 60.0581 102.861C57.0891 101.476 53.498 101.419 50.5008 102.748C50.3877 102.805 50.3028 102.805 50.218 102.776C50.1332 102.805 50.0484 102.861 49.9635 102.89C49.7091 103.059 49.4545 103.257 49.2849 103.512C49.0304 103.879 48.7759 104.416 48.9173 104.841C48.9456 104.954 49.0304 105.067 49.1435 105.095C49.398 105.18 49.6525 105.095 49.9069 105.01C49.9352 105.01 49.9353 105.01 49.9635 105.01C52.4518 101.985 56.7498 103.625 59.4077 105.463C59.8601 105.774 59.436 106.509 58.9836 106.198C56.6367 104.586 52.7628 102.89 50.5573 105.604C50.529 105.661 50.4725 105.689 50.4442 105.689C50.4442 105.689 50.4442 105.689 50.4442 105.717C50.0766 106.565 50.8966 107.47 51.6318 107.781C52.1125 107.979 52.6781 107.979 53.2153 108.008C54.4312 108.064 55.7601 108.008 56.9194 108.432C57.9656 108.828 58.5312 109.676 58.4181 110.807C58.3615 111.203 58.305 111.542 57.9939 111.853C57.7394 112.136 57.4284 112.305 57.0891 112.419C56.3257 112.673 55.5056 112.645 54.7139 112.617C54.1484 112.617 53.5263 112.73 53.1305 113.154C52.876 113.437 52.7629 113.804 52.9042 114.115C53.1304 114.652 53.8091 114.879 54.3463 114.935C55.2512 115.077 56.2125 114.963 57.1173 114.907C58.9836 114.794 60.9064 114.879 62.405 116.151C63.7906 117.339 64.3278 119.177 65.4871 120.534C66.5616 121.835 68.0319 122.739 69.6437 123.22C69.7285 123.22 69.7568 123.22 69.7568 123.22C70.0113 123.22 70.2658 123.305 70.4637 123.418C70.6334 123.446 70.803 123.475 70.9726 123.503C71.1423 123.305 71.3402 123.05 71.5381 122.796ZM118.561 116.632C118.137 113.408 117.147 110.241 115.762 107.301C114.15 103.823 112.03 100.627 109.485 97.7433C109.372 97.6019 109.343 97.4606 109.4 97.3192L109.117 97.2343C108.467 96.3578 107.788 95.5095 107.081 94.6895C104.197 91.1833 101.03 87.8467 97.7218 84.7363C94.979 82.1915 92.1231 79.7314 89.0128 77.639C86.8921 76.2252 84.6583 75.0093 82.3114 74.048C82.3962 74.3024 82.481 74.5569 82.5658 74.8114C82.6224 74.9811 82.5659 75.1224 82.481 75.2073C82.5093 75.2921 82.5376 75.3769 82.5093 75.4618C82.1982 76.9887 81.4914 78.3742 80.5017 79.5618C78.7769 81.5694 76.2602 82.8135 73.6589 83.0963C70.9726 83.3791 68.2581 82.5591 66.2505 80.7494C65.8547 80.3818 66.4485 79.788 66.8444 80.1556C67.8906 81.0887 69.1347 81.7391 70.4919 82.0784C75.1858 83.2094 80.3886 80.3535 81.6045 75.6597C79.8796 76.508 78.0699 77.1866 76.2037 77.7521C68.654 79.9859 60.3691 79.7597 52.9608 77.017C52.7346 76.9321 52.6497 76.7342 52.678 76.5363C50.0201 78.0914 47.5318 79.9294 45.2697 81.9935C42.5835 84.4536 40.2082 87.2246 38.1724 90.2219C37.8048 90.7874 37.4372 91.3529 37.0979 91.9184H42.1876C43.5166 91.9184 44.7041 92.9364 45.1 94.435L47.8994 104.614C47.8994 104.105 48.0973 103.54 48.3518 103.144C48.578 102.833 48.8325 102.579 49.1153 102.352C49.2566 102.239 49.4263 102.154 49.5959 102.07C49.6242 102.041 49.6807 102.041 49.709 102.013C49.7373 102.013 49.7939 101.956 49.8222 101.956C49.8504 101.928 49.907 101.843 49.9352 101.815C50.3877 101.278 50.9249 100.797 51.4904 100.373C53.5546 98.8461 56.156 98.535 58.616 99.1006C61.387 99.7226 63.9319 101.278 66.1657 102.974C68.5974 104.841 70.803 107.018 72.754 109.393C73.2064 109.93 73.6589 110.496 74.083 111.09C74.3092 110.411 74.903 109.93 75.4968 109.534C76.3451 108.997 77.1934 108.516 78.2113 108.319C80.1907 107.951 82.1699 108.516 84.121 108.884C84.2624 108.912 84.3755 108.941 84.5169 108.969C84.5735 108.969 84.63 108.997 84.6865 108.997C84.7431 108.997 84.828 108.969 84.8845 108.969C85.0824 108.912 85.2521 108.884 85.4217 108.828C85.8459 108.686 86.2983 108.545 86.7225 108.375C87.7969 107.979 88.8714 107.527 89.9176 107.074C92.3211 106.085 94.7528 105.067 97.2977 104.416C98.1177 104.219 99.0225 104.021 99.9274 103.936C99.8425 103.766 99.7294 103.625 99.6446 103.483C99.5598 103.37 99.4749 103.257 99.3335 103.144C99.3053 103.116 99.3053 103.116 99.3335 103.144C99.3053 103.116 99.277 103.087 99.2205 103.059C99.1639 103.003 99.1073 102.918 99.0508 102.833C98.966 102.72 98.8811 102.607 98.7963 102.522C98.0611 101.674 97.1563 101.052 96.1383 100.571C94.5266 99.8357 92.5473 99.6095 91.2183 98.3654C89.3238 96.6123 90.1156 93.4171 90.6811 91.2964C90.8225 90.7591 91.6425 90.9853 91.5011 91.5226C91.1335 92.8798 90.7942 94.3502 90.9356 95.764C91.0204 96.6123 91.3031 97.3192 91.8969 97.8564C92.4342 98.3371 93.226 98.6199 93.9329 98.8744C95.8839 99.553 97.8066 100.203 99.2487 101.787C99.3618 101.9 99.4467 102.013 99.5598 102.154C99.6446 102.267 99.8142 102.409 99.8425 102.55C99.8708 102.55 99.8708 102.579 99.8991 102.579C99.9273 102.607 99.9556 102.635 99.9839 102.635C100.04 102.692 100.097 102.748 100.154 102.805C100.436 103.144 100.663 103.54 100.889 103.936V103.964C101.794 103.992 102.698 104.19 103.462 104.643C104.31 105.152 104.876 106 105.158 106.933C105.243 107.188 105.3 107.47 105.328 107.753C105.356 107.979 105.385 108.121 105.272 108.319C105.215 108.432 105.13 108.573 105.045 108.686C104.763 109.054 104.423 109.393 103.943 109.45C103.009 109.563 102.359 108.601 101.935 107.923C101.313 106.933 100.86 105.859 100.352 104.812C100.182 104.812 100.012 104.812 99.8708 104.841C97.4956 105.039 95.1487 105.887 92.9432 106.763C90.7942 107.612 88.7017 108.573 86.5245 109.365C86.1286 109.506 85.761 109.648 85.3369 109.732C85.1672 109.789 84.9976 109.817 84.8562 109.845C84.4603 109.93 83.9797 109.761 83.6121 109.676C81.7459 109.308 79.7665 108.743 77.872 109.28C77.0237 109.534 76.1754 110.015 75.4968 110.581C75.0161 110.977 74.7617 111.429 74.8465 112.051C74.9031 112.419 75.0444 112.786 75.101 113.125C75.1858 113.493 75.2141 113.861 75.2423 114.228C75.2706 115.02 75.214 115.84 75.0727 116.632C74.7616 118.3 74.1679 119.94 73.3479 121.439C72.952 122.174 72.4996 122.852 71.9906 123.503C71.7361 123.814 71.4816 124.125 71.1988 124.379C71.0575 124.492 71.1988 124.379 71.114 124.464C71.114 124.464 71.114 124.464 71.0858 124.464V124.492C71.114 124.521 71.114 124.549 71.1423 124.606C71.1423 124.634 71.1706 124.634 71.1706 124.662C71.1706 124.662 71.1706 124.662 71.1988 124.69C71.2271 124.747 71.2837 124.775 71.3402 124.832C71.3968 124.888 71.4534 124.945 71.5099 124.973C71.5665 125.03 71.623 125.058 71.6513 125.086C72.3865 125.624 73.2347 126.048 74.083 126.415C76.6844 127.575 79.4838 128.395 82.2548 129.073C85.45 129.865 88.7017 130.459 91.9818 130.657C94.6114 130.798 97.2977 130.628 99.9274 130.459C102.925 130.261 105.922 130.006 108.919 129.639C110.107 129.497 111.323 129.328 112.51 129.101C112.963 129.017 113.415 128.932 113.867 128.819C114.037 128.762 114.207 128.734 114.376 128.677C114.461 128.649 114.518 128.621 114.603 128.593C114.631 128.593 114.716 128.536 114.744 128.536C116.441 127.773 117.515 125.963 118.052 124.266C118.872 121.835 118.872 119.177 118.561 116.632ZM84.7148 108.969H84.7431C84.6866 108.969 84.6583 108.969 84.7148 108.969ZM104.593 107.866C104.593 107.838 104.593 107.838 104.593 107.81C104.565 107.696 104.536 107.555 104.508 107.414C104.452 107.188 104.395 106.933 104.282 106.707C103.745 105.434 102.642 104.925 101.398 104.784C101.737 105.491 102.076 106.198 102.444 106.876C102.67 107.301 102.896 107.696 103.207 108.064C103.32 108.205 103.462 108.347 103.575 108.403C103.603 108.432 103.66 108.46 103.688 108.46C103.745 108.488 103.716 108.46 103.716 108.488C103.745 108.488 103.773 108.516 103.829 108.516C103.829 108.516 103.829 108.516 103.858 108.516C103.886 108.516 103.914 108.516 103.914 108.516C103.943 108.516 103.971 108.516 103.999 108.488C103.999 108.488 104.056 108.46 104.14 108.403C104.225 108.347 104.395 108.121 104.508 107.979C104.536 107.979 104.565 107.923 104.593 107.866ZM104.593 107.866C104.593 107.923 104.621 107.923 104.593 107.866V107.866ZM28.6999 107.272C29.4068 108.432 29.5482 110.043 28.8413 111.259C28.1344 112.532 26.4943 113.154 25.1654 112.475C24.0061 111.881 23.4406 110.468 23.4406 109.223C23.4406 108.234 23.7798 107.301 24.4585 106.679C24.4867 106.565 24.5434 106.481 24.6565 106.396C25.3634 105.915 26.2399 105.661 27.0599 105.887C27.7386 106.113 28.3323 106.65 28.6999 107.272ZM27.7951 107.442C27.484 107.046 27.1165 106.792 26.6358 106.679C26.4661 106.65 26.1551 106.65 25.9289 106.707C25.9006 106.707 25.9005 106.707 25.8723 106.735C25.8157 106.792 25.7592 106.82 25.7027 106.848C24.5716 107.272 24.1475 108.516 24.2889 109.648C24.3454 110.1 24.5151 110.609 24.7978 111.033C25.024 111.401 25.3916 111.712 25.7875 111.825C26.2399 111.966 26.7771 111.91 27.2578 111.683C27.7385 111.429 28.1061 110.948 28.2757 110.468C28.6433 109.478 28.4454 108.262 27.7951 107.442ZM64.6105 80.3818C64.8367 79.9011 64.1016 79.4487 63.8754 79.9577C62.9988 81.7956 61.2457 82.9549 59.2663 83.266C57.5132 83.5487 55.5339 83.068 54.3746 81.6542C53.6394 80.7777 53.3849 79.6466 53.4132 78.5156C53.4132 77.9783 52.5649 77.9783 52.5649 78.5156C52.5367 79.6749 52.7911 80.8625 53.4698 81.8522C54.0636 82.7287 54.9119 83.3508 55.9015 83.7467C57.8809 84.5384 60.2278 84.2273 62.0374 83.1529C63.1685 82.5025 64.0733 81.5411 64.6105 80.3818ZM62.3484 63.4162V63.4444V63.4162ZM56.4953 50.9747C56.7498 51.0312 56.9194 50.8898 57.0043 50.6919C57.3436 49.8436 57.7112 48.9671 58.0505 48.1188C58.1353 47.9209 57.9656 47.6381 57.7677 47.6098C57.5132 47.5533 57.3436 47.6947 57.2587 47.8926C56.9194 48.7409 56.5518 49.6174 56.2125 50.4657C56.1277 50.6636 56.2973 50.9181 56.4953 50.9747ZM61.6415 63.9817C61.2456 63.3313 61.7263 62.483 62.3484 62.172C62.5463 62.0589 62.7726 62.0023 62.9988 61.9741C63.0553 61.1541 63.9602 60.5885 64.7236 60.532C65.1761 60.5037 65.6567 60.6734 65.9678 60.9844C66.1091 61.1258 66.2222 61.3237 66.3071 61.5217C66.8443 60.8713 67.2685 60.1078 67.5229 59.2878C67.6926 58.7789 68.5127 59.0051 68.343 59.514C68.0602 60.4189 67.5795 61.2672 67.014 62.0023C67.0988 62.0589 67.1554 62.1437 67.1837 62.2286C67.4099 62.9072 67.4664 63.6424 67.3533 64.3493C67.1837 65.2824 66.5616 66.272 65.5436 66.4417C64.3843 66.6396 63.5078 65.7631 62.9422 64.8582C62.0374 65.141 61.076 65.2824 60.0863 65.2258C59.5491 65.1975 59.5491 64.3493 60.0863 64.3775C60.7084 64.4058 61.3022 64.3493 61.896 64.2362C61.7829 64.1796 61.6981 64.0948 61.6415 63.9817ZM62.3484 63.5575C62.405 63.6141 62.3767 63.5858 62.3484 63.5575V63.5575ZM65.9395 63.1334C65.2892 63.7272 64.5257 64.2079 63.7057 64.5472C63.8188 64.7169 63.9319 64.8582 64.045 64.9996C64.1581 65.1127 64.2429 65.1975 64.356 65.3106C64.356 65.3106 64.3561 65.3106 64.3843 65.3389C64.4126 65.3672 64.4409 65.3672 64.4409 65.3955C64.4974 65.4238 64.5539 65.4803 64.6105 65.5086C64.6388 65.5369 64.6671 65.5369 64.6953 65.5651C64.6953 65.5651 64.7236 65.5651 64.7236 65.5934C64.7519 65.5934 64.8084 65.6217 64.8367 65.6217C64.8933 65.6217 64.9216 65.65 64.9781 65.65C64.9781 65.65 65.063 65.65 65.063 65.6782C65.0912 65.6782 65.1478 65.6782 65.176 65.6782C65.2043 65.6782 65.2609 65.6782 65.2892 65.6782H65.3174C65.3457 65.6782 65.4023 65.65 65.4305 65.65C65.4588 65.65 65.5436 65.6217 65.5436 65.6217C65.5719 65.6217 65.6002 65.5934 65.6285 65.5934C65.6567 65.5651 65.7133 65.5651 65.7415 65.5369C65.7415 65.5369 65.7982 65.5086 65.7982 65.4803L65.8264 65.452C65.8547 65.4237 65.8547 65.4238 65.8829 65.3955C65.9112 65.3672 65.9395 65.3389 65.9678 65.3106C65.996 65.2824 66.0243 65.2541 66.0243 65.2258C66.0243 65.2258 66.0809 65.1693 66.0809 65.141C66.1375 65.0562 66.194 64.9431 66.2505 64.8582C66.2505 64.83 66.2788 64.7734 66.3071 64.7734C66.3353 64.7451 66.3354 64.6886 66.3637 64.6603C66.392 64.5472 66.4202 64.4341 66.4484 64.321C66.4767 64.2079 66.4768 64.1231 66.5051 64.0665C66.5333 63.6706 66.505 63.3313 66.4484 62.992C66.3919 63.1334 66.2223 63.2465 66.0526 63.2465C66.0243 63.1617 65.9961 63.1617 65.9395 63.1334ZM63.8188 62.0872C63.8188 62.1154 63.8188 62.1437 63.8188 62.172C64.1864 62.3699 64.4974 62.681 64.7236 63.0203C65.0347 62.7941 65.3457 62.5396 65.6285 62.2851C65.6002 62.172 65.5719 62.0306 65.5436 61.9175V61.8892C65.5436 61.861 65.5154 61.861 65.5154 61.8327C65.4871 61.7761 65.4588 61.7479 65.4305 61.6913C65.4023 61.663 65.4022 61.663 65.4022 61.663L65.374 61.6348C65.3457 61.6065 65.3174 61.5782 65.2609 61.5499C65.2326 61.5499 65.2326 61.5217 65.2043 61.5217C65.176 61.4934 65.1478 61.4934 65.0912 61.4651H65.063C65.0347 61.4651 64.9781 61.4368 64.9499 61.4368H64.9216C64.8933 61.4368 64.8368 61.4368 64.8085 61.4368C64.7802 61.4368 64.7236 61.4368 64.6953 61.4368H64.6671C64.5823 61.4651 64.4974 61.4651 64.4409 61.4934C64.4126 61.4934 64.4126 61.4934 64.3843 61.5217C64.3561 61.5499 64.3278 61.5499 64.2995 61.5782C64.243 61.6065 64.1581 61.663 64.1016 61.6913L64.0733 61.7196C64.045 61.7479 64.0167 61.7761 63.9884 61.8044C63.9884 61.8044 63.9602 61.8327 63.9319 61.861C63.9319 61.8892 63.9036 61.8892 63.9036 61.9175C63.8753 61.9458 63.8753 61.9741 63.8471 62.0023V62.0306C63.8471 62.0023 63.8188 62.0306 63.8188 62.0872ZM62.9988 62.8506C63.0271 62.8506 63.0271 62.8506 63.0271 62.8506H62.9988ZM62.3202 63.4444V63.4727V63.501C62.3202 63.4727 62.2919 63.4727 62.3202 63.501V63.5293C62.3202 63.5293 62.3202 63.5293 62.3202 63.501C62.3485 63.5293 62.3484 63.5293 62.3767 63.5575C62.405 63.5858 62.4333 63.5858 62.4616 63.6141C62.5464 63.6424 62.603 63.6424 62.6878 63.6706C62.7161 63.6706 62.7443 63.6706 62.7726 63.6706C62.8291 63.6706 62.8574 63.6706 62.9139 63.6706C63.027 63.6706 63.1401 63.7272 63.1967 63.7837C63.4512 63.6706 63.6774 63.5575 63.9319 63.4444C63.6491 63.2748 63.3664 63.0768 63.1967 62.7941C63.1967 62.7941 63.1967 62.7941 63.1685 62.7941C63.1402 62.7941 63.1119 62.7941 63.0836 62.7941C63.0553 62.7941 63.0271 62.7941 62.9988 62.7941H62.9705C62.9423 62.7941 62.8008 62.8224 62.7726 62.8506C62.7726 62.8506 62.8574 62.7941 62.8009 62.8224C62.8009 62.8224 62.7726 62.8224 62.7726 62.8506C62.7443 62.8506 62.7161 62.8789 62.6878 62.9072C62.6595 62.9355 62.6312 62.9355 62.6029 62.9637C62.5464 62.992 62.5181 63.0486 62.4898 63.0768C62.4898 63.0768 62.4898 63.0768 62.4616 63.1051C62.4616 63.1334 62.4333 63.1334 62.4333 63.1617C62.405 63.1899 62.405 63.2182 62.405 63.2465C62.405 63.2748 62.3767 63.303 62.3767 63.3313C62.3484 63.3879 62.3202 63.3879 62.3202 63.4444ZM58.8422 51.3705C59.0967 51.4271 59.2664 51.2857 59.3512 51.0878C59.6622 50.296 59.945 49.5043 60.256 48.7409C60.3408 48.5429 60.1712 48.2602 59.9733 48.2319C59.7188 48.1753 59.5491 48.3167 59.4643 48.5147C59.1532 49.3064 58.8705 50.0981 58.5594 50.8616C58.4746 51.0312 58.6443 51.314 58.8422 51.3705ZM59.4643 41.7567C59.6905 41.7567 59.8884 41.7567 60.1146 41.7567C60.2277 41.7567 60.3409 41.7001 60.4257 41.6436C60.5105 41.5587 60.5671 41.4456 60.5388 41.3325C60.5388 41.2194 60.5105 41.1063 60.4257 41.0215C60.3409 40.9367 60.2277 40.9084 60.1146 40.9084C59.8884 40.9084 59.6905 40.9084 59.4643 40.9084C59.3512 40.9084 59.2381 40.9649 59.1533 41.0215C59.0684 41.1063 59.0119 41.2194 59.0401 41.3325C59.0401 41.4456 59.0684 41.5587 59.1533 41.6436C59.2381 41.7284 59.3512 41.7567 59.4643 41.7567Z" fill="#211F1C"/>
</svg>
