<svg width="140" height="142" viewBox="0 0 140 142" fill="none" xmlns="http://www.w3.org/2000/svg">
<path d="M42.1564 77.4751C36.7528 77.3576 32.7882 71.6897 32.7294 66.2861C32.6707 60.8825 35.49 55.8901 38.5736 51.485C41.6571 47.0799 45.1812 42.7922 46.8551 37.653C48.6759 32.1025 48.206 25.9354 50.6142 20.6199C53.5509 14.1004 60.1585 10.1652 66.355 6.64109C73.1388 2.7646 80.745 -1.22936 88.3805 0.356473C98.6297 2.47092 104.65 13.6599 114.517 17.2427C117.836 18.4467 121.448 18.7111 124.825 19.6802C128.203 20.6493 131.639 22.6463 132.931 25.9354C134.722 30.5167 131.815 35.4211 130.934 40.2667C129.054 50.5159 136.514 60.5301 135.544 70.8968C134.722 79.8244 127.527 87.2544 119.128 90.338C110.729 93.4215 101.361 92.6873 92.6681 90.4554C84.0048 88.2235 75.7819 84.5526 67.2947 81.7039C58.8076 78.8553 49.8212 76.829 40.9229 78.0037" fill="#F8F6F2"/>
<path d="M61.7444 99.2362C61.8912 99.3243 62.0087 99.3831 62.1555 99.4418C62.2436 99.5005 62.3318 99.5592 62.4199 99.618L61.7444 99.2362ZM130.758 53.6581C130.64 53.805 130.493 53.9518 130.346 54.0986C130.376 54.3042 130.346 54.5392 130.317 54.7447C130.258 55.1265 130.141 55.4789 130.023 55.802L130.053 55.8313C129.965 57.2409 129.377 58.5918 128.438 59.6491C128.438 59.6784 128.438 59.6785 128.438 59.7078V59.7372C128.438 59.9134 128.35 60.0602 128.291 60.2364C127.821 61.1762 127.145 61.9985 126.382 62.7033C125.941 63.0851 125.383 63.4668 124.796 63.4081C124.297 63.3494 123.886 63.0263 123.533 62.6446C123.034 62.1453 122.593 61.4405 122.799 60.765C122.828 60.6182 122.917 60.4714 123.005 60.3539C122.975 60.2071 122.975 60.0309 122.975 59.884C123.005 59.3848 123.24 58.8855 123.474 58.445C123.563 58.2688 123.68 58.122 123.768 57.9751C123.827 57.6521 123.974 57.2997 124.15 57.006C123.944 57.006 123.709 56.9767 123.504 56.9473C123.475 57.1529 123.445 57.3291 123.416 57.5053C123.181 58.8855 122.828 60.2952 122.124 61.4992C121.683 62.2334 121.096 62.8501 120.42 63.3787L120.508 63.6137C120.949 64.2891 121.389 64.9939 121.83 65.6694L123.269 67.402L121.213 68.2831L110.935 67.402L111.375 65.875C111.728 65.1995 112.08 64.5241 112.432 63.8486L111.581 64.3478C110.406 65.0233 108.938 64.759 107.675 64.2598C106.412 63.7605 105.237 63.0557 103.886 62.8795C102.859 62.7326 101.801 62.9382 100.774 62.9088C99.7457 62.8795 98.6004 62.4977 98.1012 61.6167C98.1012 61.6167 98.0424 60.5007 98.013 58.7387C97.0439 65.4638 96.3098 72.2477 95.8399 79.0315C97.7488 81.2341 98.6297 83.5541 98.013 85.9035C97.6019 87.4306 95.5168 89.1338 92.8737 90.6609C96.251 89.5744 99.6576 88.4878 103.094 87.9004C105.032 87.5774 107.411 87.6067 108.497 89.2513C109.907 91.3951 107.91 94.1263 105.913 95.7415C93.7547 105.374 75.782 106.901 62.1555 99.4711C61.8618 99.2656 61.6269 99.0013 61.4507 98.7076C60.8046 100.617 60.4523 102.643 60.3642 104.61C60.1292 109.691 61.1571 114.772 60.8634 119.881C60.6872 123.171 59.3657 126.988 56.6345 128.427C56.3115 130.835 57.9854 133.86 56.4877 135.887C55.6948 136.973 54.2263 137.326 52.9048 137.619C52.8461 137.619 52.8167 137.649 52.758 137.649C47.325 139.352 39.2197 141.643 34.4622 141.701C28.5594 140.879 34.2566 132.186 41.3635 131.658L41.3341 131.746C41.4516 131.893 41.569 132.069 41.6865 132.216C43.4779 130.219 45.2694 128.192 47.0901 126.195C45.4749 125.432 43.8891 124.903 42.2151 125.432L41.9509 126.137C45.8273 115.887 43.9184 104.522 44.2415 93.5977C44.3296 91.0134 44.5352 88.3703 45.0931 85.8447C40.2769 91.219 35.49 96.5931 30.6738 101.967C30.3801 99.9117 29.8808 97.9147 29.2054 95.9471C27.8839 97.8266 27.2966 100.705 25.1234 101.38C23.8018 101.791 22.4216 101.233 21.1588 100.646C17.3117 98.9132 13.4351 97.1805 9.58802 95.4478C9.17687 95.2716 8.76577 95.0367 8.384 94.743C7.82602 95.0367 7.23869 95.301 6.56324 95.5066C7.26806 96.7106 13.8463 104.669 13.3764 105.315C13.2002 105.403 12.9359 105.198 12.7891 105.022C9.00071 100.969 2.48113 93.6565 0.190476 88.8696C-1.48346 83.2604 8.32524 84.347 12.0255 90.1911C16.2838 89.2807 20.5421 88.3703 24.771 87.4599C24.536 87.1663 24.3011 86.8432 24.0661 86.5495L24.0074 86.4614C32.0247 77.5044 39.7483 67.4314 51.8476 65.1114C50.7904 62.762 49.4101 60.5301 47.7655 58.5331C47.002 58.7093 46.2091 58.768 45.4161 58.768C45.1225 58.768 44.8288 58.7387 44.5645 58.6212C44.3002 58.5037 44.0947 58.2688 44.0653 57.9751C44.0359 57.7402 44.1828 57.5053 44.359 57.3584C44.4764 57.241 44.6232 57.1822 44.7701 57.1235C44.447 57.1529 44.0947 57.1528 43.7716 57.1528C43.4779 57.1528 43.1842 57.1235 42.9199 57.006C42.6556 56.8885 42.4501 56.6536 42.4207 56.3599C42.4207 56.1837 42.4795 55.9782 42.5969 55.8313C42.4207 55.8313 42.2739 55.8313 42.0977 55.8313C41.804 55.8313 41.5103 55.8019 41.246 55.6845C40.9817 55.567 40.7761 55.3321 40.7468 55.0384C40.7174 54.8035 40.8642 54.5685 41.0404 54.4217C41.1579 54.3336 41.2754 54.2455 41.3928 54.1868C41.1873 54.1868 40.9817 54.1868 40.7762 54.1868C40.4825 54.1868 40.1888 54.1574 39.9245 54.0399C39.6602 53.9224 39.4546 53.6875 39.4252 53.3939C39.3959 53.1589 39.5427 52.9239 39.7189 52.7771C39.8951 52.6303 40.1301 52.5128 40.3357 52.4541C40.4531 52.4247 40.5706 52.3953 40.688 52.3366C37.5164 50.3103 33.9629 48.8713 30.2333 48.2546C33.6399 40.8246 42.3032 36.1846 50.3499 37.4767C53.0223 37.9173 55.6066 38.9157 58.3084 38.9157C62.5373 38.9451 66.3551 36.5664 70.2022 34.8337C72.9627 33.5709 75.8701 32.6311 78.8362 32.0144C79.2473 29.1952 79.5997 26.4053 79.5997 26.4053C77.3678 25.6124 72.8746 23.9678 72.8746 23.9678C74.2842 22.4994 75.782 20.943 77.3091 19.3278C77.0448 18.5642 77.1035 17.7125 77.544 17.0371L79.0124 17.5363C80.1871 16.3029 81.3617 15.0695 82.5658 13.8067C83.4762 12.8669 84.6215 12.0153 85.8843 11.6041C85.2382 11.4573 84.5922 11.2224 83.9167 10.7231C82.6246 9.78337 81.538 6.28867 83.5056 4.08612C86.1487 8.66742 89.2028 5.78943 93.4317 8.31502C96.6034 10.2239 95.9867 16.3029 94.2834 19.3278C94.4596 19.269 94.6064 19.1809 94.7826 19.1222C95.135 18.946 95.5462 18.7991 95.9279 18.8579C96.5153 18.946 96.9264 19.4746 97.2788 19.9738L95.5168 20.15C95.9573 20.3556 96.3391 20.6199 96.6328 21.0017C97.6313 22.2057 97.5725 24.144 96.5153 25.2893C95.8398 26.0235 94.8414 26.3759 93.8429 26.2878V26.3759C94.4302 28.2848 95.0176 30.0468 95.6049 31.7501C98.0424 32.1906 100.421 32.8367 102.741 33.6884C102.33 35.421 101.919 37.1831 101.537 38.9451C101.596 38.8864 101.655 38.857 101.713 38.7983C102.859 37.8292 103.857 40.7952 104.268 42.2049C104.679 43.6145 105.002 45.2004 106.089 46.1989C107.117 47.1386 108.585 47.3735 109.936 47.7259C111.933 48.2252 113.842 49.0768 115.545 50.1928L122.564 49.8991C123.563 48.9887 124.737 48.2546 126 47.8141C126.441 47.6672 126.94 47.5204 127.41 47.5497C127.88 47.5791 128.379 47.814 128.643 48.1958C128.937 48.6363 128.907 49.1649 128.731 49.6935C128.937 49.7523 129.142 49.811 129.319 49.8698C130.229 50.2222 131.051 50.8682 131.257 51.7199C131.462 52.4247 131.198 53.1295 130.758 53.6581ZM74.1668 93.0397C72.6691 92.2468 71.2594 91.2189 69.9085 90.1323C68.91 90.6022 67.8822 90.984 66.9131 91.5126C66.825 91.5714 66.7662 91.6007 66.6781 91.6595C67.2948 91.6301 67.9115 91.6595 68.4989 91.7182C70.4078 91.9531 72.2579 92.5992 74.1668 93.0397Z" fill="white"/>
<path d="M91.7577 22.8225C92.6388 21.9415 93.9309 21.4423 95.1937 21.5891C95.4286 21.6185 95.6342 21.7653 95.6342 22.0296C95.6342 22.2352 95.4286 22.4995 95.1937 22.4701C94.1365 22.3526 93.138 22.7051 92.4038 23.4686C91.9927 23.8504 91.3466 23.2336 91.7577 22.8225ZM87.6463 15.7743C87.7932 15.8037 87.9107 15.8331 88.0575 15.8918C88.175 15.9506 88.2924 16.0093 88.3805 16.068C88.4686 16.1561 88.5567 16.2149 88.6155 16.3323C88.6448 16.3911 88.7035 16.4498 88.7329 16.5085C88.8504 16.7141 89.1441 16.8022 89.3496 16.6554C89.5552 16.5379 89.6433 16.2736 89.4965 16.0387C89.3203 15.7156 89.0559 15.4513 88.7329 15.2458C88.4099 15.0402 88.0575 14.9227 87.6757 14.8933C87.5583 14.8933 87.4408 14.9521 87.3526 15.0108C87.2645 15.0989 87.2058 15.2164 87.2352 15.3338C87.2352 15.4513 87.2645 15.5688 87.3526 15.6569C87.4701 15.745 87.5582 15.7743 87.6463 15.7743ZM83.2119 17.6832C82.9182 18.2412 82.6539 18.8286 82.3602 19.3865C82.2427 19.6215 81.9491 19.6508 81.7435 19.5334C81.538 19.4159 81.4792 19.1222 81.5967 18.9167C81.8904 18.3587 82.1546 17.7713 82.4483 17.2134C82.5658 16.9784 82.8595 16.949 83.0651 17.0665C83.3 17.184 83.3294 17.4776 83.2119 17.6832ZM84.504 14.3647C84.4747 14.3647 84.416 14.3941 84.3866 14.3941C84.1517 14.4528 83.9167 14.306 83.858 14.1004C83.7992 13.8655 83.9461 13.6305 84.1516 13.5718C84.5334 13.4543 84.9446 13.4543 85.3263 13.5424C85.7081 13.6305 86.0605 13.8068 86.3835 14.0711C86.5891 14.2179 86.5303 14.5409 86.3835 14.6878C86.2954 14.7759 86.178 14.8052 86.0605 14.8052C85.943 14.8052 85.8549 14.7465 85.7374 14.6878C85.8255 14.7759 85.7375 14.6878 85.7081 14.6584C85.6788 14.629 85.6494 14.629 85.62 14.5997C85.5613 14.5703 85.4732 14.5409 85.4145 14.4822H85.3851C85.3557 14.4822 85.3263 14.4528 85.2676 14.4528C85.2089 14.4234 85.1207 14.4235 85.062 14.3941C85.0326 14.3941 85.0033 14.3941 84.9739 14.3647H84.9445C84.8564 14.3647 84.7977 14.3647 84.7096 14.3647C84.6802 14.3647 84.6215 14.3647 84.5921 14.3647H84.5628C84.5921 14.3647 84.5334 14.3647 84.504 14.3647ZM86.9415 18.6524C87.1471 18.7698 87.2352 19.0635 87.0884 19.2691C87.0296 19.3865 86.9416 19.4746 86.8828 19.5921C86.8534 19.6508 86.8241 19.7096 86.7947 19.7683C86.8534 19.6509 86.7947 19.7683 86.7947 19.7977C86.7947 19.8271 86.7653 19.8564 86.7653 19.8858C86.6772 20.1207 86.6185 20.3557 86.5891 20.5906V20.62C86.5891 20.7374 86.5304 20.8549 86.4716 20.943C86.3835 21.0311 86.2661 21.0605 86.1486 21.0605C86.0312 21.0605 85.9137 21.0018 85.8256 20.943C85.7668 20.8843 85.6788 20.7374 85.7081 20.62C85.7669 19.9739 85.9724 19.3572 86.3248 18.8286C86.4716 18.5936 86.736 18.5349 86.9415 18.6524ZM82.7126 27.8149C82.2721 27.58 81.7435 27.5506 81.2736 27.7856C80.8919 27.9618 80.5688 28.3436 80.4513 28.7547C80.3926 28.9897 80.5394 29.2539 80.745 29.2833C80.9799 29.342 81.2149 29.2246 81.2736 28.9896C81.2736 28.9603 81.303 28.9309 81.303 28.9016C81.303 28.9016 81.303 28.8722 81.3324 28.8722C81.3617 28.8428 81.3617 28.8134 81.3911 28.7841C81.3911 28.7841 81.3911 28.7841 81.3911 28.7547C81.4204 28.7254 81.4498 28.696 81.5086 28.6372C81.5086 28.6372 81.5673 28.6079 81.5673 28.5785C81.5967 28.5492 81.6261 28.5491 81.6554 28.5198H81.6847C81.7141 28.5198 81.7729 28.4904 81.8023 28.4904H81.8316C81.8609 28.4904 81.9197 28.4904 81.9491 28.4904C81.9785 28.4904 81.9784 28.4904 82.0078 28.4904H82.0372C82.0666 28.4904 82.0959 28.4904 82.0959 28.5198C82.1253 28.5198 82.184 28.5491 82.184 28.5491C82.2134 28.5491 82.2134 28.5785 82.2428 28.5785C82.4483 28.696 82.742 28.6373 82.8594 28.4317C82.9769 28.1967 82.9182 27.9324 82.7126 27.8149ZM82.2134 28.5198C82.2134 28.5198 82.2134 28.5491 82.2134 28.5198C82.184 28.5198 82.1546 28.5198 82.2134 28.5198ZM113.401 40.4723C113.343 39.5913 113.49 38.6809 113.813 37.8586C114.018 37.33 114.87 37.5649 114.664 38.0935C114.341 38.8864 114.194 39.7381 114.282 40.5897C114.371 41.412 114.723 42.1168 115.017 42.851C115.34 43.6733 115.252 44.4662 115.017 45.2885C114.811 46.0227 114.488 46.8743 114.87 47.5792C115.134 48.0784 114.371 48.5189 114.106 48.0197C113.695 47.2561 113.783 46.3751 114.018 45.5528C114.136 45.1123 114.312 44.6424 114.341 44.1726C114.371 43.7321 114.283 43.3209 114.106 42.9391C113.754 42.1462 113.46 41.3827 113.401 40.4723ZM116.896 44.9361C117.102 44.5543 117.249 44.1726 117.249 43.7027C117.249 43.3209 117.102 42.9098 116.867 42.6161C116.72 42.4399 116.691 42.1756 116.867 41.9994C117.014 41.8525 117.337 41.8232 117.484 41.9994C118.042 42.7042 118.276 43.6439 118.012 44.525C117.895 44.9655 117.601 45.3473 117.454 45.7584C117.395 45.9346 117.337 46.3457 117.542 46.4338C117.777 46.5219 117.924 46.7275 117.836 46.9625C117.777 47.168 117.513 47.3442 117.307 47.2561C116.867 47.0799 116.573 46.6982 116.514 46.2283C116.485 45.7878 116.691 45.3472 116.896 44.9361ZM79.1885 38.9452C78.3956 39.2976 77.6027 39.65 76.8098 40.0318C76.0756 40.3548 75.2827 40.7953 74.4604 40.7953C73.7262 40.7953 73.227 40.3548 72.6103 39.973C72.3753 39.8262 72.111 39.65 71.8174 39.7968C71.6412 39.8849 71.5237 39.973 71.6118 40.0905C71.9348 40.5604 71.1713 41.0009 70.8482 40.531C70.4077 39.9143 70.907 39.2095 71.5237 38.9745C72.2872 38.6515 72.904 39.1214 73.5207 39.5325C73.8437 39.7674 74.1667 39.9437 74.6073 39.9143C75.0184 39.8849 75.4296 39.7087 75.782 39.5619C76.6336 39.1801 77.5146 38.7983 78.3663 38.3872C79.1886 38.0054 80.0109 37.6236 80.8625 37.2712C81.6261 36.9482 82.419 36.7133 83.2706 36.8601C84.0342 37.0069 84.6802 37.4768 85.3557 37.8292C85.943 38.1523 86.5891 38.2991 87.2645 38.2991C88.5567 38.2991 89.7902 37.7118 90.6124 36.6839C90.9649 36.2434 91.5815 36.8601 91.2291 37.3006C90.3481 38.4166 88.9973 39.0627 87.617 39.1508C87.0003 39.2095 86.3542 39.1214 85.7668 38.9452C85.0914 38.7396 84.5334 38.3285 83.9167 38.0054C83.1531 37.5943 82.419 37.6236 81.5967 37.9173C80.7157 38.211 79.9521 38.5928 79.1885 38.9452ZM91.3466 42.4399C90.8474 41.9113 90.0838 42.0581 89.4965 42.293C88.7623 42.5867 88.1162 43.1153 87.4114 43.4384C86.6478 43.7908 85.8549 43.8789 85.062 43.5265C84.7096 43.3796 84.3278 43.086 83.9167 43.0566C83.7699 43.0566 83.3293 43.1447 83.3881 43.3796C83.5055 43.9376 82.6539 44.1726 82.5364 43.6146C82.3309 42.7042 83.2706 42.0875 84.0929 42.2049C84.6215 42.293 85.0326 42.5867 85.5025 42.7923C86.0017 42.9685 86.4717 42.9098 86.9415 42.7042C87.8519 42.3224 88.5861 41.647 89.5552 41.3533C90.4069 41.1184 91.3466 41.1477 91.9633 41.8232C92.3744 42.2343 91.7284 42.851 91.3466 42.4399ZM78.1313 49.0769C78.6893 49.0182 78.6893 49.8992 78.1313 49.9579C76.3987 50.1047 74.666 50.4278 72.9921 50.8683C72.4341 51.0151 72.1991 50.1635 72.7571 50.0167C74.5191 49.5468 76.3106 49.2237 78.1313 49.0769ZM47.7655 42.4105C45.651 41.9406 43.3604 42.4986 41.7159 43.8789C41.5397 44.0257 41.2753 44.0551 41.0991 43.8789C41.0698 43.8495 41.0404 43.8201 41.011 43.7908C40.9523 44.3488 40.8936 44.9067 40.8348 45.4647C40.7761 46.0227 39.8951 46.0227 39.9538 45.4647C40.0419 44.5837 40.13 43.7321 40.2181 42.851C40.2475 42.4693 40.688 42.2637 40.9817 42.528C41.1285 42.6748 41.2753 42.8217 41.4515 42.9685C43.331 41.5589 45.7392 41.0303 48.0298 41.5589C48.5584 41.6763 48.3235 42.528 47.7655 42.4105ZM48.9402 46.6981C48.9108 46.7569 48.9108 46.7862 48.9696 46.845C49.2632 47.3442 48.4997 47.7847 48.206 47.2855C47.883 46.6981 48.1473 46.0814 48.6759 45.729C49.2045 45.3472 49.8212 45.3472 50.4085 45.5822C50.7316 45.6996 51.0253 45.8758 51.319 46.0227C51.5539 46.1401 51.8182 46.287 52.0531 46.287C52.2587 46.287 52.4937 46.2283 52.6699 46.1108C52.8167 45.9933 52.8461 45.9346 52.8167 45.8171C52.6699 45.2591 53.5215 45.0242 53.6683 45.5822C53.8152 46.1401 53.4921 46.6688 52.9929 46.9331C52.4643 47.2268 51.8769 47.2268 51.319 46.9918C50.9959 46.8743 50.7022 46.6981 50.4085 46.5513C50.1736 46.4338 49.8799 46.287 49.6156 46.287C49.4101 46.287 49.2045 46.3751 49.0577 46.5219C48.999 46.5807 48.9402 46.6688 48.9402 46.6981ZM53.5509 52.7772C52.3762 52.1604 50.8197 52.366 49.8506 53.2764C49.4395 53.6582 48.8227 53.0415 49.2339 52.6597C50.4967 51.485 52.4643 51.2207 53.9914 52.0136C54.4907 52.2779 54.0502 53.0415 53.5509 52.7772ZM91.6109 54.4218C89.2028 55.3909 86.5891 55.6845 84.0048 55.3615C83.8873 55.5671 83.7405 55.7433 83.623 55.9488C83.3 56.4187 82.5364 55.9782 82.8594 55.5083C83.0356 55.244 83.2413 54.9503 83.4175 54.686C83.5349 54.5098 83.7111 54.4511 83.9167 54.4805C86.4423 54.8623 89.0266 54.5392 91.376 53.5995C91.9046 53.3645 92.1102 54.2162 91.6109 54.4218ZM130.405 49.9579C130.082 49.723 129.7 49.5761 129.348 49.4587C129.407 49.0769 129.407 48.6951 129.26 48.3427C128.995 47.6673 128.349 47.2855 127.674 47.1974C126.881 47.0799 126.059 47.3736 125.325 47.6966C124.15 48.1959 123.063 48.93 122.153 49.8111C120.068 49.8404 118.012 49.8992 115.927 49.9285C114.752 49.165 113.519 48.5189 112.227 48.0197C110.964 47.5498 109.642 47.2855 108.38 46.9037C107.763 46.7275 107.176 46.4926 106.676 46.1108C106.206 45.729 105.854 45.2298 105.619 44.6718C105.09 43.5558 104.944 42.293 104.474 41.1477C104.033 40.0318 103.328 39.0333 102.213 38.534C102.565 36.9775 102.917 35.4211 103.299 33.8646C103.358 33.6297 103.211 33.3947 103.005 33.336C100.774 32.5137 98.4535 31.8676 96.1041 31.4271C95.5755 29.8707 95.0469 28.3436 94.577 26.7871C95.4874 26.699 96.3684 26.3172 96.9851 25.6418C98.1892 24.3203 98.2479 22.1471 97.1026 20.7668C96.6033 20.1501 95.8692 19.7389 95.1057 19.5627C95.4581 19.4159 95.8398 19.2397 96.1922 19.3865C96.574 19.5334 96.8089 19.9152 97.0439 20.2382C97.3669 20.7081 98.1305 20.2676 97.8074 19.7977C97.5138 19.3865 97.1907 18.9167 96.7209 18.6817C96.1923 18.388 95.6049 18.4174 95.0763 18.6524C94.9588 18.6817 94.8413 18.7405 94.7532 18.7992C96.1922 15.6275 96.574 10.1652 93.5785 8.40316C89.3496 5.90693 86.2955 8.78492 83.6524 4.17426C81.6848 6.34744 82.7714 9.87154 84.0635 10.8113C84.504 11.1343 84.9152 11.3399 85.3263 11.4867C83.6524 12.2209 82.3602 13.6012 81.0681 14.9521C80.5688 15.4807 80.0402 16.0093 79.541 16.5379C78.9536 16.5967 78.3956 16.6554 77.8083 16.7141C77.6614 16.6554 77.4853 16.6554 77.3384 16.8022C77.1916 16.8609 77.0447 17.0078 77.0741 17.2134C77.0741 17.2427 77.0741 17.2427 77.0741 17.2721C76.8098 17.9182 76.7511 18.623 76.8979 19.2984C76.4574 19.7683 76.0169 20.2382 75.5764 20.6787C74.6073 21.7066 73.6088 22.7344 72.6397 23.7329C72.4047 23.9972 72.5222 24.3496 72.8452 24.4671C74.9597 25.2306 77.1035 26.0235 79.2179 26.7871V26.8165C79.1886 26.934 79.1885 27.022 79.1885 27.1395C79.1004 27.7856 79.0123 28.4317 78.9242 29.0484C78.8068 29.9294 78.6893 30.8398 78.5425 31.7208C75.9288 32.3082 73.3738 33.1011 70.9069 34.1583C68.3814 35.2449 66.0026 36.5958 63.4477 37.5356C62.1849 38.0054 60.8927 38.3578 59.5418 38.4753C58.0734 38.6221 56.6344 38.4166 55.1954 38.1229C53.7271 37.7999 52.2881 37.3887 50.8197 37.1538C49.7038 36.9482 48.5584 36.8601 47.4131 36.8895C45.1812 36.9188 42.9492 37.3593 40.8642 38.1523C36.6646 39.7381 32.935 42.7042 30.6737 46.61C30.3801 47.0799 30.1452 47.5792 29.9102 48.1078C29.7927 48.3427 29.8808 48.6951 30.1745 48.7539C33.5811 49.3412 36.8115 50.5746 39.7483 52.3073C39.7483 52.3073 39.7189 52.3073 39.7189 52.3367C39.3077 52.601 38.9847 53.0121 39.0434 53.5113C39.0728 53.9812 39.4252 54.363 39.8657 54.5392C40.0419 54.6273 40.2475 54.6567 40.4237 54.686C40.3649 54.8329 40.3356 54.9797 40.3649 55.1559C40.3943 55.6258 40.7467 56.0076 41.1872 56.1838C41.4515 56.3013 41.7159 56.3306 42.0095 56.36C42.0095 56.3894 42.0095 56.4481 42.0095 56.4775C42.0389 56.9473 42.3913 57.3291 42.8318 57.5053C43.0961 57.6228 43.4192 57.6522 43.7129 57.6815C43.6541 57.8284 43.6247 57.9752 43.6541 58.122C43.6834 58.5919 44.0359 58.9737 44.4764 59.1499C44.9756 59.3555 45.5042 59.3261 46.0328 59.2967C46.5615 59.2674 47.0607 59.2086 47.5893 59.1205H47.6187C48.5584 60.2952 49.4101 61.5286 50.1737 62.8208C50.5554 63.4963 50.9078 64.1717 51.2308 64.8765C50.9078 64.9353 50.5848 65.0233 50.2324 65.1114C47.0901 65.9044 44.0946 67.2846 41.3928 69.0173C35.813 72.6295 31.3198 77.6219 26.9441 82.585C25.8575 83.789 24.8003 85.0225 23.7137 86.2266C23.5668 86.4028 23.5668 86.6083 23.6843 86.7845C23.7137 86.8433 23.7137 86.902 23.7724 86.9608C23.8605 87.0782 23.9193 87.1663 24.0074 87.2838C20.8944 87.9592 17.8109 88.6053 14.6979 89.2808C13.7288 89.4863 12.7303 89.6919 11.7318 89.8975C11.5262 89.6038 11.2913 89.3102 11.027 89.0165C11.7318 88.3117 12.3192 87.5187 12.7891 86.6377C13.1708 85.9035 13.6701 84.7582 12.7891 84.1709C11.8787 83.5542 11.2326 84.6114 10.9389 85.3162C10.8508 85.5511 10.7627 85.786 10.704 86.021C10.6746 85.8154 10.6452 85.6098 10.5865 85.3749C10.469 84.6407 10.2047 83.9065 9.47054 83.6422C9.29433 83.5835 9.08878 83.701 8.97131 83.8478C8.47206 84.6114 8.32518 85.5511 8.56012 86.4321C8.61886 86.6671 8.70696 86.9314 8.8538 87.1369C4.5368 84.2883 -1.10172 84.6114 0.190438 88.9871C2.48109 93.7739 8.97131 101.086 12.7891 105.139C12.9653 105.315 13.2002 105.492 13.3764 105.433C13.8463 104.787 7.26802 96.8282 6.5632 95.6241C7.06245 95.4773 7.50294 95.3011 7.94345 95.0955C8.85384 95.7709 9.96981 96.2114 10.9683 96.6813C12.8772 97.533 14.7861 98.3846 16.6949 99.2362C17.664 99.6768 18.6332 100.117 19.6317 100.558C20.5714 100.969 21.4818 101.439 22.4509 101.762C23.9192 102.261 25.5051 102.202 26.6798 101.086C27.6489 100.176 28.1775 98.9132 28.7648 97.7385C28.8823 97.533 28.9998 97.2981 29.1172 97.0925C29.2641 97.5917 29.4109 98.0616 29.5578 98.5609C29.8808 99.7649 30.1157 100.969 30.2919 102.202C30.3507 102.525 30.8205 102.613 31.0261 102.408C34.051 99.0307 37.0464 95.6535 40.0713 92.3056C41.5103 90.6904 42.9493 89.0752 44.4176 87.46C44.3883 87.6362 44.3589 87.8417 44.3295 88.0179C43.4779 93.6858 43.8597 99.5006 44.0065 105.227C44.124 110.924 44.1533 116.68 42.8024 122.231C42.4794 123.552 42.0682 124.874 41.5984 126.166C41.3928 126.695 42.2445 126.93 42.45 126.401C42.5088 126.254 42.5675 126.107 42.5969 125.961C43.9184 125.637 45.2105 125.961 46.444 126.489C44.7994 128.31 43.1549 130.16 41.5103 131.981C41.4809 131.951 41.4516 131.922 41.4222 131.863L41.4515 131.775C40.9229 131.805 40.4237 131.893 39.9244 132.01C39.9244 131.951 39.8951 131.922 39.8951 131.863C40.0126 131.863 40.13 131.805 40.2181 131.658C40.5705 131.041 40.8055 130.366 40.923 129.661C41.0111 129.044 41.1578 128.281 40.7173 127.752C40.5118 127.517 40.1888 127.4 39.8951 127.517C39.5721 127.634 39.3665 127.957 39.1902 128.251C38.8966 128.839 38.7204 129.455 38.691 130.101C38.691 130.336 38.691 130.571 38.7204 130.806C38.5736 130.601 38.4561 130.424 38.3092 130.219C38.1037 129.925 37.9275 129.661 37.7219 129.367C37.5163 129.073 37.3107 128.78 36.9877 128.662C36.6353 128.545 36.2536 128.692 36.0774 128.985C35.9011 129.308 35.9599 129.69 36.1361 129.984C36.2829 130.248 36.5178 130.483 36.7527 130.718C36.9583 130.924 37.1639 131.129 37.3989 131.335C37.81 131.687 38.2211 132.01 38.691 132.274C38.691 132.304 38.7204 132.304 38.7204 132.333C33.0525 134.418 29.4697 141.026 34.5796 141.76C37.9568 141.731 43.008 140.556 47.6187 139.293C49.5275 138.882 51.4364 138.5 53.3453 138.089C54.8136 137.766 56.3995 137.296 57.163 135.916C57.9266 134.595 57.6623 133.009 57.398 131.57C57.2511 130.689 57.0456 129.69 57.1337 128.78C57.7504 128.427 58.279 127.958 58.7489 127.4C60.0704 125.814 60.8046 123.787 61.157 121.761C61.6269 119.03 61.3919 116.181 61.2157 113.421C61.0102 110.425 60.7165 107.4 60.8927 104.405C60.9808 102.848 61.2451 101.233 61.6856 99.6768C62.1555 100.088 62.7429 100.323 63.3008 100.617C66.355 102.114 69.6148 103.23 72.9627 103.876C73.4325 103.964 73.9025 104.053 74.4017 104.141C71.0538 110.249 68.1465 116.622 65.7383 123.171C65.0629 125.021 64.4168 126.9 63.8001 128.75C63.6239 129.279 64.4755 129.514 64.6517 128.985C66.7661 122.378 69.3799 115.946 72.4634 109.72C73.3445 107.958 74.2549 106.196 75.1946 104.464C75.224 104.376 75.2533 104.317 75.2533 104.258C75.7819 104.317 76.2812 104.405 76.8098 104.464C77.4853 109.427 78.1314 114.419 78.8068 119.382C78.8362 119.617 78.983 119.823 79.2473 119.823C79.4529 119.823 79.7172 119.617 79.6878 119.382C79.0124 114.449 78.3663 109.485 77.6908 104.552C80.3633 104.757 83.0357 104.728 85.6787 104.434C85.6787 104.493 85.6787 104.581 85.7374 104.64C87.94 109.368 90.1719 114.067 92.3745 118.795C92.6094 119.294 93.3729 118.854 93.138 118.354C90.9354 113.685 88.7623 109.016 86.5597 104.346C88.8504 104.053 91.1117 103.583 93.3436 102.907C96.6034 101.909 99.7457 100.528 102.653 98.737C102.829 98.6195 102.976 98.5315 103.152 98.414L102.682 97.6798C99.8337 99.5006 96.7502 100.91 93.5492 101.938C86.8534 104.053 79.6291 104.434 72.7865 102.995C70.8776 102.584 68.9687 102.056 67.1479 101.351C66.2375 101.028 65.3566 100.646 64.4755 100.235C64.035 100.029 63.5945 99.8236 63.1833 99.5887C62.7428 99.3538 62.3611 99.1482 62.038 98.7664C62.5373 97.3861 63.1833 96.0352 64.0643 94.8605C64.5049 94.2438 65.0335 93.6859 65.5915 93.1866C65.709 93.0985 65.8264 93.0104 65.9145 92.8929C66.032 92.8048 66.1201 92.7167 66.2376 92.6286C66.2963 92.5992 66.355 92.5405 66.4137 92.5112L66.4431 92.4818C66.59 92.3937 66.7368 92.2762 66.8836 92.1881C67.0892 92.1293 67.3829 92.1881 67.5884 92.1881C69.4679 92.2468 71.2594 92.8049 73.0802 93.2747C74.7835 93.7152 76.5161 94.0382 78.3075 94.097C84.9739 94.3319 91.2585 91.6301 97.5725 89.78L97.0733 89.0165C94.0484 89.9269 91.0529 90.9547 87.9987 91.8064C84.2691 92.8342 80.422 93.5684 76.5455 93.0691C75.8406 92.981 75.1065 92.8342 74.431 92.6874C71.9642 91.3365 69.791 89.5157 67.7059 87.6949C65.3272 85.6099 63.0072 83.5247 60.3641 81.7627C57.7798 80.0594 54.6668 79.0609 51.6126 79.9713C50.1443 80.4118 48.8227 81.2341 47.7655 82.3207C47.09 82.9962 46.5615 83.789 45.9154 84.4939C45.1519 85.3455 44.4176 86.1678 43.6541 87.0195C40.7173 90.3086 37.7513 93.6271 34.8145 96.9163C33.5811 98.2965 32.3183 99.7061 31.0849 101.086C30.3801 96.975 28.853 93.0104 26.6798 89.4863C26.0631 88.5172 25.417 87.5481 24.7121 86.6377C28.9998 81.8214 33.1406 76.7996 38.1331 72.6588C40.5999 70.6031 43.3017 68.8117 46.2384 67.4902C49.1164 66.2274 52.2 65.4345 55.3423 65.2289C60.0998 64.9352 64.916 65.7282 69.5267 66.7854C74.8422 68.0188 80.0696 69.7221 85.0033 72.0715C85.5319 72.3064 86.0605 72.5707 86.5597 72.8351L85.62 71.3667C81.7435 69.4872 77.6614 68.0482 73.55 66.8735C72.0229 66.433 70.4664 66.0512 68.91 65.6988C67.8527 58.2689 65.474 51.1914 61.9499 44.5837C61.0102 42.8217 60.0117 41.1183 58.9545 39.415C59.9823 39.3857 61.0102 39.2095 61.9793 38.9745C64.593 38.2991 67.0011 37.0069 69.4093 35.8616C74.3136 33.5122 79.5704 32.0732 84.9739 31.6915C90.3482 31.3097 95.7811 31.9264 100.92 33.5416C101.42 33.7178 101.948 33.894 102.447 34.0702C100.979 40.1786 99.7163 46.3457 98.6591 52.5716C97.6018 58.9149 96.7502 65.2877 96.1335 71.6604C95.8986 73.9804 95.7224 76.3004 95.5462 78.6204C95.8398 78.9434 96.1041 79.2665 96.3684 79.5601C96.7208 74.1566 97.2494 68.7824 97.9249 63.4082C97.9836 63.0264 98.0424 62.6152 98.0717 62.2335C99.6282 64.1717 102.624 62.9383 104.709 63.5256C106.911 64.1423 109.173 65.9044 111.463 64.9646C111.346 65.1995 111.199 65.4345 111.081 65.6988C110.964 65.9044 111.023 66.1981 111.228 66.3155C111.434 66.433 111.728 66.3743 111.845 66.1687C112.139 65.6107 112.432 65.0527 112.726 64.4654C112.755 64.4654 112.755 64.4947 112.785 64.4947C114.811 65.5813 117.16 65.6401 119.246 64.7297C119.627 64.5535 120.009 64.3479 120.362 64.113C120.743 64.7297 121.154 65.3464 121.536 65.9631C121.654 66.1687 121.947 66.2568 122.153 66.1099C122.358 65.9925 122.447 65.7282 122.3 65.4932C121.889 64.8471 121.477 64.2011 121.066 63.555C121.654 63.0557 122.153 62.4684 122.535 61.7929C122.77 62.4684 123.328 63.0557 123.856 63.4669C124.414 63.8486 125.06 63.9661 125.706 63.7312C126.294 63.4962 126.793 63.0557 127.233 62.5859C127.733 62.0572 128.203 61.4699 128.555 60.8238C128.702 60.5889 128.849 60.2658 128.907 59.9428V59.9134C129.877 58.7975 130.464 57.3879 130.552 55.9195C130.552 55.8901 130.552 55.8901 130.552 55.8607C130.699 55.479 130.787 55.0972 130.846 54.686C130.846 54.5686 130.875 54.4511 130.846 54.3336C131.227 53.9519 131.55 53.5114 131.727 52.9828C132.05 51.72 131.404 50.604 130.405 49.9579ZM11.5263 86.1385C11.585 85.9623 12.0842 84.4352 12.3485 84.9051C12.4954 85.1694 12.2898 85.5511 12.1723 85.7861C12.0255 86.0797 11.8787 86.3734 11.7025 86.6671C11.585 86.8433 11.4675 87.0488 11.3207 87.225C11.3794 86.8433 11.4381 86.4909 11.5263 86.1385ZM40.0125 128.369C40.0125 128.369 40.0125 128.339 40.0125 128.369C40.0713 128.574 40.0419 128.927 40.0125 129.22C39.9244 129.749 39.7776 130.278 39.5426 130.777C39.4252 129.925 39.572 129.073 40.0125 128.369ZM56.6638 134.095C56.6344 134.683 56.4289 135.299 56.0471 135.74C55.6947 136.151 55.2542 136.415 54.7549 136.621C53.4921 136.298 44.4764 138.588 43.1548 138.706C43.5366 136.298 43.0667 134.36 41.9214 132.568C43.6835 130.63 45.4161 128.662 47.1781 126.724C47.3837 126.842 47.5893 126.93 47.7949 127.047C49.6157 128.016 51.407 129.162 53.4921 129.397C54.4025 129.514 55.2836 129.397 56.1059 129.073C56.1352 130.747 56.7813 132.48 56.6638 134.095ZM71.4943 91.8944C71.1125 91.8063 70.7308 91.6889 70.349 91.6301C69.7029 91.4833 69.0568 91.3658 68.4107 91.3071C68.8806 91.1015 69.3799 90.896 69.8498 90.6904C70.4077 91.1015 70.9363 91.5126 71.4943 91.8944ZM44.6819 93.0985C44.77 90.7491 44.9756 88.341 45.5042 86.021C45.9447 85.5217 46.3853 85.0518 46.7964 84.5526C47.3838 83.8771 47.883 83.143 48.5585 82.5263C50.8491 80.3825 54.0208 79.9126 56.8988 80.9111C58.4259 81.4397 59.8061 82.3794 61.1276 83.3192C62.4198 84.2589 63.6239 85.2868 64.8279 86.3146C66.2376 87.548 67.6178 88.8108 69.0568 89.9855C68.6457 90.1617 68.2639 90.338 67.8821 90.5142C67.4122 90.7197 66.9718 90.9547 66.5312 91.219C66.5019 91.219 66.4725 91.219 66.4431 91.2483C66.2376 91.3364 66.0614 91.4833 65.8852 91.6301C65.5328 91.8944 65.1803 92.1588 64.8279 92.4524C64.27 92.9517 63.8 93.4803 63.3302 94.0676C63.3008 94.097 63.3008 94.1264 63.2714 94.1264C63.154 94.3026 63.0071 94.4788 62.8897 94.655C62.8603 94.6843 62.831 94.7431 62.8016 94.7724C62.8016 94.8018 62.7722 94.8018 62.7722 94.8311C62.6547 94.978 62.5666 95.1542 62.4785 95.301C62.3611 95.4773 62.2729 95.6534 62.1555 95.859C62.1261 95.9177 62.0968 95.9471 62.0674 96.0058C61.7444 96.5932 61.4801 97.21 61.2451 97.8267C61.157 98.0322 61.0689 98.2378 61.0396 98.4433C60.7459 99.2656 60.5403 100.088 60.3641 100.94C59.2482 106.431 60.4229 112.011 60.4522 117.561C60.4816 119.852 60.3054 122.143 59.4244 124.287C58.7489 125.99 57.5448 127.693 55.7241 128.281C53.8152 128.927 51.9063 128.192 50.203 127.311C48.4703 126.401 46.7377 125.256 44.7994 124.874C44.1534 124.727 43.4779 124.698 42.8024 124.815C44.3589 120.028 44.7701 114.977 44.7994 109.955C44.9169 104.346 44.5057 98.737 44.6819 93.0985ZM9.49993 84.6407C9.73487 85.0518 9.7642 85.7567 9.82293 86.1091C9.88167 86.4615 9.94043 86.8139 9.99916 87.1663C9.85233 87.0489 9.73487 86.902 9.64677 86.7258C9.265 86.0797 9.23563 85.3161 9.49993 84.6407ZM24.5653 87.9886C26.298 90.3967 27.7076 93.0691 28.7061 95.859C28.0013 96.8869 27.5314 98.1203 26.9147 99.1775C26.3273 100.147 25.5345 100.998 24.3304 101.057C23.42 101.116 22.539 100.763 21.7167 100.411C20.8063 99.9998 19.8666 99.5887 18.9562 99.1775C17.1354 98.3552 15.3146 97.5623 13.4938 96.74C12.5835 96.3289 11.6731 95.9177 10.7627 95.5066C10.0872 95.2129 9.38247 94.9193 8.76575 94.4788C10.2635 93.5684 11.3207 92.3056 12.1723 90.661L12.2604 90.6317C12.2604 90.6023 12.231 90.6022 12.231 90.5729C12.8478 90.4554 13.4352 90.3086 14.0519 90.1912C17.5466 89.4864 21.0706 88.7522 24.5653 87.9886ZM40.1888 53.6876C39.8657 53.5407 39.8657 53.2764 40.13 53.0708C40.4824 52.8359 40.9523 52.7185 41.3635 52.6597C41.804 52.5716 42.2738 52.5422 42.7143 52.5716C42.8024 52.5716 42.8905 52.5423 42.9493 52.5129C42.9493 52.5129 42.9493 52.5129 42.9787 52.5129C43.3604 52.4542 43.6835 52.6891 44.0065 52.8359C44.0946 52.8947 44.3296 52.9828 44.3589 53.1002C44.3589 53.159 44.2708 53.1883 44.1827 53.2177C44.124 53.247 44.0359 53.2764 43.9771 53.3058C43.1255 53.2764 42.0976 53.3645 41.3047 53.7757C40.9229 53.805 40.5118 53.8344 40.1888 53.6876ZM42.685 55.244C42.5969 55.3028 42.5088 55.3615 42.4207 55.4496C42.0976 55.479 41.7746 55.4496 41.4809 55.3321C41.1579 55.1853 41.1579 54.921 41.4222 54.7154C41.4516 54.6861 41.5103 54.686 41.5396 54.6567C42.0095 54.6273 42.4794 54.5686 42.9493 54.4805C43.3311 54.4217 43.7128 54.3336 44.0946 54.2162C44.1533 54.2162 44.2414 54.1868 44.2708 54.1574C44.2708 54.1574 44.2708 54.1574 44.3002 54.1574C44.682 54.0987 45.005 54.3336 45.3281 54.4805C45.3868 54.5098 45.5042 54.5686 45.5923 54.6273C44.6232 54.5979 43.4779 54.7154 42.685 55.244ZM43.1255 56.6243C42.9493 56.5362 42.8612 56.4187 42.8906 56.2719C43.3604 56.2425 43.8303 56.1838 44.2708 56.0957C44.7701 56.0076 45.2987 55.8901 45.7686 55.6845C45.9448 55.6258 46.0916 55.5377 46.2384 55.4202C46.5027 55.479 46.7376 55.6258 46.9726 55.7433C47.0607 55.802 47.2956 55.8901 47.325 56.0076C47.325 56.0663 47.2369 56.0957 47.1488 56.125C47.0901 56.1544 47.0314 56.1838 46.9433 56.2132C46.1797 56.2132 45.2986 56.3306 44.6232 56.6537C44.5645 56.6537 44.5057 56.6537 44.4764 56.6537C44.0652 56.7418 43.5073 56.8005 43.1255 56.6243ZM46.0916 58.357C45.6804 58.3863 45.1518 58.4451 44.77 58.2689C44.447 58.122 44.447 57.8577 44.7113 57.6522C44.7701 57.6228 44.8288 57.5934 44.8876 57.564C45.24 57.5347 45.563 57.5053 45.9154 57.4172C46.2972 57.3585 46.6789 57.2704 47.0607 57.1235C47.1488 57.1235 47.2369 57.1235 47.325 57.1235C47.4131 57.1235 47.5012 57.0942 47.5599 57.0648C47.5599 57.0648 47.56 57.0648 47.5893 57.0648C47.9711 57.0061 48.2941 57.241 48.6172 57.3879C48.7053 57.4466 48.9402 57.5347 48.9696 57.6522C48.9696 57.7109 48.8814 57.7402 48.7933 57.7696C47.9711 58.1807 47.002 58.3276 46.0916 58.357ZM66.7074 59.6785C67.1773 61.5874 67.5297 63.5256 67.8234 65.4639C64.6223 64.7884 61.3919 64.3479 58.1322 64.2304C56.1058 64.1717 54.0795 64.2892 52.0825 64.6416C51.1134 62.5859 49.9387 60.6183 48.5291 58.8269C48.7053 58.7681 48.8815 58.7094 49.0577 58.6506C49.4688 58.5038 49.8506 58.1808 49.8506 57.7109C49.8506 57.1235 49.3513 56.8005 48.8815 56.5656C48.6465 56.4481 48.4116 56.3306 48.1767 56.2719C48.1767 56.2131 48.206 56.1544 48.206 56.0663C48.206 55.479 47.7068 55.1559 47.2369 54.921C47.002 54.8035 46.767 54.6861 46.5321 54.6273C46.444 54.1281 46.0035 53.8344 45.5923 53.5995C45.4455 53.5114 45.3281 53.4526 45.1812 53.3939C45.2106 53.3058 45.2399 53.2177 45.2399 53.1002C45.2399 52.5129 44.7407 52.1898 44.2708 51.9549C43.7716 51.6906 43.3017 51.5144 42.7437 51.6319C42.7144 51.6319 42.685 51.6612 42.6556 51.6612C42.0683 51.6319 41.3928 51.6612 40.7467 51.8374C39.6601 51.162 38.5148 50.5159 37.3401 49.9873C35.2844 49.0475 33.1406 48.3427 30.9087 47.9316C32.8176 44.1432 36.0773 41.1771 39.9244 39.415C41.9214 38.5046 44.0946 37.9173 46.2971 37.7705C47.3837 37.6824 48.4997 37.7118 49.5863 37.8292C50.9666 37.9761 52.3175 38.3284 53.6683 38.6515C55.0192 38.9745 56.3701 39.2682 57.7504 39.3563C61.7443 45.6703 64.9454 52.3954 66.7074 59.6785ZM77.867 17.5364C78.1019 17.507 78.3369 17.4777 78.5719 17.4483C78.2782 17.7713 77.9845 18.065 77.6908 18.388C77.6615 18.0944 77.7495 17.8007 77.867 17.5364ZM86.824 30.6636C84.3278 30.7223 81.861 31.016 79.4235 31.4859C79.5997 30.135 79.8053 28.7841 79.9815 27.4332C80.0402 27.0808 80.0696 26.7577 80.1283 26.4053C80.1577 26.1998 79.9815 26.0529 79.8053 25.9942C77.7789 25.26 75.7526 24.5258 73.7262 23.7916C74.9009 22.5582 76.0756 21.3248 77.2503 20.0914C77.6615 20.7668 78.3075 21.2661 79.0711 21.5304C81.0387 22.2058 83.0944 21.0899 84.0341 19.3278C84.2984 18.8286 83.5349 18.3881 83.2706 18.8873C82.5364 20.2382 81.0387 21.1779 79.4822 20.7374C78.7774 20.5319 78.19 20.0913 77.867 19.4159C78.0138 19.2691 78.1607 19.0929 78.3075 18.946C79.2179 18.0063 80.099 17.0372 81.0094 16.0974C81.861 15.2164 82.6832 14.2766 83.5936 13.4544C84.5334 12.6321 85.6494 12.0153 86.8534 11.8098C86.8828 11.8098 86.9122 11.7804 86.9415 11.7804C88.3218 11.986 89.4377 12.2209 89.9957 14.4528C90.4069 16.1268 89.8489 18.2706 91.934 19.8564H92.0221C91.8753 19.9151 91.7284 19.9739 91.5816 20.062C91.3466 19.9739 91.0529 20.0326 90.9354 20.3263C90.4362 21.7065 89.1734 22.7344 87.6463 22.6757C86.178 22.5876 85.0326 21.3248 85.2382 19.8564C85.2676 19.6215 85.0033 19.4159 84.7977 19.4159C84.5334 19.4159 84.3866 19.6215 84.3572 19.8564C84.0929 21.7947 85.6787 23.4098 87.5289 23.5567C89.3203 23.7035 90.8474 22.5582 91.5816 21.0311C91.611 21.0311 91.6697 21.0017 91.699 21.0017C91.8752 20.9136 92.0514 20.8549 92.1983 20.7668C92.3157 20.7962 92.4626 20.7962 92.58 20.7374C93.7254 20.0326 95.3993 20.2969 96.251 21.3248C97.1026 22.3526 97.0732 24.056 96.1628 25.0544C95.2525 26.0529 93.5492 26.2291 92.4626 25.4656C92.257 25.3187 91.9927 25.3775 91.8459 25.583C91.699 25.7886 91.7577 26.0529 91.9633 26.1997C92.4038 26.5228 92.9325 26.699 93.4905 26.7871C93.9603 28.2848 94.4595 29.7826 94.9882 31.2803C92.3451 30.7811 89.5845 30.6049 86.824 30.6636ZM124.502 49.0475C125.002 48.7539 125.53 48.4895 126.059 48.3133C126.617 48.1078 127.263 47.9022 127.85 48.1371C129.113 48.6364 128.114 50.1929 127.645 50.8977C126.94 51.9255 126.147 52.9534 125.207 53.7757C125.148 53.805 125.002 53.9519 125.002 53.9519C124.943 53.9225 124.943 53.6876 124.943 53.6288C124.943 53.3058 124.943 52.9534 125.002 52.6303C125.119 51.9549 125.383 51.3382 125.736 50.7802C126.059 50.3103 125.295 49.8698 124.972 50.3397C124.796 50.604 124.649 50.8683 124.532 51.162C124.385 51.2207 124.267 51.2795 124.15 51.3676C124.121 50.8977 124.091 50.3984 124.032 49.9285C124.003 49.7523 123.915 49.6349 123.798 49.5762C124.032 49.3412 124.267 49.1944 124.502 49.0475ZM111.845 64.0249C111.728 63.9074 111.551 63.8487 111.346 63.9661C109.231 65.1702 106.823 63.2026 104.826 62.6446C103.563 62.2922 102.33 62.4978 101.038 62.4978C100.098 62.4978 98.9821 62.2922 98.4535 61.4112C98.3654 61.2643 98.2186 61.2056 98.0717 61.2056C98.8353 55.5671 99.7751 49.9873 100.891 44.4075C101.214 42.7335 101.566 41.089 101.948 39.415C102.829 39.8555 103.358 40.8247 103.681 41.7351C104.092 42.8804 104.298 44.1138 104.826 45.2298C105.384 46.3751 106.295 47.1387 107.469 47.5792C108.703 48.049 110.024 48.2252 111.258 48.6364C112.286 48.9888 113.284 49.4293 114.224 49.9579C112.256 49.9873 110.318 50.046 108.35 50.0754C108.233 50.0754 108.145 50.1048 108.086 50.1635C107.88 50.1048 107.645 50.1929 107.616 50.4572C107.176 53.2764 107.91 56.0957 108.644 58.7975C108.967 60.0309 109.378 61.2643 110.142 62.2922C110.612 62.9383 111.199 63.4963 111.845 63.9661C111.874 63.9661 111.874 63.9955 111.845 64.0249ZM122.916 57.7696C122.505 60.0015 121.654 62.116 119.686 63.3788C117.924 64.5241 115.751 64.759 113.783 63.9955C112.843 63.6137 111.992 63.0264 111.316 62.2922C110.523 61.4405 110.054 60.4127 109.731 59.2967C109.319 57.9165 108.967 56.5068 108.703 55.0972C108.438 53.7169 108.292 52.3073 108.468 50.927C113.372 50.8389 118.276 50.7508 123.21 50.6627H123.239C123.445 53.0121 123.357 55.4202 122.916 57.7696ZM126.646 61.7929C126.147 62.3509 125.295 63.2613 124.473 62.8502C124.121 62.674 123.651 62.2335 123.386 61.7636C123.915 62.116 124.59 62.1454 125.207 62.0573C125.824 61.9692 126.441 61.7342 126.999 61.4112C126.881 61.5286 126.764 61.6755 126.646 61.7929ZM125.912 60.9413C124.972 61.2937 123.445 61.4993 123.416 60.0896C123.416 59.7666 123.504 59.4436 123.621 59.1205C123.68 59.238 123.768 59.3261 123.886 59.4142C124.59 60.0309 125.56 59.9722 126.411 59.7079C127.351 59.4142 128.203 58.915 128.907 58.2395C128.261 59.4436 127.175 60.442 125.912 60.9413ZM129.23 56.4481C128.672 57.4172 127.791 58.1807 126.793 58.6506C126.235 58.8856 125.53 59.1205 124.943 58.9737C124.297 58.8269 124.15 58.2689 124.355 57.6815C124.385 57.5934 124.444 57.5053 124.473 57.4172C125.06 57.3878 125.648 57.2997 126.147 57.1529C127.292 56.8005 128.32 56.1838 129.289 55.5083C129.465 55.3909 129.642 55.2734 129.788 55.1559C129.642 55.5965 129.465 56.0369 129.23 56.4481ZM130.904 52.3073C130.816 53.3058 129.847 54.04 129.084 54.5686C128.291 55.1266 127.498 55.6552 126.617 56.037C125.853 56.36 124.943 56.5949 124.032 56.5656C124.121 55.8314 124.179 55.0678 124.209 54.3043C124.238 54.363 124.267 54.4218 124.297 54.4511C124.473 54.7154 124.796 54.8623 125.119 54.8035C125.53 54.7154 125.824 54.4218 126.088 54.1281C126.646 53.5701 127.175 52.9827 127.645 52.3367C128.085 51.7787 128.673 51.0445 129.025 50.2516C129.172 50.3103 129.319 50.369 129.465 50.4278C130.229 50.8096 130.963 51.4263 130.904 52.3073ZM39.6014 133.155C39.5133 133.155 39.4546 133.126 39.4252 133.067C39.3958 133.009 39.3958 133.009 39.3958 133.038C39.3958 133.038 39.3958 133.067 39.3958 133.097C39.3958 133.126 39.3371 133.244 39.3078 133.332C39.1903 133.596 39.1315 133.86 39.2196 134.125C39.3077 134.389 39.5427 134.536 39.7776 134.653C39.9244 134.712 40.1006 134.741 40.2181 134.829C40.453 135.035 40.5412 135.387 40.4825 135.681C40.3943 136.18 40.0713 136.621 39.7776 137.003C39.6308 137.208 39.7482 137.502 39.9244 137.619C40.1594 137.737 40.3943 137.649 40.5412 137.473C40.8936 136.973 41.246 136.445 41.3341 135.828C41.4222 135.27 41.2753 134.712 40.8936 134.271C40.7174 134.066 40.4531 133.948 40.1888 133.86C40.1007 133.831 40.0125 133.802 39.9832 133.772C40.0419 133.802 39.9832 133.89 40.0125 133.772C40.0419 133.714 40.0713 133.625 40.1007 133.567C40.3062 133.038 40.1888 132.363 39.5133 132.274C39.2784 132.245 39.0728 132.509 39.0728 132.715C39.1609 132.95 39.3665 133.126 39.6014 133.155ZM39.3078 131.951C38.045 132.363 37.0465 133.39 36.6647 134.683C36.606 134.918 36.7528 135.182 36.9584 135.211C37.1933 135.27 37.4282 135.152 37.4869 134.918C37.5163 134.859 37.5164 134.771 37.5457 134.712C37.5457 134.683 37.575 134.653 37.575 134.624C37.575 134.624 37.6338 134.506 37.575 134.595C37.6338 134.477 37.6925 134.36 37.7513 134.242C37.81 134.125 37.8981 134.007 37.9862 133.89C38.045 133.802 37.9568 133.948 38.0156 133.86C38.0449 133.831 38.0743 133.802 38.0743 133.772C38.133 133.714 38.1624 133.655 38.2211 133.625C38.3092 133.537 38.4267 133.42 38.5148 133.361C38.5148 133.361 38.6029 133.273 38.5736 133.332C38.5148 133.361 38.6029 133.302 38.6029 133.302C38.6616 133.273 38.7204 133.214 38.7791 133.185C38.8966 133.097 39.0141 133.038 39.1609 132.979C39.1903 132.95 39.2196 132.95 39.249 132.921C39.3371 132.891 39.1903 132.95 39.2784 132.921C39.3371 132.891 39.4252 132.862 39.4839 132.862C39.6895 132.803 39.8657 132.568 39.7776 132.333C39.7776 132.04 39.5427 131.863 39.3078 131.951Z" fill="#211F1C"/>
<path d="M136.132 65.7869H88.1456C85.4438 65.7869 83.8287 68.7823 85.297 71.0436L105.12 101.439C105.854 102.555 105.854 104.023 105.12 105.168L85.297 135.564C83.8287 137.825 85.4438 140.82 88.1456 140.82H136.132C138.834 140.82 140.449 137.825 138.98 135.564L119.158 105.168C118.423 104.053 118.423 102.584 119.158 101.439L138.98 71.0436C140.449 68.7823 138.834 65.7869 136.132 65.7869Z" fill="white"/>
<path d="M135.545 135.152C134.693 133.39 133.753 131.511 132.05 130.571C130.17 129.543 127.909 129.896 125.795 130.189C121.859 130.777 117.865 131.1 113.871 131.247C113.813 123.993 113.96 117.884 113.871 110.513C113.842 107.283 115.487 103.025 117.337 100.293C119.04 98.4727 120.244 96.1527 121.39 93.9207C121.713 93.304 122.036 92.5699 121.683 91.9532C121.301 91.2777 120.362 91.1895 119.598 91.307C117.924 91.5713 116.368 92.3349 114.752 92.8635C113.137 93.4215 111.346 93.7445 109.76 93.0985C108.585 92.6286 107.646 91.6888 106.706 90.8665C105.737 90.0442 104.621 89.2513 103.358 89.1926C102.095 89.1338 100.715 90.1617 100.862 91.4245C100.92 91.9825 101.244 92.5111 101.596 92.981C103.593 95.8884 105.59 98.7957 107.616 101.703C109.055 103.876 111.463 106.872 111.669 110.748C111.904 115.241 112.256 124.287 112.403 128.78C112.432 129.925 112.256 130.718 112.374 131.276C108.115 131.364 103.887 131.158 99.6577 130.747C97.9251 130.571 96.163 130.336 94.4009 130.571C92.6683 130.806 90.9062 131.54 89.849 132.921L90.2895 133.097C89.0855 132.862 87.9402 134.183 88.0576 135.417C88.1751 136.65 89.2029 137.649 90.3482 138.089C91.4936 138.53 92.7857 138.53 94.0191 138.53C97.2202 138.53 100.392 138.53 103.593 138.5C113.431 138.471 123.269 138.471 133.107 138.442C134.164 138.442 135.456 138.295 135.868 137.296C136.191 136.591 135.868 135.828 135.545 135.152Z" fill="#4FC9DA"/>
<path d="M136.132 141.261H88.1457C86.7067 141.261 85.4439 140.497 84.7685 139.235C84.093 137.972 84.1517 136.503 84.9153 135.299L104.738 104.904C105.384 103.935 105.384 102.643 104.738 101.674L84.9153 71.2786C84.1224 70.0745 84.0636 68.6062 84.7685 67.3434C85.4439 66.0806 86.7067 65.317 88.1457 65.317H136.132C137.571 65.317 138.834 66.0806 139.509 67.3434C140.185 68.6062 140.126 70.0745 139.362 71.2786L119.539 101.674C118.893 102.643 118.893 103.935 119.539 104.904L139.362 135.299C140.155 136.503 140.214 137.972 139.509 139.235C138.804 140.497 137.542 141.261 136.132 141.261ZM88.1457 66.2274C87.0297 66.2274 86.0607 66.8148 85.532 67.7839C85.0034 68.753 85.0621 69.8983 85.6495 70.8087L105.472 101.204C106.295 102.467 106.295 104.141 105.472 105.403L85.6495 135.799C85.0328 136.709 85.0034 137.854 85.532 138.823C86.0607 139.793 87.0297 140.38 88.1457 140.38H136.132C137.248 140.38 138.217 139.793 138.746 138.823C139.274 137.854 139.216 136.709 138.628 135.799L118.805 105.403C117.983 104.141 117.983 102.467 118.805 101.204L138.628 70.8087C139.245 69.8983 139.274 68.753 138.746 67.7839C138.217 66.8148 137.248 66.2274 136.132 66.2274H88.1457ZM87.7933 70.2507C93.9604 70.1626 100.157 70.0745 106.324 69.957C112.491 69.8689 118.688 69.7808 124.855 69.6634C128.32 69.6046 131.786 69.5459 135.251 69.5165C135.809 69.5165 135.809 68.6355 135.251 68.6355C129.084 68.7236 122.887 68.8117 116.72 68.9292C110.553 69.0466 104.357 69.1054 98.1894 69.2228C94.724 69.2816 91.2587 69.3403 87.7933 69.3697C87.2353 69.3991 87.2353 70.2801 87.7933 70.2507Z" fill="#211F1C"/>
</svg>
