<svg width="298" height="289" viewBox="0 0 298 289" fill="none" xmlns="http://www.w3.org/2000/svg">
<path d="M91.7052 172.611C80.4022 185.642 57.6522 162.676 43.4694 152.812C29.2866 142.949 16.3998 126.679 20.5034 109.904C25.543 89.3139 53.4766 78.8748 54.3405 57.7086C54.7005 48.1334 49.1569 39.4941 46.2052 30.4229C43.2534 21.3517 44.1894 9.04076 52.9007 5.15309C55.4924 4.00119 58.4441 3.7852 61.3239 3.56922C74.7148 2.70529 88.1056 1.76936 101.496 0.905436C119.135 -0.246466 137.349 -1.32639 153.98 4.5771C177.594 13.0004 194.152 34.0226 215.031 48.0614C217.91 50.0052 221.006 51.8771 224.462 52.021C234.829 52.453 239.365 38.7022 248.436 33.5906C257.291 28.5511 269.458 33.4467 274.642 42.2299C279.825 51.0132 279.321 62.1722 276.009 71.8194C272.698 81.4665 266.938 90.0338 261.899 98.889C256.859 107.744 252.467 117.391 252.251 127.543C252.035 138.558 256.859 149.069 262.043 158.788C267.226 168.507 119.783 140.213 91.7052 172.611Z" fill="#F8F6F2"/>
<path d="M15.1761 268.218C18.9197 258.499 11.5765 246.764 16.1841 237.477C19.9998 229.774 29.9348 227.758 36.5582 222.286C41.0218 218.543 43.9017 213.359 47.2854 208.608C50.6691 203.856 55.1326 199.392 60.8921 198.384L60.8202 197.952C65.1399 190.753 71.4032 184.058 74.571 178.226C77.0187 173.834 57.2924 163.827 57.2924 163.827C71.9072 149.357 105.528 122.863 124.895 115.879C125.615 105.8 126.55 81.0345 126.55 81.0345C118.847 79.0906 103.297 74.987 103.297 74.987C112.368 63.756 122.231 50.7971 132.454 38.0541C135.838 33.8065 140.373 30.0629 145.557 28.623L162.043 25.2393L169.171 55.4767C173.203 53.6048 178.458 54.3968 181.626 57.5645C185.369 61.2362 185.801 67.7876 182.634 71.9633C180.618 74.627 177.378 76.0669 174.066 76.2109L174.138 76.4989C179.682 89.6017 184.722 100.473 190.337 111.848L190.409 111.56C208.768 119.695 225.974 126.751 242.749 137.982C259.451 149.141 274.498 163.539 283.569 181.538C283.569 181.538 272.122 178.082 261.467 182.402C262.259 183.266 262.907 184.202 263.483 185.21C266.003 189.601 266.434 194.857 267.874 199.68C273.13 217.103 291.272 228.262 296.672 245.684C296.672 245.684 288.177 264.691 229.07 274.194C227.126 274.482 227.126 270.81 226.694 269.01C226.334 267.21 226.622 265.267 227.99 263.899C228.566 263.323 229.286 262.963 230.15 262.675C228.782 261.379 227.486 260.011 226.478 258.499C224.102 255.26 222.878 251.372 224.102 247.844C224.894 245.612 226.55 243.74 227.99 241.797C235.981 230.926 220.574 227.758 212.799 221.206C210.639 219.335 208.767 216.959 207.472 214.511C204.016 218.687 199.624 222.142 194.729 224.518C190.481 227.83 186.017 229.486 182.418 230.134C181.842 230.35 181.194 230.566 180.546 230.71L180.834 230.35C180.618 230.35 180.33 230.422 180.114 230.422L175.506 203.424C175.506 203.424 149.805 204.504 147.933 177.002C147.645 172.539 148.077 168.867 149.013 165.699C141.021 164.691 134.038 164.979 127.774 165.627C126.191 166.851 124.535 168.507 123.167 170.595C123.095 171.171 122.807 171.747 122.375 172.251C122.231 172.395 122.159 172.467 122.015 172.611C119.639 177.362 118.487 184.058 120.719 193.561C122.663 201.912 126.19 208.104 130.15 212.783C130.294 212.711 130.366 212.567 130.51 212.495L130.366 213.071C139.221 223.366 150.021 225.742 150.021 225.742L154.052 254.468L90.2656 240.069L98.6889 206.736C96.5291 206.448 94.3692 205.872 92.2094 205.224C92.4254 206.592 92.4255 208.032 92.2815 209.471C91.8495 212.783 90.4097 215.951 88.1779 218.399H87.6019C87.2419 235.605 85.2981 252.812 81.6984 269.586C80.2586 276.354 78.2427 283.625 72.6272 287.657C72.6272 287.657 61.972 266.994 37.4941 277.074C13.0162 287.153 1.20932 277.074 1.20932 277.074C7.25681 277.578 13.0882 273.762 15.1761 268.218ZM106.32 177.002L108.048 170.163C107.76 170.091 107.4 169.947 107.112 169.875C103.728 169.083 99.6249 169.587 97.681 172.467C97.609 172.611 97.537 172.755 97.465 172.899C100.561 173.979 103.513 175.346 106.32 177.002ZM101.425 196.441C97.393 194.785 93.1454 193.417 89.0418 192.265C92.4255 193.489 97.105 195.793 100.993 198.24L101.425 196.441Z" fill="white"/>
<path d="M167.371 149.501L165.067 126.535C165.067 126.535 183.066 129.486 196.456 143.237C195.52 143.453 194.513 143.741 193.577 144.029C190.913 144.821 187.961 145.613 185.657 147.341C183.714 148.853 182.418 151.373 183.065 153.892C183.785 156.412 186.377 157.492 188.825 157.348C191.705 157.204 194.441 155.836 197.104 154.828C199.336 153.964 201.64 153.244 204.088 153.46C204.592 154.396 205.096 155.26 205.528 156.268C204.736 156.628 203.944 156.988 203.152 157.348C199.336 159.292 195.736 161.74 192.497 164.691C189.905 167.067 184.577 171.675 188.465 175.202C189.329 175.922 190.265 176.354 191.273 176.498C189.977 178.01 188.825 179.882 189.257 181.97C189.689 184.13 191.777 185.354 193.865 185.282C196.312 185.21 198.616 183.698 200.776 182.618C202 182.042 203.224 181.466 204.448 180.962C204.232 181.106 203.944 181.25 203.728 181.466C202.432 182.33 201.208 183.266 200.056 184.346C199.264 185.138 198.4 186.002 198.112 187.081C197.104 190.465 201.928 190.897 204.016 190.969C206.176 191.041 208.263 190.825 210.351 190.393C210.135 192.841 210.999 195.721 209.487 197.377C208.263 198.744 205.96 199.608 205.384 201.624C204.736 203.928 206.536 208.32 205.672 210.263C198.976 225.454 187.025 230.422 179.898 230.782L175.29 203.784C175.29 203.784 149.588 204.864 147.717 177.362C146.061 152.38 167.371 149.501 167.371 149.501Z" fill="#F06445" fill-opacity="0.7"/>
<path d="M212.655 190.393C212.655 190.177 212.655 189.961 212.727 189.673H212.799C212.727 189.889 212.727 190.105 212.655 190.393Z" fill="#211F1C"/>
<path d="M205.816 141.365C198.544 133.158 189.041 127.039 178.53 123.799C178.314 123.727 178.17 123.655 178.098 123.511C174.642 123.943 171.187 124.735 167.875 125.815C178.962 129.558 189.257 135.318 198.256 142.733C197.392 142.949 196.456 143.165 195.592 143.381C186.521 136.11 176.082 130.566 164.923 127.183C164.635 127.111 164.491 126.967 164.347 126.823C163.555 126.535 163.339 125.095 164.419 124.735C168.955 123.151 173.562 121.927 178.386 121.423C178.746 121.351 179.034 121.567 179.25 121.855C190.337 125.311 200.344 131.862 207.903 140.645C208.047 140.789 208.119 141.005 208.191 141.149C207.471 141.149 206.608 141.221 205.816 141.365Z" fill="#211F1C"/>
<path d="M176.37 207.456C179.322 206.232 181.266 203.496 182.993 200.976C183.929 199.68 184.793 198.312 185.801 197.088C186.737 195.865 187.889 194.497 189.185 193.705C190.625 192.841 192.641 192.697 193.649 194.353C194.585 195.865 193.937 197.88 193.649 199.464C192.857 203.208 191.705 206.88 190.121 210.407C188.321 214.511 185.945 218.255 183.137 221.782C182.274 222.862 180.762 221.35 181.625 220.27C186.089 214.727 189.257 208.248 190.985 201.408C191.417 199.824 191.921 198.024 191.921 196.369C191.993 194.281 190.049 195.577 189.257 196.369C187.169 198.384 185.657 200.976 183.929 203.28C182.058 205.872 179.898 208.248 176.874 209.471C176.298 209.687 175.722 209.255 175.578 208.751C175.434 208.176 175.866 207.672 176.37 207.456Z" fill="#211F1C"/>
<path d="M163.987 168.651C165.355 166.851 166.579 164.979 167.803 163.035C173.13 154.324 176.658 144.605 178.242 134.526C178.458 133.158 180.546 133.734 180.33 135.102C179.034 143.669 176.226 151.948 172.266 159.58C170.251 163.395 167.947 167.067 165.355 170.523C164.275 171.891 162.619 173.906 163.555 175.778C163.843 176.354 164.419 176.93 165.139 176.786C166.003 176.642 166.507 175.562 166.867 174.842C168.091 172.683 169.243 170.523 170.395 168.435C171.403 166.563 172.338 164.475 173.706 162.819C174.786 161.452 176.442 160.372 178.242 160.804C180.042 161.235 181.122 162.963 181.266 164.691C181.482 166.779 180.402 168.723 179.466 170.523C178.386 172.611 177.378 174.698 176.442 176.858C174.57 181.178 173.058 185.641 171.907 190.177C171.691 191.041 171.403 191.905 171.547 192.841C171.691 193.993 172.555 193.561 173.275 192.985C175.074 191.401 176.658 189.529 178.17 187.657C181.266 183.842 183.786 179.594 185.729 175.13C186.305 173.834 188.177 174.986 187.601 176.21C185.729 180.314 183.426 184.274 180.69 187.873C179.322 189.673 177.81 191.473 176.226 193.129C174.93 194.497 173.058 196.656 170.899 195.505C169.315 194.641 169.243 192.697 169.531 191.113C169.891 188.809 170.683 186.505 171.403 184.346C172.914 179.666 174.786 175.058 177.018 170.667C177.882 168.867 179.61 166.635 179.106 164.547C178.962 163.827 178.458 163.107 177.738 162.963C176.802 162.819 176.01 163.611 175.506 164.259C174.93 164.979 174.498 165.771 174.066 166.563C173.418 167.787 172.699 169.011 172.051 170.235C170.899 172.395 169.747 174.626 168.451 176.714C167.515 178.298 165.859 179.594 163.915 178.874C162.259 178.226 161.108 176.354 161.252 174.554C161.18 172.179 162.691 170.379 163.987 168.651Z" fill="#211F1C"/>
<path d="M208.479 196.009C208.695 194.209 208.767 192.337 208.695 190.537C209.415 190.465 210.135 190.321 210.855 190.177C210.927 191.905 210.855 193.633 210.711 195.361" fill="#211F1C"/>
<path d="M206.175 212.927C194.656 228.766 184.577 230.062 180.761 231.213C179.394 231.573 178.818 229.486 180.185 229.126C191.344 225.886 200.56 217.751 205.239 207.312" fill="#211F1C"/>
<path d="M124.102 169.227C123.958 168.147 123.526 167.067 122.878 166.203C121.007 163.755 117.767 162.747 114.959 161.883C113.375 161.379 111.791 160.947 110.207 160.587L117.119 133.302L128.638 136.182L134.973 162.027C134.973 162.027 128.71 163.395 124.102 169.227Z" fill="#9ED5F0"/>
<path d="M118.271 185.713C116.831 184.057 115.247 182.473 113.591 181.033C111.359 179.162 108.984 177.434 106.392 175.994L107.616 171.242C109.92 171.89 112.151 173.042 114.383 173.762C116.471 174.482 119.063 175.058 121.223 174.266C119.855 177.722 119.135 182.185 119.711 187.801C119.279 187.153 118.775 186.361 118.271 185.713Z" fill="#9ED5F0"/>
<path d="M105.312 208.032C106.536 207.888 107.976 207.528 108.696 206.448C109.272 205.584 109.056 204.504 108.624 203.64C107.4 201.408 104.88 199.752 102.72 198.384C104.376 199.104 106.032 199.824 107.616 200.688C109.704 201.768 111.935 202.992 114.383 202.488C116.615 202.056 118.055 200.112 117.839 197.88C117.695 196.368 116.831 195.073 115.823 193.849C117.263 193.633 118.487 192.985 119.423 191.545C119.711 191.113 119.855 190.681 119.927 190.249C120.071 191.329 120.287 192.481 120.575 193.633C126.91 220.63 149.876 225.814 149.876 225.814L153.908 254.54L90.1213 240.141L98.2566 207.888C100.632 208.319 102.936 208.391 105.312 208.032Z" fill="#4FC9DA" fill-opacity="0.7"/>
<path d="M155.924 220.703C156.284 220.199 155.996 219.551 155.564 219.191C155.06 218.831 154.412 219.119 154.052 219.551C152.684 221.639 151.244 223.654 149.876 225.742C149.516 226.246 149.804 226.894 150.236 227.254C150.74 227.614 151.388 227.326 151.748 226.894C153.116 224.806 154.484 222.791 155.924 220.703ZM120.287 222.359C118.559 224.734 114.599 229.414 117.839 232.15C119.279 233.374 121.367 232.798 122.591 231.502C123.959 230.062 124.822 228.118 126.046 226.534C127.198 225.022 128.566 223.367 130.15 222.287C130.726 221.855 131.878 221.279 132.598 221.999C133.174 222.647 132.526 223.726 132.166 224.302C131.086 226.174 129.79 227.974 128.566 229.846C127.27 231.79 125.974 233.806 124.679 235.749C123.887 236.901 125.758 237.981 126.55 236.829C127.99 234.67 129.358 232.51 130.798 230.35C131.518 229.27 132.238 228.19 132.958 227.11C133.606 226.174 134.254 225.238 134.686 224.158C135.262 222.503 134.902 220.631 133.174 219.911C131.446 219.119 129.718 219.911 128.35 220.991C126.766 222.287 125.399 223.87 124.175 225.454C123.527 226.318 122.951 227.11 122.375 228.046C121.871 228.838 121.439 229.846 120.719 230.422C120.071 230.926 119.207 230.998 118.919 230.134C118.631 229.342 118.991 228.55 119.423 227.83C120.359 226.102 121.583 224.446 122.807 222.791C125.182 219.551 127.846 216.599 130.798 213.863C135.406 219.551 141.309 224.158 148.005 227.11C149.444 236.469 150.884 245.829 152.324 255.188C152.54 256.484 154.34 256.052 154.412 254.828C154.556 254.756 154.7 254.612 154.772 254.468C156.5 251.804 158.444 249.356 160.675 247.053C161.035 246.693 161.035 246.261 160.892 245.973C159.38 236.973 157.796 227.974 156.284 218.903C156.14 218.255 155.636 218.039 155.204 218.183C148.868 217.103 142.893 214.655 137.637 210.912C131.374 206.448 126.19 200.041 123.311 192.769C123.167 192.121 123.095 191.473 123.023 190.825C122.951 190.537 122.735 190.249 122.447 190.105C121.943 188.593 121.583 187.082 121.367 185.498C120.575 180.602 121.223 175.491 123.815 171.243C126.334 167.211 130.654 164.476 135.334 163.756C135.622 163.828 135.981 163.828 136.269 163.684C136.557 163.684 136.845 163.612 137.061 163.612C138.069 163.612 138.357 162.46 137.925 161.884C139.365 160.372 140.805 158.86 142.317 157.348C143.037 157.42 143.757 156.916 143.541 156.052C140.661 146.909 138.789 137.478 137.925 127.903C138.213 127.255 137.853 126.391 136.989 126.391C136.845 126.319 136.629 126.319 136.485 126.391C133.678 126.319 130.942 125.815 128.278 124.879C128.062 124.663 127.702 124.519 127.414 124.591C126.982 124.519 126.478 124.879 126.334 125.239C123.527 127.615 120.647 129.991 117.839 132.294C117.839 132.294 117.839 132.366 117.767 132.366C117.623 132.366 117.479 132.366 117.335 132.366C116.759 132.438 116.255 132.798 116.255 133.446C116.255 133.95 116.759 134.598 117.335 134.526C120.647 134.166 123.959 134.742 126.91 136.326C127.414 136.614 127.846 136.47 128.134 136.11C128.206 136.182 128.278 136.254 128.422 136.326C130.15 144.893 132.166 153.389 134.47 161.812C128.998 162.82 124.175 166.275 121.511 171.243C117.839 178.082 118.631 186.074 121.439 193.129C121.943 196.081 122.807 198.961 123.959 201.768C125.471 205.44 127.414 208.896 129.79 212.063C126.046 215.159 123.023 218.615 120.287 222.359ZM120.719 132.366C122.951 130.494 125.111 128.695 127.342 126.823C129.79 127.687 132.31 128.191 134.83 128.335C132.526 130.423 130.15 132.438 127.846 134.526C127.774 134.454 127.702 134.454 127.63 134.382C125.542 133.23 123.167 132.582 120.719 132.366ZM140.661 155.692C139.149 157.276 137.566 158.86 136.054 160.444C133.822 152.165 131.878 143.885 130.15 135.462C130.15 135.39 130.15 135.39 130.078 135.318C131.95 133.662 133.822 132.006 135.694 130.35C136.63 138.846 138.357 147.269 140.805 155.476C140.805 155.548 140.733 155.62 140.661 155.692ZM126.406 202.632C133.03 211.776 143.181 218.111 154.268 220.055C155.708 228.622 157.22 237.261 158.66 245.829C156.932 247.628 155.348 249.572 153.908 251.66C152.684 243.741 151.46 235.821 150.236 227.902C151.532 228.406 152.108 226.318 150.812 225.814C150.452 225.67 150.092 225.526 149.804 225.382C149.588 224.95 149.156 224.878 148.797 224.95C146.349 223.87 143.973 222.503 141.741 220.991C135.046 216.383 129.718 209.976 126.406 202.632ZM130.798 237.405C131.086 236.901 131.806 236.685 132.31 237.045C132.814 237.333 133.03 237.981 132.67 238.557C131.446 240.501 130.222 242.517 128.926 244.461C128.638 244.965 127.918 245.181 127.414 244.821C126.91 244.533 126.694 243.885 127.054 243.309C128.278 241.365 129.502 239.349 130.798 237.405ZM114.096 152.453C115.607 150.005 117.335 147.773 119.279 145.685C120.287 144.605 121.367 143.597 122.447 142.589C123.455 141.726 124.535 140.646 125.758 140.286C126.982 139.998 128.278 140.574 128.638 141.87C128.998 143.093 128.494 144.533 128.134 145.757C127.342 148.637 126.334 151.445 125.039 154.18C123.599 157.204 121.943 160.156 119.999 162.892C119.207 164.044 117.335 162.964 118.127 161.812C121.871 156.628 124.606 150.797 126.19 144.605C126.334 144.173 126.766 143.093 126.55 142.589C126.262 142.085 125.398 142.877 125.11 143.165C123.887 144.101 122.807 145.181 121.727 146.261C119.495 148.493 117.623 150.941 115.967 153.604C115.247 154.756 113.376 153.677 114.096 152.453Z" fill="#211F1C"/>
<path d="M84.3622 201.624C83.0663 201.192 82.4903 203.28 83.7862 203.712C90.6256 206.016 97.9689 209.111 105.312 208.032C106.536 207.888 107.976 207.528 108.696 206.448C109.272 205.584 109.056 204.504 108.624 203.64C107.328 201.192 104.52 199.464 102.217 198.024C99.1929 196.081 95.9532 194.353 92.6414 192.841C90.3376 191.833 87.7458 190.465 85.154 190.321C83.7861 190.249 83.7861 192.409 85.154 192.481C85.226 192.481 85.514 192.553 85.37 192.481C85.226 192.481 85.586 192.481 85.586 192.553C85.802 192.625 86.09 192.625 86.3059 192.697C86.8819 192.841 87.5298 193.057 88.1058 193.273C89.6177 193.777 91.0575 194.425 92.4254 195.145C95.5211 196.585 98.4728 198.24 101.353 200.04C102.504 200.832 103.657 201.624 104.736 202.56C105.6 203.28 106.248 203.928 106.752 204.792C106.896 205.008 106.824 204.936 106.824 204.864C106.824 204.936 106.896 205.008 106.896 205.08C106.896 205.152 107.04 205.44 106.896 205.08C106.896 205.152 106.896 205.224 106.896 205.296C106.896 205.296 106.896 205.224 106.896 205.296C107.04 205.152 106.68 205.44 106.896 205.368C106.824 205.44 106.752 205.512 106.608 205.512C106.464 205.584 106.536 205.584 106.536 205.584C106.32 205.656 106.104 205.728 105.816 205.8C104.592 206.088 103.368 206.16 102.145 206.088C95.9531 206.016 90.0497 203.568 84.3622 201.624ZM148.797 48.2773C148.077 49.9331 147.285 51.589 146.565 53.2449C146.349 53.7488 145.557 53.8928 145.053 53.6048C144.549 53.2449 144.405 52.6689 144.693 52.0929C145.413 50.4371 146.205 48.7813 146.925 47.1254C147.141 46.6214 147.933 46.4775 148.437 46.7654C148.941 47.1254 149.013 47.7013 148.797 48.2773ZM143.469 46.8374C143.757 46.3335 143.541 45.6855 143.109 45.3256C142.605 45.0376 141.885 45.2536 141.597 45.6855C140.445 47.6294 139.653 49.8611 139.293 52.0929C139.221 52.6689 139.437 53.2449 140.013 53.3889C140.517 53.5329 141.237 53.1729 141.309 52.6689C141.453 51.589 141.741 50.5811 142.101 49.5732C142.173 49.2852 142.317 49.0692 142.389 48.7812C142.317 48.9252 142.461 48.6373 142.461 48.6373C142.533 48.4933 142.605 48.3493 142.677 48.2053C142.893 47.7733 143.181 47.2694 143.469 46.8374ZM153.764 44.0297C154.052 44.5336 154.7 44.6776 155.276 44.3896C155.78 44.1017 155.924 43.3817 155.636 42.8778C154.772 41.3659 153.548 40.142 152.036 39.2061C151.532 38.9181 150.884 39.1341 150.524 39.5661C150.236 40.07 150.452 40.7179 150.884 41.0779C151.172 41.2219 151.388 41.4379 151.676 41.6538C151.604 41.5819 151.532 41.5099 151.46 41.5099C152.108 42.0139 152.684 42.5898 153.188 43.2377C153.116 43.1657 153.044 43.0937 153.044 43.0217C153.332 43.3817 153.548 43.7417 153.764 44.0297ZM144.333 37.5502C144.189 38.1262 144.477 38.7021 145.053 38.8461C145.557 38.9901 146.277 38.6301 146.349 38.1262C146.565 37.1903 145.845 36.5423 144.981 36.5423C144.549 36.5423 144.045 36.6143 143.541 36.6863C142.533 36.8303 141.453 36.9743 140.445 37.1903C139.869 37.3343 139.581 37.9822 139.725 38.4861C139.869 39.0621 140.517 39.3501 141.021 39.2061C141.741 39.0621 142.461 38.9181 143.253 38.7741C143.325 38.7741 143.325 38.7741 143.181 38.7741C143.253 38.7741 143.325 38.7741 143.325 38.7741C143.397 38.7741 143.469 38.7741 143.613 38.7741C143.757 38.7741 143.973 38.7021 144.117 38.7021C144.333 38.7021 144.477 38.7021 144.693 38.6301C144.765 38.6301 144.837 38.6301 144.909 38.6301C144.981 38.6301 144.909 38.6301 144.765 38.6301C144.477 38.5581 144.333 38.3421 144.189 38.0542C144.333 37.8382 144.333 37.6942 144.333 37.5502C144.333 37.4782 144.333 37.4782 144.333 37.5502ZM1.06534 278.442C5.02499 278.586 8.84067 277.074 11.8644 274.482C14.8882 271.818 16.616 268.146 17.0479 264.187C17.8399 256.915 14.7441 249.788 15.6081 242.589C16.04 239.205 17.5518 236.325 20.0716 234.021C22.4474 231.79 25.3992 230.278 28.207 228.694C31.1587 227.11 34.1104 225.526 36.7742 223.438C39.8699 220.99 42.2457 217.751 44.4775 214.439C48.4371 208.607 52.6849 201.624 59.8842 199.752C60.8922 201.84 62.116 203.856 63.5558 205.728C69.0993 212.999 77.3067 217.967 86.3059 219.479C86.162 224.806 85.874 230.206 85.442 235.533C84.6501 245.54 83.2103 255.476 81.3384 265.339C79.8986 272.826 78.5306 282.041 71.9072 286.937C70.8273 287.729 71.9072 289.601 72.9871 288.809C76.6588 286.145 78.8906 282.185 80.4025 278.01C81.9144 273.834 82.7063 269.442 83.4983 265.123C84.5062 260.011 85.2981 254.9 86.018 249.788C87.3859 239.853 88.1777 229.846 88.3937 219.839C88.7537 219.767 88.8977 219.479 88.9697 219.119C89.9056 218.039 90.6976 216.959 91.3455 215.663C92.9294 212.567 93.5773 209.111 93.1454 205.728C92.4254 205.512 91.6334 205.296 90.9135 205.08C91.7054 209.471 90.4097 214.151 87.4579 217.607C87.4579 217.607 87.4578 217.607 87.3858 217.607C85.0101 217.247 82.6343 216.671 80.4025 215.879C72.2672 212.855 65.4278 206.664 61.6841 198.816C61.6841 198.672 61.6841 198.6 61.6841 198.456C62.188 197.592 62.764 196.729 63.34 195.865C66.2917 191.473 69.4594 187.225 72.4832 182.906C73.851 180.962 75.2188 179.018 76.5147 177.002C77.7386 175.058 78.8186 172.971 80.1865 171.099C83.2822 166.779 87.7459 162.747 92.8575 161.164C95.3052 160.372 98.1129 160.732 100.633 161.02C103.44 161.38 106.176 161.956 108.912 162.603C112.008 163.323 115.247 164.115 118.199 165.483C119.423 166.059 120.647 166.851 121.367 168.003C121.943 169.011 122.231 170.523 121.439 171.531C119.783 173.835 115.751 172.251 113.736 171.459C110.928 170.379 108.264 169.083 105.312 168.723C102.864 168.435 100.129 168.795 98.1129 170.307C97.5369 170.739 97.033 171.243 96.673 171.819C94.3692 171.099 92.0654 170.523 89.6896 170.163C88.3217 169.947 87.7458 172.035 89.1136 172.251C93.5052 172.899 97.825 174.266 101.857 176.138C105.384 177.866 108.768 179.954 111.72 182.546C113.232 183.842 114.671 185.21 115.967 186.649C117.191 187.945 118.631 189.889 116.615 191.257C115.68 191.905 114.6 191.905 113.52 191.689C106.824 185.21 98.1849 180.674 88.9697 179.018C87.6018 178.73 87.0258 180.818 88.3937 181.106C93.1453 181.97 97.6809 183.554 101.929 185.857C105.672 187.873 109.128 190.393 112.224 193.417C113.592 194.713 115.823 196.585 115.536 198.744C115.176 201.12 112.08 200.544 110.568 199.824C108.48 198.888 106.464 197.808 104.376 196.873C102.217 195.937 100.129 195.073 97.897 194.281C93.4334 192.625 88.8978 191.329 84.2182 190.321C82.8503 190.033 82.2743 192.121 83.6422 192.409C89.3297 193.633 94.9452 195.361 100.345 197.52C102.721 198.456 105.096 199.536 107.4 200.688C109.488 201.768 111.72 202.992 114.168 202.488C116.399 202.056 117.839 200.112 117.623 197.88C117.479 196.369 116.615 195.073 115.607 193.849C117.047 193.633 118.271 192.985 119.207 191.545C120.503 189.529 119.423 187.369 117.983 185.714C116.543 184.058 114.959 182.474 113.304 181.034C108.984 177.362 104.016 174.41 98.6888 172.467C100.273 170.811 102.936 170.523 105.168 170.811C108.264 171.171 111.144 172.827 114.096 173.835C116.687 174.698 119.999 175.418 122.375 173.547C124.607 171.747 124.319 168.363 122.663 166.203C120.791 163.755 117.551 162.747 114.744 161.884C111.576 160.876 108.336 160.156 105.096 159.508C102.289 159.004 99.4809 158.5 96.6011 158.428C93.8653 158.356 91.4175 159.004 88.9697 160.228C83.7861 162.819 79.6105 167.211 76.5868 172.179C74.067 176.426 71.3312 180.386 68.4514 184.346C65.4277 188.593 62.2599 192.769 59.5962 197.233C59.4522 197.305 59.3083 197.448 59.1643 197.664C50.885 199.68 46.2054 207.744 41.6698 214.295C39.51 217.463 37.0622 220.415 33.9665 222.646C31.2307 224.59 28.2069 226.03 25.2552 227.686C22.4474 229.27 19.5676 230.926 17.3358 233.301C14.9601 235.821 13.5921 238.917 13.1602 242.301C12.2242 249.5 15.176 256.483 14.6 263.611C14.3121 267.139 12.8723 270.378 10.2085 272.754C7.61673 275.058 4.23297 276.354 0.777252 276.21C-0.302643 276.282 -0.302551 278.442 1.06534 278.442ZM87.9618 139.133C84.7221 141.941 81.6264 144.893 78.6026 147.917C77.5947 148.925 76.0828 147.341 77.0907 146.405C87.6018 135.966 99.0488 126.607 112.368 120.055C116.039 118.255 119.855 116.671 123.671 115.232C124.391 104.936 124.751 94.6413 125.183 84.4182C125.183 83.6263 125.255 82.8343 125.255 82.0424C118.487 80.3146 111.648 78.5147 104.88 76.7869C104.232 76.6429 103.512 76.4269 102.865 76.2829C102.001 76.0669 101.929 75.059 102.361 74.4831C107.688 67.8596 112.872 61.2362 118.127 54.5408C120.935 51.0131 123.671 47.4854 126.479 43.9577C129.07 40.7179 131.518 37.1903 134.542 34.3105C136.486 32.4387 138.573 30.8548 140.949 29.5589C139.365 29.1989 137.637 28.623 135.91 27.6151C131.302 24.8793 126.55 13.5043 132.382 5.58496C142.677 20.0557 151.964 9.47264 166.795 16.528C178.242 21.9276 177.81 43.2377 172.842 53.6768C176.298 53.4608 179.826 54.6128 182.274 57.0605C186.377 61.1642 186.881 68.2196 183.354 72.8272C181.482 75.347 178.53 76.8588 175.434 77.3628C180.186 88.6658 185.37 99.8249 190.769 110.84C190.769 110.84 190.769 110.84 190.841 110.84C205.816 117.463 220.934 123.799 235.045 132.15C248.076 139.853 260.315 149.213 270.322 160.66C275.794 166.923 280.545 173.763 284.289 181.178C284.937 182.402 283.065 183.482 282.417 182.258C275.794 169.083 265.93 157.924 254.699 148.493C242.604 138.414 228.926 130.638 214.743 123.871C206.752 120.055 198.616 116.599 190.481 113C190.481 113 190.481 113 190.409 113C190.553 113.432 190.409 113.864 189.905 114.08C173.994 120.919 156.284 123.223 139.149 120.703C134.326 119.983 129.574 118.903 124.967 117.463C124.823 117.391 124.679 117.319 124.607 117.247C117.839 119.767 111.216 122.791 105.024 126.535C98.9769 130.134 93.2894 134.454 87.9618 139.133ZM175.29 116.743C179.898 115.592 184.433 114.08 188.825 112.208C188.897 112.208 188.969 112.136 189.041 112.136C183.426 100.689 178.098 89.1698 173.202 77.4348C171.331 77.3628 169.531 76.9308 167.875 75.9949C167.371 75.7069 167.155 75.059 167.443 74.555C167.731 74.0511 168.379 73.8351 168.883 74.1231C172.914 76.4269 178.746 75.203 181.626 71.5313C184.433 67.7876 184.074 61.8841 180.762 58.5724C177.45 55.2607 171.547 54.9007 167.803 57.7085C167.299 58.0685 166.651 57.9964 166.291 57.4925C165.931 56.9885 166.003 56.3406 166.507 55.9806C166.795 55.7647 167.083 55.6207 167.299 55.4047L165.499 55.4767C158.012 50.8691 159.236 43.5257 157.292 38.0542C154.484 30.2068 150.308 30.3509 145.269 29.9909C137.781 32.2947 133.102 38.9181 128.494 44.7496C123.095 51.517 117.839 58.3564 112.44 65.1958C109.992 68.2916 107.544 71.3873 105.096 74.4831C110.28 75.8509 115.535 77.2188 120.719 78.5867C122.735 79.0907 124.751 79.5946 126.766 80.0986C127.198 80.2425 127.558 80.6745 127.558 81.1065C127.198 89.8897 126.838 98.673 126.406 107.456C126.262 110.048 126.119 112.712 125.975 115.304C141.813 120.343 159.092 120.847 175.29 116.743ZM165.931 65.5558C165.571 65.9878 165.499 66.6357 165.931 67.0677C166.291 67.4277 167.083 67.4997 167.443 67.0677C169.675 64.2599 173.131 62.6041 176.73 62.676C178.098 62.676 178.098 60.5162 176.73 60.5162C172.627 60.4442 168.595 62.3161 165.931 65.5558ZM154.34 95.8652C155.06 96.9451 156.212 97.6651 157.508 97.881C159.956 98.241 162.403 97.0891 163.771 95.0013C165.355 92.6255 165.499 89.5298 165.571 86.722C165.571 85.3541 163.411 85.3541 163.411 86.722C163.339 89.4578 163.339 92.7695 161.252 94.7133C160.604 95.3612 159.38 95.7212 158.516 95.7932C158.372 95.7932 158.3 95.7932 158.156 95.7932C158.084 95.7932 158.012 95.7932 157.94 95.7932C157.796 95.7932 157.652 95.7212 157.508 95.7212L157.22 95.6492C156.716 95.4332 156.5 95.2173 156.284 94.8573C155.996 94.3533 155.348 94.1374 154.772 94.4973C154.268 94.7133 154.052 95.3613 154.34 95.8652ZM185.657 147.269C187.889 145.541 190.913 144.749 193.577 143.957C196.384 143.093 199.264 142.517 202.144 142.013C204.664 141.509 207.256 141.077 209.847 141.005C212.295 140.933 214.527 141.293 216.759 142.301C219.063 143.309 221.15 144.677 223.094 146.333C225.11 148.061 226.91 150.077 228.494 152.236C230.006 154.324 231.158 156.628 232.525 158.788C235.621 163.611 239.005 168.291 242.173 173.043C242.821 174.05 243.469 175.058 244.044 176.066C245.916 175.49 248.076 175.49 249.948 175.706C254.196 176.21 258.299 178.082 261.323 181.106C264.923 184.634 266.29 189.457 267.37 194.281C268.378 198.888 269.746 203.208 272.05 207.312C274.21 211.127 276.802 214.655 279.537 218.111C285.009 225.022 291.128 231.574 295.088 239.565C296.024 241.509 296.888 243.525 297.536 245.54C297.968 246.836 295.88 247.412 295.448 246.116C290.192 229.414 274.066 219.119 267.658 202.992C265.858 198.456 265.355 193.561 263.771 188.953C262.259 184.778 259.451 181.466 255.491 179.45C253.62 178.514 251.604 177.938 249.516 177.722C248.22 177.578 246.564 177.578 245.268 177.866C246.78 180.674 247.428 183.842 246.204 186.937C244.98 189.961 242.533 192.265 239.797 193.849C236.989 195.505 233.893 196.513 230.654 197.089C227.198 197.736 223.67 198.096 220.142 197.592C217.407 197.233 214.455 196.297 213.087 193.921C212.655 194.137 212.295 194.425 211.935 194.713C208.551 197.592 206.176 201.84 206.176 206.376C206.248 210.767 208.408 215.159 211.287 218.399C213.735 221.206 216.975 223.078 220.142 224.95C224.75 227.614 232.165 231.142 231.157 237.621C230.438 241.941 226.262 244.46 224.966 248.564C223.382 253.532 227.054 258.283 230.366 261.595C232.309 261.163 234.613 261.451 236.125 262.963C237.565 264.403 237.925 266.851 236.197 268.218C235.693 268.65 235.189 268.65 234.685 268.218C233.101 266.923 231.374 265.555 229.79 264.115C229.718 264.187 229.574 264.187 229.502 264.259C225.686 266.419 228.278 271.098 229.862 273.834C230.581 275.058 228.71 276.138 227.99 274.914C226.622 272.61 225.11 270.09 225.326 267.282C225.47 265.267 226.55 263.611 228.134 262.531C226.406 260.803 224.894 258.859 223.814 256.699C222.734 254.468 222.086 251.948 222.446 249.428C222.806 246.836 224.318 244.82 225.83 242.805C227.63 240.429 229.934 237.405 228.494 234.381C227.198 231.718 224.246 230.062 221.87 228.55C218.847 226.75 215.751 225.166 212.943 223.006C209.271 220.199 206.464 216.383 204.952 212.063C203.44 207.744 203.656 203.136 205.744 199.032C206.824 196.873 208.408 195.001 210.207 193.417C210.711 192.985 211.215 192.481 211.863 192.193C212.151 192.049 212.367 191.905 212.655 191.833C212.583 191.113 212.655 190.393 212.799 189.745C209.919 190.465 207.04 190.969 204.088 190.825C202 190.753 197.104 190.321 198.184 186.937C198.544 185.857 199.336 184.922 200.128 184.202C201.28 183.122 202.504 182.186 203.8 181.322C204.016 181.178 204.304 181.034 204.52 180.818C203.296 181.322 202.072 181.898 200.848 182.474C198.688 183.482 196.456 185.066 193.937 185.138C191.849 185.21 189.761 183.986 189.329 181.826C188.897 179.738 189.977 177.866 191.345 176.354C190.337 176.21 189.329 175.85 188.537 175.058C184.65 171.531 189.977 166.923 192.569 164.547C195.737 161.668 199.336 159.148 203.224 157.204C204.88 156.412 206.536 155.692 208.192 155.044C207.328 154.108 206.104 153.604 204.664 153.388C202.072 153.028 199.552 153.82 197.176 154.756C194.513 155.764 191.849 157.132 188.897 157.276C186.449 157.42 183.858 156.412 183.138 153.82C182.346 151.3 183.714 148.781 185.657 147.269ZM235.045 265.843C235.117 265.195 234.613 264.475 233.965 264.115C233.533 263.827 232.957 263.683 232.453 263.611C233.317 264.403 234.181 265.123 235.045 265.843ZM190.553 154.756C193.289 154.036 195.88 152.74 198.544 151.876C202.432 150.653 207.76 150.724 210.351 154.252C212.583 153.532 214.959 152.956 217.263 152.596C218.631 152.38 219.207 154.468 217.839 154.684C209.991 155.908 202.504 159.148 196.313 164.043C194.801 165.267 193.289 166.563 191.921 168.003C190.841 169.083 188.465 171.099 189.473 172.827C190.265 174.266 191.921 174.338 193.433 174.122C196.313 171.315 199.624 168.867 203.152 166.851C207.76 164.259 212.799 162.387 217.983 161.452C219.35 161.164 219.926 163.251 218.559 163.539C210.135 165.123 202.216 169.011 195.953 174.77C195.161 175.49 194.441 176.21 193.721 176.93C192.929 177.794 191.993 178.658 191.633 179.81C190.841 181.97 192.713 183.266 194.729 182.906C195.881 182.69 196.888 182.114 197.896 181.61C198.904 181.106 199.984 180.602 200.992 180.098C203.152 179.09 205.312 178.154 207.543 177.362C210.999 175.994 214.599 174.842 218.199 173.906C218.271 173.906 218.343 173.835 218.487 173.835C219.639 173.403 220.79 173.043 222.014 172.899C222.086 172.899 222.23 172.899 222.302 172.899C222.446 172.899 222.59 172.827 222.734 172.755C224.102 172.467 224.678 174.554 223.31 174.842C221.798 175.13 220.359 175.49 218.847 175.922C217.839 176.282 216.759 176.714 215.751 177.218C212.727 178.586 209.703 180.17 206.896 181.97C205.6 182.762 204.376 183.626 203.152 184.562C202.648 184.922 202.144 185.354 201.712 185.785C201.424 186.073 200.848 186.649 200.776 186.793C200.632 186.937 200.56 187.153 200.416 187.297C200.416 187.297 200.344 187.369 200.344 187.441C200.344 187.513 200.272 187.585 200.272 187.657C200.272 187.657 200.272 187.657 200.272 187.729C200.272 187.729 200.272 187.801 200.272 187.873L200.344 187.945C200.416 188.017 200.632 188.089 200.632 188.089C201.352 188.377 202.144 188.449 202.936 188.521C209.775 189.169 216.471 186.289 222.734 184.13C224.03 183.698 224.606 185.786 223.31 186.217C220.646 187.153 217.911 188.089 215.175 188.953C215.103 189.097 215.103 189.241 215.031 189.385C214.743 190.465 214.599 191.617 215.031 192.697C215.103 192.913 215.103 193.057 215.103 193.201C216.183 194.641 218.415 195.217 220.071 195.433C223.094 195.865 226.19 195.649 229.214 195.145C234.541 194.281 240.733 192.193 243.612 187.225C245.484 183.986 244.62 180.53 242.605 177.65C239.653 172.827 236.341 168.219 233.173 163.539C231.805 161.524 230.438 159.436 229.214 157.276C227.918 155.044 226.55 152.884 224.894 150.94C223.238 149.069 221.438 147.413 219.351 146.045C217.407 144.821 215.247 143.525 212.943 143.165C210.567 142.805 208.047 143.093 205.744 143.453C203.224 143.813 200.776 144.317 198.256 144.893C195.377 145.541 192.497 146.333 189.761 147.413C187.601 148.277 185.082 149.789 185.154 152.452C185.082 155.404 188.537 155.332 190.553 154.756Z" fill="#211F1C"/>
<path d="M253.404 75.4909C254.483 74.699 253.404 72.8271 252.324 73.6191C244.692 79.3066 237.061 85.0661 229.357 90.7536C228.278 91.5455 229.357 93.4174 230.437 92.6255C238.069 86.866 245.772 81.1784 253.404 75.4909ZM229.861 76.2829C225.758 80.0985 221.654 83.9142 217.479 87.7298C216.471 88.6658 214.959 87.1539 215.967 86.218C220.07 82.4023 224.174 78.5866 228.35 74.771C229.358 73.835 230.869 75.3469 229.861 76.2829ZM67.5154 104.072C60.6039 98.9609 53.6206 93.8493 46.7092 88.7378C45.6293 87.9458 46.7092 86.074 47.7891 86.866C54.7005 91.9775 61.6839 97.0891 68.5953 102.201C69.7472 103.065 68.6673 104.936 67.5154 104.072ZM60.1001 111.56C56.7884 110.048 53.4767 108.608 50.1649 107.096C49.661 106.88 49.517 106.088 49.805 105.584C50.093 105.008 50.7408 104.936 51.3167 105.224C54.6285 106.736 57.9402 108.176 61.2519 109.688C61.7559 109.904 61.8999 110.696 61.6119 111.2C61.2519 111.704 60.6041 111.776 60.1001 111.56ZM244.908 98.1689C243.252 98.9609 241.596 99.8248 239.941 100.617C239.437 100.905 238.717 100.761 238.429 100.257C238.141 99.7528 238.285 99.0329 238.789 98.7449C240.445 97.953 242.1 97.0891 243.756 96.2971C244.26 96.0092 244.98 96.1531 245.268 96.6571C245.556 97.1611 245.484 97.881 244.908 98.1689Z" fill="#211F1C"/>
</svg>
