<svg width="72" height="22" viewBox="0 0 72 22" fill="none" xmlns="http://www.w3.org/2000/svg">
<g clip-path="url(#clip0_3376_2458)">
<path d="M60.3461 0.00205358C60.2964 0 60.2467 0 60.195 0C54.9149 0 48.78 1.15617 48.78 1.15617L51.152 4.63288C49.8646 6.42976 49.107 8.62709 49.107 10.999C49.107 13.2045 49.7611 15.2581 50.8871 16.979L48.2522 20.8438C48.2522 20.8438 54.3871 22 59.6672 22C59.7479 22 59.8245 21.9979 59.8969 21.9959C59.9963 21.9979 60.0956 22 60.195 22C66.3175 22 71.2809 17.0755 71.2809 11.001C71.2809 4.97582 66.3982 0.0821432 60.3461 0.00205358ZM60.195 16.2377C57.2848 16.2377 54.9149 13.8884 54.9149 10.999C54.9149 8.11164 57.2828 5.76029 60.195 5.76029C63.1051 5.76029 65.4751 8.10959 65.4751 10.999C65.4751 13.8884 63.1051 16.2377 60.195 16.2377Z" fill="#F06445"/>
<path d="M43.8291 5.76235C46.7392 5.76235 49.1091 8.11164 49.1091 11.001C49.1091 13.8904 46.7413 16.2397 43.8291 16.2397C40.9189 16.2397 38.549 13.8904 38.549 11.001C38.549 8.11164 40.9189 5.76235 43.8291 5.76235ZM43.8291 0C37.7066 0 32.7432 4.92448 32.7432 10.999C32.7432 17.0735 37.7066 21.9979 43.8291 21.9979C49.9516 21.9979 54.915 17.0735 54.915 10.999C54.915 4.92448 49.9516 0 43.8291 0Z" fill="#4FC9DA"/>
<path d="M27.4627 0C21.63 0 16.7576 4.46654 16.3168 10.1406L21.1746 10.8799H22.106C22.2054 9.52245 22.5572 8.88173 22.8532 8.35602C23.7577 6.75422 25.4839 5.76234 27.4627 5.76234C30.3728 5.76234 32.7428 8.11164 32.7428 11.001C32.7428 13.8884 30.3749 16.2397 27.4627 16.2397C24.5753 16.2397 22.2219 13.9274 22.1847 11.0708C22.1805 11.2084 22.1764 11.3604 22.1723 11.5206C22.1309 12.6603 21.9363 13.7528 21.5058 14.7652C21.0049 16.1288 20.2411 17.3651 19.2745 18.4165C21.3009 20.62 24.2193 22.0021 27.4627 22.0021C33.5852 22.0021 38.5486 17.0776 38.5486 11.0031C38.5506 4.92448 33.5852 0 27.4627 0Z" fill="#4FC9DA"/>
<path d="M22.1715 10.8651C22.1819 10.6166 22.2026 10.3497 22.2233 10.0211H21.4367L16.3243 10.0765C16.5334 7.58348 17.6717 5.3266 19.2758 3.58516C18.2554 2.47828 17.0115 1.57881 15.6164 0.958633L15.6185 0.95658C14.1965 0.324077 12.6193 -0.0188708 10.9614 -0.000388592C10.9594 -0.000388592 10.9573 -0.000388592 10.9552 -0.000388592C10.9532 -0.000388592 10.9511 -0.000388592 10.9511 -0.000388592C4.8286 0.0755939 -0.0747736 5.05963 -0.000260521 11.1341C0.0742525 17.2086 5.09767 22.0735 11.2202 21.9976C11.2222 21.9976 11.2243 21.9976 11.2264 21.9976C11.2284 21.9976 11.2305 21.9976 11.2326 21.9976C11.2388 21.9976 11.2429 21.9976 11.2491 21.9976C11.3795 21.9955 11.5079 21.9914 11.6362 21.9852C11.6755 21.9832 11.7148 21.9811 11.7562 21.9791C11.8742 21.9729 11.9922 21.9626 12.1102 21.9524C12.1661 21.9483 12.224 21.9421 12.2799 21.9359C12.3544 21.9277 12.4269 21.9195 12.4993 21.9093C12.6049 21.8969 12.7084 21.8805 12.8118 21.8661C12.8594 21.8579 12.9071 21.8518 12.9547 21.8435C13.2134 21.8004 13.47 21.747 13.7226 21.6875C13.7246 21.6875 13.7246 21.6875 13.7267 21.6875C17.6635 20.7387 20.7682 17.7056 21.8093 13.8469H21.801C22.0535 12.894 22.1322 11.8939 22.1715 10.8651ZM11.4727 10.1361L11.5306 14.7587L14.7989 14.7197C14.0475 15.4569 13.0747 15.9744 11.9881 16.1613C11.9653 16.1654 11.9446 16.1695 11.9218 16.1716C11.8577 16.1818 11.7914 16.19 11.7273 16.1982C11.69 16.2024 11.6507 16.2065 11.6114 16.2106C11.5575 16.2167 11.5017 16.2208 11.4478 16.2249C11.3713 16.2291 11.2926 16.2332 11.216 16.2352C11.1974 16.2352 11.1788 16.2373 11.1581 16.2373C8.24999 16.2701 5.85522 13.9496 5.82004 11.0643C5.78485 8.17902 8.12166 5.80097 11.0297 5.76401C11.1167 5.76401 11.2057 5.76401 11.2926 5.76812C11.2988 5.76812 11.305 5.76812 11.3092 5.76812C11.3899 5.77222 11.4727 5.77633 11.5534 5.78455C11.5637 5.78455 11.5741 5.7866 11.5844 5.7866C11.661 5.79276 11.7397 5.80303 11.8163 5.8133C11.8245 5.81535 11.8349 5.81535 11.8432 5.8174C11.9239 5.82972 12.0046 5.84205 12.0833 5.85642C12.0853 5.85642 12.0895 5.85642 12.0915 5.85847C14.2172 6.26303 15.9 7.94697 16.2829 10.0786L11.4727 10.1361Z" fill="#F06445"/>
</g>
<defs>
<clipPath id="clip0_3376_2458">
<rect width="71.28" height="22" fill="white"/>
</clipPath>
</defs>
</svg>
