<svg width="72" height="22" viewBox="0 0 72 22" fill="none" xmlns="http://www.w3.org/2000/svg">
<g clip-path="url(#clip0)">
<path d="M60.3463 0.00205358C60.2966 0 60.247 0 60.1952 0C54.9151 0 48.7802 1.15617 48.7802 1.15617L51.1522 4.63288C49.8648 6.42976 49.1073 8.62709 49.1073 10.999C49.1073 13.2045 49.7613 15.2581 50.8873 16.979L48.2524 20.8438C48.2524 20.8438 54.3873 22 59.6674 22C59.7481 22 59.8247 21.9979 59.8972 21.9959C59.9965 21.9979 60.0959 22 60.1952 22C66.3177 22 71.2811 17.0755 71.2811 11.001C71.2811 4.97582 66.3984 0.0821432 60.3463 0.00205358ZM60.1952 16.2377C57.2851 16.2377 54.9152 13.8884 54.9152 10.999C54.9152 8.11164 57.283 5.76029 60.1952 5.76029C63.1054 5.76029 65.4753 8.10959 65.4753 10.999C65.4753 13.8884 63.1054 16.2377 60.1952 16.2377Z" fill="#00B2FF"/>
<path d="M43.8293 5.76235C46.7395 5.76235 49.1094 8.11164 49.1094 11.001C49.1094 13.8904 46.7415 16.2397 43.8293 16.2397C40.9192 16.2397 38.5492 13.8904 38.5492 11.001C38.5492 8.11164 40.9192 5.76235 43.8293 5.76235ZM43.8293 0C37.7068 0 32.7434 4.92448 32.7434 10.999C32.7434 17.0735 37.7068 21.9979 43.8293 21.9979C49.9518 21.9979 54.9152 17.0735 54.9152 10.999C54.9152 4.92448 49.9518 0 43.8293 0Z" fill="white"/>
<path d="M27.4628 0C21.6301 0 16.7578 4.46654 16.3169 10.1406L21.1747 10.8799H22.1061C22.2055 9.52245 22.5574 8.88173 22.8533 8.35602C23.7578 6.75422 25.4841 5.76234 27.4628 5.76234C30.3729 5.76234 32.7429 8.11164 32.7429 11.001C32.7429 13.8884 30.375 16.2397 27.4628 16.2397C24.5754 16.2397 22.2221 13.9274 22.1848 11.0708C22.1807 11.2084 22.1765 11.3604 22.1724 11.5206C22.131 12.6603 21.9364 13.7528 21.5059 14.7652C21.005 16.1288 20.2412 17.3651 19.2746 18.4165C21.301 20.62 24.2194 22.0021 27.4628 22.0021C33.5853 22.0021 38.5487 17.0776 38.5487 11.0031C38.5508 4.92448 33.5853 0 27.4628 0Z" fill="white"/>
<path d="M22.1716 10.8652C22.182 10.6167 22.2027 10.3498 22.2234 10.0212H21.4368L16.3244 10.0767C16.5335 7.5836 17.6719 5.32672 19.276 3.58528C18.2556 2.4784 17.0116 1.57894 15.6166 0.958755L15.6186 0.956702C14.1967 0.324199 12.6195 -0.0187487 10.9616 -0.000266521C10.9595 -0.000266521 10.9574 -0.000266521 10.9553 -0.000266521C10.9533 -0.000266521 10.9512 -0.000266521 10.9512 -0.000266521C4.82872 0.0757159 -0.0746515 5.05975 -0.000138451 11.1342C0.0743746 17.2087 5.09779 22.0737 11.2203 21.9977C11.2224 21.9977 11.2244 21.9977 11.2265 21.9977C11.2286 21.9977 11.2306 21.9977 11.2327 21.9977C11.2389 21.9977 11.2431 21.9977 11.2493 21.9977C11.3797 21.9956 11.508 21.9915 11.6363 21.9854C11.6756 21.9833 11.715 21.9813 11.7564 21.9792C11.8743 21.973 11.9923 21.9628 12.1103 21.9525C12.1662 21.9484 12.2241 21.9422 12.28 21.9361C12.3545 21.9279 12.427 21.9196 12.4994 21.9094C12.605 21.8971 12.7085 21.8806 12.812 21.8663C12.8596 21.858 12.9072 21.8519 12.9548 21.8437C13.2135 21.8005 13.4702 21.7471 13.7227 21.6876C13.7247 21.6876 13.7247 21.6876 13.7268 21.6876C17.6636 20.7388 20.7683 17.7057 21.8094 13.847H21.8011C22.0537 12.8942 22.1323 11.8941 22.1716 10.8652ZM11.4728 10.1362L11.5308 14.7588L14.799 14.7198C14.0476 15.457 13.0748 15.9745 11.9882 16.1614C11.9654 16.1655 11.9447 16.1696 11.9219 16.1717C11.8578 16.1819 11.7915 16.1902 11.7274 16.1984C11.6901 16.2025 11.6508 16.2066 11.6115 16.2107C11.5577 16.2169 11.5018 16.221 11.448 16.2251C11.3714 16.2292 11.2927 16.2333 11.2161 16.2353C11.1975 16.2353 11.1789 16.2374 11.1582 16.2374C8.25011 16.2702 5.85534 13.9497 5.82016 11.0644C5.78497 8.17914 8.12178 5.8011 11.0299 5.76413C11.1168 5.76413 11.2058 5.76413 11.2927 5.76824C11.2989 5.76824 11.3051 5.76824 11.3093 5.76824C11.39 5.77235 11.4728 5.77645 11.5535 5.78467C11.5639 5.78467 11.5742 5.78672 11.5846 5.78672C11.6612 5.79288 11.7398 5.80315 11.8164 5.81342C11.8247 5.81547 11.835 5.81547 11.8433 5.81752C11.924 5.82985 12.0047 5.84217 12.0834 5.85654C12.0855 5.85654 12.0896 5.85654 12.0917 5.8586C14.2174 6.26315 15.9001 7.94709 16.283 10.0787L11.4728 10.1362Z" fill="#00B2FF"/>
</g>
<defs>
<clipPath id="clip0">
<rect width="71.28" height="22" fill="white"/>
</clipPath>
</defs>
</svg>
