<svg width="65" height="20" viewBox="0 0 65 20" fill="none" xmlns="http://www.w3.org/2000/svg">
<path d="M54.8597 0.00186689C54.8145 0 54.7693 0 54.7223 0C49.9222 0 44.3451 1.05106 44.3451 1.05106L46.5014 4.21171C45.331 5.84523 44.6424 7.84281 44.6424 9.99907C44.6424 12.0041 45.237 13.871 46.2606 15.4355L43.8652 18.9489C43.8652 18.9489 49.4424 20 54.2425 20C54.3159 20 54.3855 19.9981 54.4514 19.9963C54.5417 19.9981 54.632 20 54.7223 20C60.2882 20 64.8004 15.5232 64.8004 10.0009C64.8004 4.52348 60.3616 0.0746756 54.8597 0.00186689ZM54.7223 14.7615C52.0767 14.7615 49.9222 12.6258 49.9222 9.99907C49.9222 7.37422 52.0748 5.23663 54.7223 5.23663C57.3679 5.23663 59.5224 7.37235 59.5224 9.99907C59.5224 12.6258 57.3679 14.7615 54.7223 14.7615Z" fill="#F06445"/>
<path d="M39.8447 5.2385C42.4903 5.2385 44.6448 7.37422 44.6448 10.0009C44.6448 12.6276 42.4922 14.7634 39.8447 14.7634C37.1991 14.7634 35.0446 12.6276 35.0446 10.0009C35.0446 7.37422 37.1991 5.2385 39.8447 5.2385ZM39.8447 0C34.2788 0 29.7666 4.4768 29.7666 9.99907C29.7666 15.5213 34.2788 19.9981 39.8447 19.9981C45.4106 19.9981 49.9228 15.5213 49.9228 9.99907C49.9228 4.4768 45.4106 0 39.8447 0Z" fill="white"/>
<path d="M24.9666 0C19.6642 0 15.2348 4.06049 14.834 9.21871L19.2502 9.89079H20.0969C20.1873 8.65677 20.5071 8.0743 20.7762 7.59638C21.5985 6.1402 23.1678 5.2385 24.9666 5.2385C27.6122 5.2385 29.7667 7.37422 29.7667 10.0009C29.7667 12.6258 27.6141 14.7634 24.9666 14.7634C22.3417 14.7634 20.2023 12.6613 20.1684 10.0644C20.1647 10.1895 20.1609 10.3276 20.1571 10.4733C20.1195 11.5094 19.9426 12.5026 19.5513 13.4229C19.0959 14.6626 18.4016 15.7864 17.5229 16.7423C19.365 18.7454 22.0181 20.0019 24.9666 20.0019C30.5325 20.0019 35.0447 15.5251 35.0447 10.0028C35.0466 4.4768 30.5325 0 24.9666 0Z" fill="white"/>
<path d="M20.1559 9.87733C20.1653 9.65143 20.1842 9.40874 20.203 9.11003H19.488L14.8403 9.16044C15.0303 6.89404 16.0652 4.84232 17.5235 3.2592C16.5959 2.25295 15.465 1.43525 14.1968 0.871446L14.1987 0.869579C12.906 0.294577 11.4722 -0.0171941 9.96496 -0.000392106C9.96308 -0.000392106 9.9612 -0.000392106 9.95932 -0.000392106C9.95744 -0.000392106 9.95555 -0.000392106 9.95555 -0.000392106C4.38966 0.0686829 -0.0679538 4.59963 -0.000214643 10.1219C0.0675245 15.6442 4.63427 20.0668 10.2002 19.9977C10.2021 19.9977 10.2039 19.9977 10.2058 19.9977C10.2077 19.9977 10.2096 19.9977 10.2115 19.9977C10.2171 19.9977 10.2209 19.9977 10.2265 19.9977C10.3451 19.9959 10.4617 19.9921 10.5784 19.9865C10.6141 19.9847 10.6499 19.9828 10.6875 19.9809C10.7948 19.9753 10.902 19.966 11.0093 19.9567C11.0601 19.9529 11.1128 19.9473 11.1636 19.9417C11.2313 19.9343 11.2972 19.9268 11.363 19.9175C11.459 19.9063 11.5531 19.8913 11.6472 19.8783C11.6904 19.8708 11.7337 19.8652 11.777 19.8577C12.0122 19.8185 12.2455 19.77 12.4751 19.7158C12.477 19.7158 12.477 19.7158 12.4788 19.7158C16.0577 18.8533 18.8802 16.0959 19.8267 12.5881H19.8191C20.0487 11.7218 20.1202 10.8126 20.1559 9.87733ZM10.4297 9.21458L10.4824 13.417L13.4535 13.3815C12.7705 14.0517 11.8861 14.5222 10.8983 14.692C10.8776 14.6958 10.8587 14.6995 10.838 14.7014C10.7797 14.7107 10.7195 14.7182 10.6612 14.7256C10.6273 14.7294 10.5915 14.7331 10.5558 14.7368C10.5069 14.7424 10.4561 14.7462 10.4071 14.7499C10.3375 14.7536 10.266 14.7574 10.1964 14.7592C10.1795 14.7592 10.1625 14.7611 10.1437 14.7611C7.50001 14.791 5.32295 12.6814 5.29096 10.0584C5.25898 7.43543 7.38335 5.27357 10.0271 5.23997C10.1061 5.23997 10.187 5.23997 10.266 5.2437C10.2717 5.2437 10.2773 5.2437 10.2811 5.2437C10.3545 5.24744 10.4297 5.25117 10.5031 5.25864C10.5125 5.25864 10.5219 5.26051 10.5313 5.26051C10.601 5.26611 10.6725 5.27544 10.7421 5.28478C10.7496 5.28664 10.759 5.28664 10.7665 5.28851C10.8399 5.29971 10.9133 5.31091 10.9848 5.32398C10.9867 5.32398 10.9905 5.32398 10.9923 5.32585C12.9248 5.69362 14.4546 7.22448 14.8027 9.16231L10.4297 9.21458Z" fill="#F06445"/>
</svg>
