<svg width="85" height="26" viewBox="0 0 85 26" fill="none" xmlns="http://www.w3.org/2000/svg">
<g clip-path="url(#clip0)">
<path d="M71.3182 0.00242696C71.2594 0 71.2007 0 71.1396 0C64.8995 0 57.6492 1.36638 57.6492 1.36638L60.4524 5.47522C58.9309 7.5988 58.0356 10.1956 58.0356 12.9988C58.0356 15.6053 58.8086 18.0323 60.1393 20.0661L57.0254 24.6336C57.0254 24.6336 64.2757 26 70.5158 26C70.6112 26 70.7017 25.9976 70.7873 25.9951C70.9048 25.9976 71.0222 26 71.1396 26C78.3753 26 84.2411 20.1802 84.2411 13.0012C84.2411 5.88052 78.4707 0.0970783 71.3182 0.00242696ZM71.1396 19.19C67.7003 19.19 64.8995 16.4135 64.8995 12.9988C64.8995 9.58648 67.6979 6.80762 71.1396 6.80762C74.5789 6.80762 77.3797 9.58406 77.3797 12.9988C77.3797 16.4135 74.5789 19.19 71.1396 19.19Z" fill="#F06445"/>
<path d="M51.7968 6.81004C55.2361 6.81004 58.0369 9.58648 58.0369 13.0012C58.0369 16.4159 55.2386 19.1924 51.7968 19.1924C48.3576 19.1924 45.5567 16.4159 45.5567 13.0012C45.5567 9.58648 48.3576 6.81004 51.7968 6.81004ZM51.7968 0C44.5612 0 38.6953 5.81985 38.6953 12.9988C38.6953 20.1777 44.5612 25.9976 51.7968 25.9976C59.0325 25.9976 64.8984 20.1777 64.8984 12.9988C64.8984 5.81985 59.0325 0 51.7968 0Z" fill="#211F1C"/>
<path d="M32.4556 0C25.5624 0 19.8042 5.27863 19.2832 11.9843L25.0243 12.858H26.125C26.2425 11.2538 26.6583 10.4966 27.0081 9.87529C28.0771 7.98226 30.1171 6.81004 32.4556 6.81004C35.8949 6.81004 38.6957 9.58648 38.6957 13.0012C38.6957 16.4135 35.8973 19.1924 32.4556 19.1924C29.0433 19.1924 26.262 16.4596 26.218 13.0837C26.2131 13.2463 26.2082 13.4259 26.2033 13.6152C26.1544 14.9622 25.9245 16.2533 25.4157 17.4498C24.8237 19.0613 23.9211 20.5224 22.7787 21.765C25.1735 24.3691 28.6225 26.0024 32.4556 26.0024C39.6913 26.0024 45.5571 20.1826 45.5571 13.0036C45.5596 5.81984 39.6913 0 32.4556 0Z" fill="#211F1C"/>
<path d="M26.202 12.8407C26.2143 12.547 26.2387 12.2315 26.2632 11.8432H25.3337L19.2917 11.9087C19.5388 8.96237 20.8841 6.29515 22.7799 4.23709C21.5739 2.92896 20.1038 1.86595 18.4551 1.13301L18.4576 1.13058C16.7771 0.383078 14.9131 -0.0222242 12.9538 -0.000381564C12.9513 -0.000381564 12.9489 -0.000381564 12.9464 -0.000381564C12.944 -0.000381564 12.9415 -0.000381564 12.9415 -0.000381564C5.70587 0.0894159 -0.0890235 5.97964 -0.00096263 13.1586C0.0870982 20.3375 6.02387 26.087 13.2595 25.9972C13.262 25.9972 13.2644 25.9972 13.2669 25.9972C13.2693 25.9972 13.2718 25.9972 13.2742 25.9972C13.2816 25.9972 13.2864 25.9972 13.2938 25.9972C13.4479 25.9948 13.5995 25.9899 13.7512 25.9826C13.7977 25.9802 13.8442 25.9778 13.8931 25.9753C14.0325 25.9681 14.1719 25.9559 14.3114 25.9438C14.3774 25.9389 14.4459 25.9317 14.512 25.9244C14.6 25.9147 14.6856 25.905 14.7712 25.8928C14.896 25.8783 15.0183 25.8589 15.1406 25.8419C15.1969 25.8322 15.2531 25.8249 15.3094 25.8152C15.6152 25.7642 15.9185 25.7011 16.2169 25.6307C16.2194 25.6307 16.2194 25.6307 16.2218 25.6307C20.8744 24.5095 24.5436 20.9248 25.774 16.3646H25.7642C26.0626 15.2385 26.1556 14.0566 26.202 12.8407ZM13.558 11.9791L13.6265 17.4422L17.4889 17.3961C16.601 18.2673 15.4513 18.8789 14.1671 19.0998C14.1401 19.1046 14.1157 19.1095 14.0888 19.1119C14.0129 19.124 13.9347 19.1338 13.8588 19.1435C13.8148 19.1483 13.7683 19.1532 13.7219 19.158C13.6583 19.1653 13.5922 19.1702 13.5286 19.175C13.4381 19.1799 13.3452 19.1847 13.2546 19.1871C13.2326 19.1871 13.2106 19.1896 13.1862 19.1896C9.74933 19.2284 6.91915 16.4859 6.87757 13.0761C6.83599 9.66619 9.59767 6.85577 13.0345 6.81209C13.1372 6.81209 13.2424 6.81209 13.3451 6.81694C13.3525 6.81694 13.3598 6.81694 13.3647 6.81694C13.4601 6.8218 13.558 6.82665 13.6534 6.83636C13.6656 6.83636 13.6778 6.83879 13.6901 6.83879C13.7806 6.84607 13.8735 6.8582 13.964 6.87034C13.9738 6.87276 13.986 6.87276 13.9958 6.87519C14.0912 6.88975 14.1866 6.90431 14.2796 6.9213C14.282 6.9213 14.2869 6.9213 14.2894 6.92373C16.8015 7.40184 18.7902 9.39195 19.2428 11.9111L13.558 11.9791Z" fill="#F06445"/>
</g>
<defs>
<clipPath id="clip0">
<rect width="84.24" height="26" fill="white"/>
</clipPath>
</defs>
</svg>
