<?xml version="1.0" encoding="UTF-8"?>
<svg id="Layer_1" data-name="Layer 1" xmlns="http://www.w3.org/2000/svg" xmlns:xlink="http://www.w3.org/1999/xlink" viewBox="0 0 320.37 425.96">
  <defs>
    <style>
      .cls-1 {
        clip-path: url(#clippath);
      }

      .cls-2, .cls-3 {
        fill: #f8dd51;
      }

      .cls-4 {
        fill: #f1ca4f;
      }

      .cls-5 {
        fill: #fff;
      }

      .cls-6 {
        fill: #fae4bf;
      }

      .cls-7, .cls-8 {
        fill: #a22430;
      }

      .cls-9 {
        fill: #cfd0d2;
      }

      .cls-10 {
        fill: #cd2f4a;
      }

      .cls-11, .cls-12 {
        fill: #d5c5a8;
      }

      .cls-13 {
        fill: #272525;
      }

      .cls-8, .cls-12, .cls-3, .cls-14, .cls-15, .cls-16 {
        stroke-miterlimit: 10;
        stroke-width: 4px;
      }

      .cls-8, .cls-15 {
        stroke: #a22430;
      }

      .cls-12, .cls-16 {
        stroke: #d5c5a8;
      }

      .cls-3, .cls-14 {
        stroke: #f1ca4f;
      }

      .cls-17 {
        clip-path: url(#clippath-1);
      }

      .cls-18 {
        clip-path: url(#clippath-2);
      }

      .cls-14, .cls-15, .cls-16 {
        fill: none;
      }
    </style>
    <clipPath id="clippath">
      <path class="cls-12" d="m134.24,347.11c-19.15-7.19-25.81-19.7-28.96-25.62-8.68-16.31-8.82-40.42,9.69-49.19,3.78-1.79,7.56-2.57,10.16-2.95h73.52c2.59.37,6.38,1.15,10.16,2.95,18.38,8.77,17.75,32.97,9.06,49.18-3.43,6.4-10.39,19.39-30.35,26.34-26.14,9.1-51.73-.12-53.29-.71Z"/>
    </clipPath>
    <clipPath id="clippath-1">
      <path class="cls-8" d="m256.63,253.89c-5.83,31.14-64.15,41.66-98.75,40.39-29.96-1.1-86.19-12.65-91.25-43.28-5.25-31.82,45.16-81.74,96.25-80.79,50.71.94,99.69,51.94,93.75,83.67Z"/>
    </clipPath>
    <clipPath id="clippath-2">
      <path class="cls-3" d="m238.13,110.15c0,3.27-2.65,5.91-5.92,5.91-.75,0-1.47-.14-2.13-.4l-24.47,56.44c-5.68,3.65-21.45,12.71-43.43,12.14-21.55-.55-36.61-10.04-42.17-13.94l-19.6-60.46c-.59.2-1.22.31-1.87.31-3.27,0-5.92-2.65-5.92-5.92s2.65-5.92,5.92-5.92,5.92,2.65,5.92,5.92c0,1.42-.5,2.72-1.34,3.75,11.16,14.54,22.33,29.07,33.49,43.61,9.24-18.91,18.48-37.81,27.71-56.72-1.57-1.06-3.32-3.1-3.32-5.14,0-3.27,2.65-5.92,5.92-5.92s5.92,2.65,5.92,5.92c0,2.34-1.86,4.45-3.83,5.41,8.24,19.8,16.49,39.59,24.73,59.39,11.33-13.51,22.65-27.02,33.98-40.52-.89-1.03-1.43-2.38-1.43-3.85,0-3.27,2.65-5.92,5.92-5.92s5.92,2.65,5.92,5.92Z"/>
    </clipPath>
  </defs>
  <g>
    <path class="cls-11" d="m134.24,347.11c-19.15-7.19-25.81-19.7-28.96-25.62-8.68-16.31-8.82-40.42,9.69-49.19,3.78-1.79,7.56-2.57,10.16-2.95h73.52c2.59.37,6.38,1.15,10.16,2.95,18.38,8.77,17.75,32.97,9.06,49.18-3.43,6.4-10.39,19.39-30.35,26.34-26.14,9.1-51.73-.12-53.29-.71Z"/>
    <g class="cls-1">
      <path class="cls-6" d="m227.52,288.25c4.93,21.49-13.86,41.02-15.97,43.15-21.47,21.69-57.55,20.99-79.39,4.59-2.62-1.97-24.52-18.91-22.65-41.12.48-5.7,2.37-9.82,3.32-11.83,11.3-24.06,44.48-28.07,47.22-28.36,24.36-2.59,61.43,7.3,67.47,33.57Z"/>
    </g>
    <path class="cls-16" d="m134.24,347.11c-19.15-7.19-25.81-19.7-28.96-25.62-8.68-16.31-8.82-40.42,9.69-49.19,3.78-1.79,7.56-2.57,10.16-2.95h73.52c2.59.37,6.38,1.15,10.16,2.95,18.38,8.77,17.75,32.97,9.06,49.18-3.43,6.4-10.39,19.39-30.35,26.34-26.14,9.1-51.73-.12-53.29-.71Z"/>
  </g>
  <g>
    <path class="cls-13" d="m90.97,343.75c-8.05-1.47-16.04-3.06-23.97-4.68-1.57,1.59-3.19,3.17-4.84,4.72-2.39,2.29-4.02,4.24-4.79,5.93-.66,1.44-.85,2.8-.56,4.1.29,1.3,1.04,2.58,2.26,3.83,1.22,1.25,2.99,2.57,5.33,3.95-.18.5-.36.99-.54,1.49-8.6-3.2-17.1-6.51-25.54-9.73.2-.35.4-.69.6-1.04,3.48.38,6.85-.07,10.08-1.45,3.23-1.37,7.17-4.04,11.59-8.09,13.13-12.11,23.39-24.8,30.23-37.56.38.05.76.08,1.14.13,6.38,15.57,9.09,29.92,12.81,51.5.06.05.09.16.11.34.01.18.04.37.09.57.04.2.09.43.14.68.37,1.86.74,3.78,1.12,5.76.63,3.19,1.59,5.84,2.88,7.82,1.29,1.98,3.08,3.63,5.36,4.87-.11.71-.21,1.43-.32,2.16-11.1-2.66-22.02-5.99-32.76-9.66.16-.59.32-1.18.48-1.76,2.78.67,4.83.91,6.13.77,2.69-.3,4.34-1.84,4.96-4.4.31-1.26.27-3.45-.08-6.4-.65-4.98-1.27-9.56-1.9-13.86Zm-35.77,13.53c-.6-1.57-.91-2.85-.95-3.9-.04-1.04.19-2.08.68-3.11.22-.46.41-.82.57-1.09-1.76,1.34-3.37,2.34-4.82,2.99-1.45.65-3.25,1.18-5.41,1.55,3.3,1.18,6.6,2.37,9.92,3.56Zm35.43-15.65c-1.41-9.05-2.88-16.92-5.11-24.68-4.72,6.87-10.43,13.76-16.99,20.55,7.32,1.43,14.69,2.83,22.11,4.13Zm-3.91-26.3c3.76,12.39,5.62,24.87,8.05,41.93.06.44.13.87.19,1.31.41,2.69.49,4.71.21,5.9-.39,1.66-1.64,3.33-3.78,4.91,4.45,1.33,8.93,2.59,13.44,3.76-1.2-2.22-2.12-4.57-2.78-7.03-.65-2.46-1.3-5.73-1.92-9.57-3.03-19.05-5.33-32.43-10.27-46.22-1,1.67-2.05,3.34-3.15,5Z"/>
    <path class="cls-13" d="m156.46,371.52c.36.63.71,1.26,1.07,1.9-2.23,3.16-4.33,5.73-6.25,7.58-1.93,1.85-3.88,3.15-5.84,3.81-1.96.66-4.2.84-6.68.48-3.93-.55-7.32-2.39-10.11-5.24-2.79-2.85-4.76-6.45-5.91-10.56-1.16-4.1-1.38-8.25-.77-12.41.49-3.4,1.49-6.42,2.93-9.18,1.45-2.75,3.18-4.99,5.21-6.81,2.02-1.81,4.3-3.14,6.85-4.03,2.55-.89,5.13-1.25,7.78-1.08,2.45.16,4.71.76,6.81,1.85,2.1,1.09,3.76,2.49,4.98,4.27,1.22,1.78,1.83,3.73,1.77,5.9-.04,1.41-.44,2.62-1.21,3.61-.77.99-1.73,1.46-2.86,1.4-1.65-.09-2.84-1.11-3.56-2.99-.32-.83-.53-2.44-.61-4.73-.12-2.25-.42-3.81-.89-4.77-.42-.89-1.05-1.59-1.89-2.13-.84-.54-1.81-.84-2.91-.91-2-.13-3.82.48-5.5,1.86-1.68,1.39-3.08,3.4-4.23,6.17-1.15,2.77-1.96,6.14-2.42,10.32-.46,4.14-.38,8.15.29,11.94.68,3.79,1.89,7,3.66,9.41,1.77,2.41,3.99,3.86,6.61,4.17,1.5.18,2.97-.06,4.4-.7,1.43-.64,2.94-1.75,4.51-3.3,1.56-1.55,3.16-3.51,4.78-5.81Zm-17.76,11.79c-8.92-4.68-12.18-15.03-10.6-27.23.57-4.6,1.57-8.08,2.98-10.74,1.41-2.66,3.58-5.05,6.48-7.25-7.82,3.54-12.52,9.22-13.93,19.1-.54,3.89-.33,7.72.72,11.49,1.05,3.76,2.82,7.07,5.34,9.73,2.51,2.65,5.54,4.36,9.01,4.89Zm10.98-44.39c.78,1.24,1.28,2.29,1.48,3.13.21.84.38,2.27.52,4.39.15,1.81.36,3.04.62,3.61.26.58.71.89,1.35.92,1,.06,1.53-.78,1.59-2.45.12-3.43-1.79-6.59-5.56-9.61Z"/>
    <path class="cls-13" d="m173.44,356.01c.01.41.02.82.03,1.23.12,4.48.77,8.69,2.02,12.46,1.25,3.77,2.99,6.85,5.23,8.98,2.23,2.14,4.84,3.14,7.75,2.88,1.54-.13,3.06-.64,4.56-1.51,1.49-.87,2.94-2.04,4.33-3.48,1.39-1.44,2.9-3.41,4.51-5.81.39.52.77,1.03,1.16,1.55-2.9,4.6-5.87,8.28-8.82,10.63-2.95,2.37-6.39,3.79-10.26,4.08-4.04.3-7.72-.85-10.94-3.29-3.23-2.44-5.69-5.94-7.39-10.17-1.7-4.22-2.49-8.73-2.45-13.36.04-4.86.96-8.95,2.69-12.48,1.73-3.52,4.03-6.09,6.91-7.93,2.88-1.83,6.08-2.71,9.65-2.74,3.05-.02,5.89.58,8.56,1.84,2.67,1.26,4.86,3.06,6.6,5.49,1.83,2.5,3.13,5.89,3.88,10.49-9.35.75-18.7,1.13-28.02,1.13Zm12.58,28.67c-2.42-.24-4.37-.77-5.84-1.55-1.48-.78-2.93-2.06-4.34-3.77-2.1-2.53-3.73-5.85-4.9-9.74-1.16-3.89-1.74-7.92-1.79-12-.03-2.84.16-5.33.57-7.53.41-2.2,1.06-4.1,1.94-5.75.88-1.65,2.06-3.16,3.55-4.57-3.29,1.94-5.84,4.54-7.66,8-1.81,3.47-2.77,7.52-2.78,12.42,0,4.2.75,8.3,2.37,12.19,1.61,3.88,3.91,7.11,6.89,9.41,2.98,2.31,6.3,3.39,9.88,3.13.81-.05,1.52-.14,2.12-.23Zm-12.63-30.6c6.13,0,12.27-.14,18.42-.45-.45-4.78-1.13-7.92-2.05-9.81-.82-1.73-1.89-3.02-3.22-3.91-1.32-.9-2.75-1.34-4.3-1.32-5.58.15-8.55,4.43-8.85,15.5Zm24.01-.77c-.37-2.59-1.02-4.82-1.94-6.76-.92-1.94-2.07-3.52-3.44-4.8-1.37-1.27-2.92-2.15-4.65-2.68,1.79,1.4,3.16,3.07,4.1,5.08.93,2.01,1.56,4.6,1.87,7.91.05.56.08,1.05.09,1.48,1.32-.07,2.65-.15,3.98-.24Z"/>
    <path class="cls-13" d="m211.04,381.67c-.09-.71-.17-1.41-.26-2.11,3.63-1.52,6.06-3.92,7.31-6.93.98-2.23.98-6.23.05-11.54-2.45-14-4.7-25.4-5.88-35.97-.29-2.55-.58-4.35-.95-5.46-.37-1.11-.96-2.05-1.78-2.81-1.51-1.48-3.65-2.39-6.46-2.77,0-.42-.02-.84-.02-1.26,8.88-.19,17.77-.52,26.67-1,.02.42.04.83.06,1.25-3.06.65-5.27,1.86-6.57,3.69-.52.73-.85,1.69-.99,2.88-.14,1.19-.08,2.85.23,5,1.48,10.4,4.24,21.41,7.14,34.55.65,2.96,1.32,5.27,2.01,6.78.69,1.52,1.6,2.74,2.75,3.63,2.12,1.66,4.91,2.3,8.36,1.82.13.56.25,1.13.37,1.69-10.54,3.51-21.23,6.44-32.03,8.58Zm6.78-4.89c5-1.07,9.98-2.29,14.94-3.65-.77-.38-1.54-.77-2.31-1.17-1.34-.68-2.22-1.29-2.65-1.8-.43-.51-.75-1.34-.97-2.49-.12-.61-.2-1.01-.26-1.22-.06-.2-.11-.42-.15-.64-.06-.32-.12-.64-.19-.95-3.42-17.4-6.75-30.98-8.08-43.75-.02-.23-.05-.46-.07-.7-.02-.16-.03-.33-.03-.49,0-.16-.02-.45-.06-.86-.07-.82.02-1.43.26-1.85.24-.42.83-.99,1.76-1.7.78-.6,1.57-1.2,2.36-1.8-4.69.21-9.38.39-14.07.52.83.55,1.67,1.09,2.51,1.63,1.03.65,1.7,1.15,1.98,1.52.28.37.45.99.52,1.87.07.46.12.91.16,1.35.02.24.04.46.06.7,1.19,12.85,4.22,26.62,7.39,44.56.06.33.12.65.17.98.11.62.2,1.26.29,1.94.21,1.22.22,2.17,0,2.81-.21.65-.82,1.61-1.85,2.91-.57.75-1.14,1.5-1.72,2.27Z"/>
    <path class="cls-13" d="m251.32,334.61c2.28,6.73,5.03,13.57,7.6,20.71.76,2.1,1.49,3.78,2.23,4.98.74,1.2,1.53,2,2.38,2.35.85.36,1.82.33,2.91-.09,1.95-.74,4.05-2.62,6.2-5.31.35.2.7.39,1.05.58-1.6,2.13-3.19,3.95-4.73,5.32-1.54,1.38-3.25,2.49-5.11,3.26-3.6,1.48-6.64,1.46-9.16-.17-2.52-1.62-4.39-4.74-5.67-8.94-2.35-7.71-4.78-14.87-6.78-21.76-1.35.15-2.7.29-4.06.44-.09-.32-.17-.65-.26-.97,2.13-.49,3.84-1.41,5.15-2.72,1.31-1.31,2.17-3,2.64-5.06.47-2.06.58-4.53.48-7.42.35-.03.7-.06,1.05-.08.85,4.59,2.13,9.15,3.65,13.75,3.2-.37,6.4-.76,9.6-1.15.14.36.28.73.43,1.09-3.2.42-6.39.81-9.6,1.2Zm-4.99-4.56c-.59,1.58-1.57,2.89-2.99,3.94,1.93,6.68,4.32,13.56,6.66,20.91.11.33.21.66.32,1,.52,1.65,1.06,3.11,1.61,4.36.55,1.25,1.11,2.22,1.67,2.89.56.68,1.29,1.28,2.18,1.8,2.36,1.34,4.96,1.38,7.82.26.51-.2.96-.39,1.34-.57-1.5.29-2.7.35-3.63.18-.92-.15-1.74-.6-2.46-1.32-.72-.73-1.41-1.82-2.08-3.27-.68-1.45-1.38-3.28-2.12-5.45-.13-.39-.27-.78-.4-1.17-2.83-8.22-5.76-15.95-7.91-23.54Z"/>
  </g>
  <g>
    <path class="cls-7" d="m256.63,253.89c-5.83,31.14-64.15,41.66-98.75,40.39-29.96-1.1-86.19-12.65-91.25-43.28-5.25-31.82,45.16-81.74,96.25-80.79,50.71.94,99.69,51.94,93.75,83.67Z"/>
    <g class="cls-17">
      <path class="cls-10" d="m261,228.51c.74,3.8,2.27,12.22-1.21,21.54-12.4,33.2-73.77,41.64-117.48,32.79-14.98-3.04-59.75-12.11-65.41-37.69-6.4-28.92,39.02-70.77,85.98-74.93,42.71-3.78,91.29,23.22,98.12,58.29Z"/>
      <path class="cls-5" d="m218.93,263.34c-.73,3.75-2.23,11.49,1.98,18.85,5.58,9.75,17.91,13.08,27.02,12.2,14.21-1.37,29-13.79,29-31.05s-12.98-31.05-29-31.05c-18.1,0-26.95,20.47-29,31.05Z"/>
      <path class="cls-5" d="m126.49,182.43c-.17,6.13,18.74,12.82,35.3,14.02,19,1.38,40.55-4.05,40.95-10.47.18-2.92-4.06-5.32-9.68-8.49-11.92-6.74-23.36-7.12-30.18-7.27-16.17-.36-25.46,4.07-27.89,5.3-4.75,2.4-8.42,4.25-8.49,6.91Z"/>
      <path class="cls-5" d="m195.56,240.54c.88,9.75-8.79,17.56-10.72,19.12-7.86,6.36-16.7,7.2-20.35,7.5-2.8.23-21.06,1.74-31.09-10.5-1.34-1.64-6.68-8.15-5.48-16.12,1.96-13,20.09-21.93,35.45-21.37,14.03.51,31.09,9.15,32.18,21.37Z"/>
      <path class="cls-5" d="m103.79,265.25c.73,3.75,2.23,11.49-1.98,18.85-5.58,9.75-17.91,13.08-27.02,12.2-14.21-1.37-29-13.79-29-31.05s12.98-31.05,29-31.05c18.1,0,26.95,20.47,29,31.05Z"/>
      <path class="cls-9" d="m219.98,280.33c2.96-.82,6.12-1.89,9.42-3.28,9.88-4.17,17.32-9.73,22.54-14.49-1.24,1.94-3.27,4.79-6.29,7.71-5.14,4.96-10.5,7.49-16.23,10.21-3.14,1.49-5.8,2.56-7.61,3.24-.3-.48-.6-.99-.9-1.53-.35-.64-.66-1.26-.93-1.85Z"/>
      <path class="cls-9" d="m76.74,234.29c-1.12,7.13.39,12.27,1.42,14.89,3.18,8.17,9.71,12.67,15.39,16.59,4.3,2.97,8.25,4.86,11.08,6.04.11,1.55.08,3.73-.52,6.24-.47,1.98-.47,3.58-1.09,4.78-2.39-.39-21.43-3.72-30.78-20.8-6.46-11.79-4.88-23.29-4.22-26.97,1.13-.29,2.46-.55,3.95-.7,1.81-.18,3.42-.16,4.77-.06Z"/>
    </g>
    <path class="cls-15" d="m256.63,253.89c-5.83,31.14-64.15,41.66-98.75,40.39-29.96-1.1-86.19-12.65-91.25-43.28-5.25-31.82,45.16-81.74,96.25-80.79,50.71.94,99.69,51.94,93.75,83.67Z"/>
  </g>
  <g>
    <path class="cls-2" d="m238.13,110.15c0,3.27-2.65,5.91-5.92,5.91-.75,0-1.47-.14-2.13-.4l-24.47,56.44c-5.68,3.65-21.45,12.71-43.43,12.14-21.55-.55-36.61-10.04-42.17-13.94l-19.6-60.46c-.59.2-1.22.31-1.87.31-3.27,0-5.92-2.65-5.92-5.92s2.65-5.92,5.92-5.92,5.92,2.65,5.92,5.92c0,1.42-.5,2.72-1.34,3.75,11.16,14.54,22.33,29.07,33.49,43.61,9.24-18.91,18.48-37.81,27.71-56.72-1.57-1.06-3.32-3.1-3.32-5.14,0-3.27,2.65-5.92,5.92-5.92s5.92,2.65,5.92,5.92c0,2.34-1.86,4.45-3.83,5.41,8.24,19.8,16.49,39.59,24.73,59.39,11.33-13.51,22.65-27.02,33.98-40.52-.89-1.03-1.43-2.38-1.43-3.85,0-3.27,2.65-5.92,5.92-5.92s5.92,2.65,5.92,5.92Z"/>
    <g class="cls-18">
      <polygon class="cls-5" points="97.3 133.66 152.92 189.36 165.38 189.06 97.6 121.17 97.3 133.66"/>
      <polygon class="cls-5" points="148.28 120.69 205.52 178.53 218.34 178.21 148.59 107.73 148.28 120.69"/>
    </g>
    <path class="cls-14" d="m238.13,110.15c0,3.27-2.65,5.91-5.92,5.91-.75,0-1.47-.14-2.13-.4l-24.47,56.44c-5.68,3.65-21.45,12.71-43.43,12.14-21.55-.55-36.61-10.04-42.17-13.94l-19.6-60.46c-.59.2-1.22.31-1.87.31-3.27,0-5.92-2.65-5.92-5.92s2.65-5.92,5.92-5.92,5.92,2.65,5.92,5.92c0,1.42-.5,2.72-1.34,3.75,11.16,14.54,22.33,29.07,33.49,43.61,9.24-18.91,18.48-37.81,27.71-56.72-1.57-1.06-3.32-3.1-3.32-5.14,0-3.27,2.65-5.92,5.92-5.92s5.92,2.65,5.92,5.92c0,2.34-1.86,4.45-3.83,5.41,8.24,19.8,16.49,39.59,24.73,59.39,11.33-13.51,22.65-27.02,33.98-40.52-.89-1.03-1.43-2.38-1.43-3.85,0-3.27,2.65-5.92,5.92-5.92s5.92,2.65,5.92,5.92Z"/>
  </g>
  <path class="cls-3" d="m209.71,134.08l-16.43,19.64-9.97-23.19,15.16-22.53c-1.51-1.01-2.51-2.73-2.51-4.69,0-3.1,2.52-5.62,5.63-5.62s5.62,2.52,5.62,5.62c0,2.6-1.76,4.79-4.15,5.43l6.65,25.34Z"/>
  <path class="cls-3" d="m147.41,128.37l-10.8,23.22-15.62-19.82,8.85-25.77c-2.11-.82-3.61-2.86-3.61-5.26,0-3.1,2.52-5.62,5.62-5.62s5.63,2.52,5.63,5.62c0,2.15-1.21,4.02-2.99,4.97l12.92,22.66Z"/>
  <g>
    <line class="cls-2" x1="57.51" y1="114.47" x2="63.34" y2="125.77"/>
    <path class="cls-4" d="m56.06,114.85c1.71,3.31,3.41,6.61,5.12,9.92.24.46.48.93.72,1.39.29.55,1.13.44,1.64.31.29-.08,1.53-.56,1.26-1.09-1.71-3.31-3.41-6.61-5.12-9.92-.24-.46-.48-.93-.72-1.39-.29-.55-1.13-.44-1.64-.31-.29.08-1.53.56-1.26,1.09h0Z"/>
  </g>
  <g>
    <line class="cls-2" x1="66.07" y1="117" x2="55.17" y2="123.23"/>
    <path class="cls-4" d="m65.16,116.55c-3.18,1.82-6.37,3.64-9.55,5.46-.45.26-.9.51-1.35.77s-.83.86-.24,1.17c.62.33,1.5.06,2.05-.26,3.18-1.82,6.37-3.64,9.55-5.46.45-.26.9-.51,1.35-.77s.83-.86.24-1.17c-.62-.33-1.5-.06-2.05.26h0Z"/>
  </g>
  <g>
    <line class="cls-2" x1="225.08" y1="62.32" x2="230.91" y2="73.63"/>
    <path class="cls-4" d="m223.63,62.71c1.71,3.31,3.41,6.61,5.12,9.92.24.46.48.93.72,1.39.29.55,1.13.44,1.64.31.29-.08,1.53-.56,1.26-1.09-1.71-3.31-3.41-6.61-5.12-9.92-.24-.46-.48-.93-.72-1.39-.29-.55-1.13-.44-1.64-.31-.29.08-1.53.56-1.26,1.09h0Z"/>
  </g>
  <g>
    <line class="cls-2" x1="233.64" y1="64.86" x2="222.74" y2="71.08"/>
    <path class="cls-4" d="m232.73,64.41c-3.18,1.82-6.37,3.64-9.55,5.46-.45.26-.9.51-1.35.77s-.83.86-.24,1.17c.62.33,1.5.06,2.05-.26,3.18-1.82,6.37-3.64,9.55-5.46.45-.26.9-.51,1.35-.77s.83-.86.24-1.17c-.62-.33-1.5-.06-2.05.26h0Z"/>
  </g>
  <g>
    <line class="cls-2" x1="111.87" y1="43.37" x2="117.7" y2="54.68"/>
    <path class="cls-4" d="m110.42,43.76c1.71,3.31,3.41,6.61,5.12,9.92.24.46.48.93.72,1.39.29.55,1.13.44,1.64.31.29-.08,1.53-.56,1.26-1.09-1.71-3.31-3.41-6.61-5.12-9.92-.24-.46-.48-.93-.72-1.39-.29-.55-1.13-.44-1.64-.31-.29.08-1.53.56-1.26,1.09h0Z"/>
  </g>
  <g>
    <line class="cls-2" x1="120.43" y1="45.91" x2="109.53" y2="52.14"/>
    <path class="cls-4" d="m119.52,45.46c-3.18,1.82-6.37,3.64-9.55,5.46-.45.26-.9.51-1.35.77s-.83.86-.24,1.17c.62.33,1.5.06,2.05-.26,3.18-1.82,6.37-3.64,9.55-5.46.45-.26.9-.51,1.35-.77s.83-.86.24-1.17c-.62-.33-1.5-.06-2.05.26h0Z"/>
  </g>
  <g>
    <line class="cls-2" x1="250.27" y1="161.59" x2="256.11" y2="172.89"/>
    <path class="cls-4" d="m249.23,161.64c1.71,3.31,3.41,6.61,5.12,9.92.24.46.48.93.72,1.39.27.52.96.9,1.54.87.55-.03.8-.48.54-.97-1.71-3.31-3.41-6.61-5.12-9.92-.24-.46-.48-.93-.72-1.39-.27-.52-.96-.9-1.54-.87-.55.03-.8.48-.54.97h0Z"/>
  </g>
  <g>
    <line class="cls-2" x1="258.83" y1="164.13" x2="247.94" y2="170.35"/>
    <path class="cls-4" d="m258.29,163c-3.18,1.82-6.37,3.64-9.55,5.46-.45.26-.9.51-1.35.77-.57.33-.75,1.02-.47,1.61.25.52.97.98,1.54.65,3.18-1.82,6.37-3.64,9.55-5.46.45-.26.9-.51,1.35-.77.57-.33.75-1.02.47-1.61-.25-.52-.97-.98-1.54-.65h0Z"/>
  </g>
  <path class="cls-13" d="m90.63,309.05l15.27,65.15-17.09-4.59c.86-.29,2.68-1.03,4.16-2.82,2.41-2.92,2.08-6.37,2-7.06-2.86-14.86-5.72-29.71-8.58-44.57l4.25-6.11Z"/>
  <polygon class="cls-13" points="42.87 353.85 56.63 359.38 54.87 352.71 55.69 348.33 42.87 353.85"/>
  <polygon class="cls-13" points="148.94 337.88 155.88 343.6 155.88 350.91 152.77 351.23 151.53 349.12 151.53 345.82 148.94 337.88"/>
  <polygon class="cls-13" points="138.95 336.77 133.07 345.82 130.01 360.5 131.19 372.2 134.48 379.37 139.89 382.43 139.89 384.19 135.54 383.72 131.07 381.37 126.72 376.55 123.13 366.67 122.37 356.3 127.49 344.12 138.95 336.77"/>
  <polygon class="cls-13" points="192.57 353.85 198.28 353.85 196.1 344.56 190.93 340.39 186.24 338.33 190.93 343.8 192.57 353.85"/>
  <path class="cls-13" d="m176.34,339.27l-5.7,17.29,4.17,18.58,7.41,7.29,5.64,1.76-3.53,2.23-9.76-2.23-7.17-8.35-3.41-10.47.82-12.94,4.23-8.64c.58-.75,1.5-1.75,2.82-2.65,1.74-1.18,3.42-1.67,4.47-1.88Z"/>
  <path class="cls-13" d="m216.56,378.55c.59.86,2.97-.06,7.76-1.41,8.36-2.35,12.35-2.71,12.35-3.88,0-1.09-3.48-.96-6.59-4-1.72-1.69-2.52-3.57-3.17-5.41-2.98-8.39-4.25-19.76-5.64-28.22-1.63-9.88-3.8-18.12,0-20.93.67-.49,1.89-1.09,1.76-1.53-.19-.7-3.43.06-9.52.24-3.76.11-5.55-.09-5.76.59-.26.82,2.14,1.71,3.88,3.65,2.83,3.14,2.11,7.02,2.3,12.67.08,2.62,1.13,7.83,3.23,18.26.33,1.66,1.05,5.81,2.47,14.11.68,3.98,1.02,6.11.24,8.82-1.2,4.11-3.98,6.05-3.29,7.06Z"/>
  <polygon class="cls-13" points="247.03 328.17 259.37 363.17 265.99 364.44 261.66 366.27 256.51 365.78 252.18 362.38 242.45 333.56 245.44 331.16 247.03 328.17"/>
</svg>